SplineFontDB: 3.2
FontName: kannada54
FullName: kannada54
FamilyName: kannada54
Weight: Regular
Copyright: Copyright 2022 The Noto Project Authors (https://github.com/notofonts/kannada)
Version: 2.003
ItalicAngle: 0
UnderlinePosition: -125
UnderlineWidth: 50
Ascent: 800
Descent: 200
InvalidEm: 0
sfntRevision: 0x000200c5
LayerCount: 2
Layer: 0 1 "Back" 1
Layer: 1 1 "Fore" 0
XUID: [1021 467 -1121320856 3583952]
StyleMap: 0x0040
FSType: 0
OS2Version: 4
OS2_WeightWidthSlopeOnly: 0
OS2_UseTypoMetrics: 1
CreationTime: 1528877849
ModificationTime: 1674091757
PfmFamily: 81
TTFWeight: 400
TTFWidth: 3
LineGap: 0
VLineGap: 0
Panose: 0 0 0 0 0 0 0 0 0 0
OS2TypoAscent: 809
OS2TypoAOffset: 0
OS2TypoDescent: -540
OS2TypoDOffset: 0
OS2TypoLinegap: 0
OS2WinAscent: 809
OS2WinAOffset: 0
OS2WinDescent: 540
OS2WinDOffset: 0
HheadAscent: 809
HheadAOffset: 0
HheadDescent: -540
HheadDOffset: 0
OS2SubXSize: 650
OS2SubYSize: 600
OS2SubXOff: 0
OS2SubYOff: 75
OS2SupXSize: 650
OS2SupYSize: 600
OS2SupXOff: 0
OS2SupYOff: 350
OS2StrikeYSize: 50
OS2StrikeYPos: 331
OS2CapHeight: 690
OS2XHeight: 551
OS2Vendor: 'GOOG'
OS2CodePages: 00000093.00000000
OS2UnicodeRanges: 80408003.00002042.00000000.00000000
Lookup: 2 0 0 "Multiple Substitution lookup 0" { "Multiple Substitution lookup 0 subtable"  } []
Lookup: 1 0 0 "Single Substitution lookup 1" { "Single Substitution lookup 1 subtable"  } []
Lookup: 1 0 0 "Single Substitution lookup 2" { "Single Substitution lookup 2 subtable"  } []
Lookup: 1 0 0 "Single Substitution lookup 3" { "Single Substitution lookup 3 subtable"  } []
Lookup: 1 0 0 "Single Substitution lookup 4" { "Single Substitution lookup 4 subtable"  } []
Lookup: 1 0 0 "Single Substitution lookup 5" { "Single Substitution lookup 5 subtable"  } []
Lookup: 1 0 0 "Single Substitution lookup 6" { "Single Substitution lookup 6 subtable"  } []
Lookup: 1 0 0 "Single Substitution lookup 7" { "Single Substitution lookup 7 subtable"  } []

StartChar: exclam.knda
Encoding: 33 33 3
Width: 257
Flags: W
LayerCount: 2
Fore
SplineSet
157 195 m 1,0,-1
 99 195 l 1,1,-1
 77 696 l 1,2,-1
 178 696 l 1,3,-1
 157 195 l 1,0,-1
72 53 m 0,4,5
 72 87 72 87 87 102.5 c 128,-1,6
 102 118 102 118 128 118 c 0,7,8
 153 118 153 118 169 103 c 128,-1,9
 185 88 185 88 185 53 c 0,10,11
 185 19 185 19 168.5 3.5 c 128,-1,12
 152 -12 152 -12 128 -12 c 0,13,14
 102 -12 102 -12 87 4.5 c 128,-1,15
 72 21 72 21 72 53 c 0,4,5
EndSplineSet
EndChar

StartChar: quotedbl.knda
Encoding: 34 34 4
Width: 386
Flags: W
LayerCount: 2
Fore
SplineSet
83 535 m 1,0,-1
 62 793 l 1,1,-1
 156 793 l 1,2,-1
 136 535 l 1,3,-1
 83 535 l 1,0,-1
249 535 m 1,4,-1
 229 793 l 1,5,-1
 323 793 l 1,6,-1
 303 535 l 1,7,-1
 249 535 l 1,4,-1
EndSplineSet
EndChar

StartChar: numbersign.knda
Encoding: 35 35 5
Width: 542
Flags: W
LayerCount: 2
Fore
SplineSet
78 0 m 1,0,-1
 117 203 l 1,1,-1
 24 203 l 1,2,-1
 24 268 l 1,3,-1
 130 268 l 1,4,-1
 159 422 l 1,5,-1
 51 422 l 1,6,-1
 51 486 l 1,7,-1
 171 486 l 1,8,-1
 210 690 l 1,9,-1
 275 690 l 1,10,-1
 235 486 l 1,11,-1
 356 486 l 1,12,-1
 396 690 l 1,13,-1
 460 690 l 1,14,-1
 420 486 l 1,15,-1
 517 486 l 1,16,-1
 517 422 l 1,17,-1
 408 422 l 1,18,-1
 379 268 l 1,19,-1
 491 268 l 1,20,-1
 491 203 l 1,21,-1
 366 203 l 1,22,-1
 327 0 l 1,23,-1
 262 0 l 1,24,-1
 302 203 l 1,25,-1
 182 203 l 1,26,-1
 142 0 l 1,27,-1
 78 0 l 1,0,-1
194 268 m 1,28,-1
 314 268 l 1,29,-1
 344 422 l 1,30,-1
 224 422 l 1,31,-1
 194 268 l 1,28,-1
EndSplineSet
EndChar

StartChar: percent.knda
Encoding: 37 37 6
Width: 722
Flags: W
LayerCount: 2
Fore
SplineSet
179 0 m 1,0,-1
 473 690 l 1,1,-1
 542 690 l 1,2,-1
 248 0 l 1,3,-1
 179 0 l 1,0,-1
170 276 m 0,4,5
 109 276 109 276 77.5 331 c 128,-1,6
 46 386 46 386 46 489 c 256,7,8
 46 592 46 592 77 647 c 128,-1,9
 108 702 108 702 173 702 c 0,10,11
 235 702 235 702 266.5 647 c 128,-1,12
 298 592 298 592 298 490 c 0,13,14
 298 386 298 386 266.5 331 c 128,-1,15
 235 276 235 276 170 276 c 0,4,5
171 337 m 0,16,17
 202 337 202 337 215.5 374.5 c 128,-1,18
 229 412 229 412 229 489 c 256,19,20
 229 566 229 566 215.5 603.5 c 128,-1,21
 202 641 202 641 172 641 c 256,22,23
 142 641 142 641 128.5 603.5 c 128,-1,24
 115 566 115 566 115 489 c 256,25,26
 115 412 115 412 128.5 374.5 c 128,-1,27
 142 337 142 337 171 337 c 0,16,17
548 -12 m 0,28,29
 486 -12 486 -12 455 43 c 128,-1,30
 424 98 424 98 424 201 c 256,31,32
 424 304 424 304 455 359 c 128,-1,33
 486 414 486 414 550 414 c 0,34,35
 613 414 613 414 644.5 359 c 128,-1,36
 676 304 676 304 676 202 c 0,37,38
 676 98 676 98 644 43 c 128,-1,39
 612 -12 612 -12 548 -12 c 0,28,29
549 49 m 0,40,41
 579 49 579 49 593 86.5 c 128,-1,42
 607 124 607 124 607 201 c 256,43,44
 607 278 607 278 593 315.5 c 128,-1,45
 579 353 579 353 549 353 c 256,46,47
 519 353 519 353 505.5 315.5 c 128,-1,48
 492 278 492 278 492 201 c 256,49,50
 492 124 492 124 506 86.5 c 128,-1,51
 520 49 520 49 549 49 c 0,40,41
EndSplineSet
EndChar

StartChar: quotesingle.knda
Encoding: 39 39 7
Width: 219
Flags: W
LayerCount: 2
Fore
SplineSet
83 535 m 1,0,-1
 62 793 l 1,1,-1
 156 793 l 1,2,-1
 136 535 l 1,3,-1
 83 535 l 1,0,-1
EndSplineSet
EndChar

StartChar: parenleft.knda
Encoding: 40 40 8
Width: 374
Flags: W
LayerCount: 2
Fore
SplineSet
46 218 m 0,0,1
 46 325 46 325 66 426.5 c 128,-1,2
 86 528 86 528 127 620.5 c 128,-1,3
 168 713 168 713 229 793 c 1,4,-1
 310 793 l 1,5,6
 249 702 249 702 209.5 608.5 c 128,-1,7
 170 515 170 515 150.5 418 c 128,-1,8
 131 321 131 321 131 217 c 0,9,10
 131 58 131 58 174 -85 c 128,-1,11
 217 -228 217 -228 311 -368 c 1,12,-1
 229 -368 l 1,13,14
 136 -248 136 -248 91 -96.5 c 128,-1,15
 46 55 46 55 46 218 c 0,0,1
EndSplineSet
EndChar

StartChar: parenright.knda
Encoding: 41 41 9
Width: 374
Flags: W
LayerCount: 2
Fore
SplineSet
328 207 m 0,0,1
 328 100 328 100 307.5 -1.5 c 128,-1,2
 287 -103 287 -103 246.5 -195.5 c 128,-1,3
 206 -288 206 -288 144 -368 c 1,4,-1
 64 -368 l 1,5,6
 125 -277 125 -277 164.5 -183.5 c 128,-1,7
 204 -90 204 -90 223.5 7.5 c 128,-1,8
 243 105 243 105 243 208 c 0,9,10
 243 367 243 367 200.5 510 c 128,-1,11
 158 653 158 653 63 793 c 1,12,-1
 144 793 l 1,13,14
 237 673 237 673 282.5 521.5 c 128,-1,15
 328 370 328 370 328 207 c 0,0,1
EndSplineSet
EndChar

StartChar: asterisk.knda
Encoding: 42 42 10
Width: 524
Flags: W
LayerCount: 2
Fore
SplineSet
305 793 m 1,0,-1
 289 612 l 1,1,-1
 470 662 l 1,2,-1
 484 576 l 1,3,-1
 307 562 l 1,4,-1
 421 411 l 1,5,-1
 342 366 l 1,6,-1
 260 535 l 1,7,-1
 185 366 l 1,8,-1
 103 411 l 1,9,-1
 216 562 l 1,10,-1
 40 576 l 1,11,-1
 54 662 l 1,12,-1
 233 613 l 1,13,-1
 216 793 l 1,14,-1
 305 793 l 1,0,-1
EndSplineSet
EndChar

StartChar: plus.knda
Encoding: 43 43 11
Width: 472
Flags: W
LayerCount: 2
Fore
SplineSet
201 107 m 1,0,-1
 201 308 l 1,1,-1
 36 308 l 1,2,-1
 36 377 l 1,3,-1
 201 377 l 1,4,-1
 201 580 l 1,5,-1
 271 580 l 1,6,-1
 271 377 l 1,7,-1
 435 377 l 1,8,-1
 435 308 l 1,9,-1
 271 308 l 1,10,-1
 271 107 l 1,11,-1
 201 107 l 1,0,-1
EndSplineSet
EndChar

StartChar: comma.knda
Encoding: 44 44 12
Width: 260
Flags: W
LayerCount: 2
Fore
SplineSet
184 119 m 1,0,-1
 191 108 l 1,1,2
 181 68 181 68 169 27.5 c 128,-1,3
 157 -13 157 -13 142.5 -51.5 c 128,-1,4
 128 -90 128 -90 112 -126 c 1,5,-1
 49 -126 l 1,6,7
 60 -86 60 -86 68.5 -43.5 c 128,-1,8
 77 -1 77 -1 84.5 41 c 128,-1,9
 92 83 92 83 95 119 c 1,10,-1
 184 119 l 1,0,-1
EndSplineSet
EndChar

StartChar: hyphen.knda
Encoding: 45 45 13
Width: 312
Flags: W
LayerCount: 2
Fore
SplineSet
39 246 m 1,0,-1
 39 321 l 1,1,-1
 274 321 l 1,2,-1
 274 246 l 1,3,-1
 39 246 l 1,0,-1
EndSplineSet
EndChar

StartChar: period.knda
Encoding: 46 46 14
Width: 257
Flags: W
LayerCount: 2
Fore
SplineSet
72 53 m 0,0,1
 72 87 72 87 87 102.5 c 128,-1,2
 102 118 102 118 128 118 c 0,3,4
 153 118 153 118 169 103 c 128,-1,5
 185 88 185 88 185 53 c 0,6,7
 185 19 185 19 169 3.5 c 128,-1,8
 153 -12 153 -12 128 -12 c 256,9,10
 103 -12 103 -12 87.5 4.5 c 128,-1,11
 72 21 72 21 72 53 c 0,0,1
EndSplineSet
EndChar

StartChar: slash.knda
Encoding: 47 47 15
Width: 471
Flags: W
LayerCount: 2
Fore
SplineSet
400 793 m 1,0,-1
 149 -368 l 1,1,-1
 71 -368 l 1,2,-1
 322 793 l 1,3,-1
 400 793 l 1,0,-1
EndSplineSet
EndChar

StartChar: zero.knda
Encoding: 48 48 16
Width: 472
Flags: W
LayerCount: 2
Fore
SplineSet
428 345 m 0,0,1
 428 261 428 261 417 194.5 c 128,-1,2
 406 128 406 128 383 82 c 128,-1,3
 360 36 360 36 323.5 12 c 128,-1,4
 287 -12 287 -12 235 -12 c 0,5,6
 173 -12 173 -12 130.5 22.5 c 128,-1,7
 88 57 88 57 65.5 135.5 c 128,-1,8
 43 214 43 214 43 345 c 0,9,10
 43 464 43 464 63.5 543 c 128,-1,11
 84 622 84 622 126.5 662 c 128,-1,12
 169 702 169 702 235 702 c 256,13,14
 301 702 301 702 343.5 662 c 128,-1,15
 386 622 386 622 407 542.5 c 128,-1,16
 428 463 428 463 428 345 c 0,0,1
127 345 m 256,17,18
 127 250 127 250 137.5 187.5 c 128,-1,19
 148 125 148 125 172.5 94.5 c 128,-1,20
 197 64 197 64 235 64 c 0,21,22
 274 64 274 64 297.5 95 c 128,-1,23
 321 126 321 126 332.5 188.5 c 128,-1,24
 344 251 344 251 344 345 c 256,25,26
 344 439 344 439 332.5 501.5 c 128,-1,27
 321 564 321 564 297.5 595 c 128,-1,28
 274 626 274 626 235 626 c 0,29,30
 197 626 197 626 172.5 595.5 c 128,-1,31
 148 565 148 565 137.5 502.5 c 128,-1,32
 127 440 127 440 127 345 c 256,17,18
EndSplineSet
EndChar

StartChar: one.knda
Encoding: 49 49 17
Width: 472
Flags: W
LayerCount: 2
Fore
SplineSet
312 0 m 1,0,-1
 229 0 l 1,1,-1
 229 469 l 2,2,3
 229 493 229 493 229.5 515 c 128,-1,4
 230 537 230 537 231 558 c 128,-1,5
 232 579 232 579 233 600 c 1,6,7
 224 590 224 590 213 578 c 128,-1,8
 202 566 202 566 184 549 c 2,9,-1
 117 489 l 1,10,-1
 71 542 l 1,11,-1
 241 697 l 1,12,-1
 312 697 l 1,13,-1
 312 0 l 1,0,-1
EndSplineSet
EndChar

StartChar: two.knda
Encoding: 50 50 18
Width: 472
Flags: W
LayerCount: 2
Fore
SplineSet
423 0 m 1,0,-1
 37 0 l 1,1,-1
 37 65 l 1,2,-1
 195 266 l 2,3,4
 236 316 236 316 264 358.5 c 128,-1,5
 292 401 292 401 306 440 c 128,-1,6
 320 479 320 479 320 517 c 0,7,8
 320 551 320 551 307.5 576 c 128,-1,9
 295 601 295 601 272 614 c 128,-1,10
 249 627 249 627 215 627 c 0,11,12
 178 627 178 627 146 613.5 c 128,-1,13
 114 600 114 600 84 577 c 1,14,-1
 43 637 l 1,15,16
 67 655 67 655 94.5 670 c 128,-1,17
 122 685 122 685 153 693.5 c 128,-1,18
 184 702 184 702 221 702 c 0,19,20
 279 702 279 702 320 680 c 128,-1,21
 361 658 361 658 382.5 618.5 c 128,-1,22
 404 579 404 579 404 525 c 0,23,24
 404 470 404 470 388 423.5 c 128,-1,25
 372 377 372 377 342 332.5 c 128,-1,26
 312 288 312 288 270 237 c 2,27,-1
 143 80 l 1,28,-1
 143 76 l 1,29,-1
 423 76 l 1,30,-1
 423 0 l 1,0,-1
EndSplineSet
EndChar

StartChar: three.knda
Encoding: 51 51 19
Width: 472
Flags: W
LayerCount: 2
Fore
SplineSet
403 531 m 0,0,1
 403 490 403 490 388.5 456 c 128,-1,2
 374 422 374 422 345.5 399 c 128,-1,3
 317 376 317 376 276 363 c 1,4,-1
 276 360 l 1,5,6
 346 347 346 347 382 303.5 c 128,-1,7
 418 260 418 260 418 191 c 0,8,9
 418 131 418 131 393.5 85 c 128,-1,10
 369 39 369 39 320 13.5 c 128,-1,11
 271 -12 271 -12 199 -12 c 0,12,13
 150 -12 150 -12 110.5 -5.5 c 128,-1,14
 71 1 71 1 37 15 c 1,15,-1
 37 95 l 1,16,17
 73 79 73 79 111 70 c 128,-1,18
 149 61 149 61 194 61 c 0,19,20
 266 61 266 61 298.5 98 c 128,-1,21
 331 135 331 135 331 195 c 0,22,23
 331 237 331 237 313 264.5 c 128,-1,24
 295 292 295 292 258.5 306 c 128,-1,25
 222 320 222 320 168 320 c 2,26,-1
 122 320 l 1,27,-1
 122 393 l 1,28,-1
 171 393 l 2,29,30
 219 393 219 393 252 409.5 c 128,-1,31
 285 426 285 426 302.5 455.5 c 128,-1,32
 320 485 320 485 320 523 c 0,33,34
 320 573 320 573 292 601 c 128,-1,35
 264 629 264 629 213 629 c 0,36,37
 172 629 172 629 140 615.5 c 128,-1,38
 108 602 108 602 76 581 c 1,39,-1
 35 641 l 1,40,41
 76 670 76 670 120 686 c 128,-1,42
 164 702 164 702 219 702 c 0,43,44
 308 702 308 702 355.5 655 c 128,-1,45
 403 608 403 608 403 531 c 0,0,1
EndSplineSet
EndChar

StartChar: four.knda
Encoding: 52 52 20
Width: 472
Flags: W
LayerCount: 2
Fore
SplineSet
456 156 m 1,0,-1
 372 156 l 1,1,-1
 372 0 l 1,2,-1
 290 0 l 1,3,-1
 290 156 l 1,4,-1
 18 156 l 1,5,-1
 18 225 l 1,6,-1
 286 696 l 1,7,-1
 372 696 l 1,8,-1
 372 229 l 1,9,-1
 456 229 l 1,10,-1
 456 156 l 1,0,-1
290 229 m 1,11,-1
 290 465 l 2,12,13
 290 497 290 497 291.5 532.5 c 128,-1,14
 293 568 293 568 294 592 c 1,15,-1
 290 592 l 1,16,17
 282 571 282 571 271.5 549 c 128,-1,18
 261 527 261 527 250 509 c 2,19,-1
 96 229 l 1,20,-1
 290 229 l 1,11,-1
EndSplineSet
EndChar

StartChar: five.knda
Encoding: 53 53 21
Width: 472
Flags: W
LayerCount: 2
Fore
SplineSet
200 -12 m 0,0,1
 156 -12 156 -12 118 -4.5 c 128,-1,2
 80 3 80 3 53 16 c 1,3,-1
 53 97 l 1,4,5
 83 80 83 80 120 71 c 128,-1,6
 157 62 157 62 198 62 c 0,7,8
 244 62 244 62 275 81.5 c 128,-1,9
 306 101 306 101 322.5 136.5 c 128,-1,10
 339 172 339 172 339 218 c 0,11,12
 339 286 339 286 304 320.5 c 128,-1,13
 269 355 269 355 202 355 c 0,14,15
 177 355 177 355 149.5 351 c 128,-1,16
 122 347 122 347 99 339 c 1,17,-1
 62 370 l 1,18,-1
 84 690 l 1,19,-1
 382 690 l 1,20,-1
 382 613 l 1,21,-1
 154 613 l 1,22,-1
 140 418 l 1,23,24
 160 423 160 423 183 425 c 128,-1,25
 206 427 206 427 226 427 c 0,26,27
 288 427 288 427 332.5 401.5 c 128,-1,28
 377 376 377 376 400.5 330.5 c 128,-1,29
 424 285 424 285 424 223 c 0,30,31
 424 152 424 152 398 99 c 128,-1,32
 372 46 372 46 322 17 c 128,-1,33
 272 -12 272 -12 200 -12 c 0,0,1
EndSplineSet
EndChar

StartChar: six.knda
Encoding: 54 54 22
Width: 472
Flags: W
LayerCount: 2
Fore
SplineSet
49 294 m 0,0,1
 49 366 49 366 57.5 428.5 c 128,-1,2
 66 491 66 491 84.5 541 c 128,-1,3
 103 591 103 591 133 627.5 c 128,-1,4
 163 664 163 664 207 683 c 128,-1,5
 251 702 251 702 311 702 c 0,6,7
 332 702 332 702 352.5 699.5 c 128,-1,8
 373 697 373 697 389 692 c 1,9,-1
 389 618 l 1,10,11
 372 623 372 623 353 626 c 128,-1,12
 334 629 334 629 313 629 c 0,13,14
 267 629 267 629 233 610.5 c 128,-1,15
 199 592 199 592 177 557 c 128,-1,16
 155 522 155 522 144 472 c 128,-1,17
 133 422 133 422 130 358 c 1,18,-1
 135 358 l 1,19,20
 147 383 147 383 166 401 c 128,-1,21
 185 419 185 419 210 429 c 128,-1,22
 235 439 235 439 265 439 c 0,23,24
 319 439 319 439 356 411 c 128,-1,25
 393 383 393 383 412 334 c 128,-1,26
 431 285 431 285 431 221 c 0,27,28
 431 153 431 153 409.5 100.5 c 128,-1,29
 388 48 388 48 347 18 c 128,-1,30
 306 -12 306 -12 246 -12 c 0,31,32
 201 -12 201 -12 164.5 7.5 c 128,-1,33
 128 27 128 27 102.5 66 c 128,-1,34
 77 105 77 105 63 162 c 128,-1,35
 49 219 49 219 49 294 c 0,0,1
245 63 m 0,36,37
 293 63 293 63 320.5 101.5 c 128,-1,38
 348 140 348 140 348 220 c 0,39,40
 348 291 348 291 323 329 c 128,-1,41
 298 367 298 367 246 367 c 0,42,43
 211 367 211 367 186 349 c 128,-1,44
 161 331 161 331 147.5 304 c 128,-1,45
 134 277 134 277 134 246 c 0,46,47
 134 213 134 213 140.5 180.5 c 128,-1,48
 147 148 147 148 160.5 121.5 c 128,-1,49
 174 95 174 95 195 79 c 128,-1,50
 216 63 216 63 245 63 c 0,36,37
EndSplineSet
EndChar

StartChar: seven.knda
Encoding: 55 55 23
Width: 472
Flags: W
LayerCount: 2
Fore
SplineSet
108 0 m 1,0,-1
 346 612 l 1,1,-1
 35 612 l 1,2,-1
 35 690 l 1,3,-1
 432 690 l 1,4,-1
 432 627 l 1,5,-1
 196 0 l 1,6,-1
 108 0 l 1,0,-1
EndSplineSet
EndChar

StartChar: eight.knda
Encoding: 56 56 24
Width: 472
Flags: W
LayerCount: 2
Fore
SplineSet
237 702 m 0,0,1
 292 702 292 702 332 682.5 c 128,-1,2
 372 663 372 663 394 626 c 128,-1,3
 416 589 416 589 416 538 c 0,4,5
 416 500 416 500 402 468 c 128,-1,6
 388 436 388 436 361.5 410 c 128,-1,7
 335 384 335 384 297 362 c 1,8,9
 337 339 337 339 367.5 312.5 c 128,-1,10
 398 286 398 286 416 253 c 128,-1,11
 434 220 434 220 434 175 c 0,12,13
 434 119 434 119 410 77 c 128,-1,14
 386 35 386 35 342.5 11.5 c 128,-1,15
 299 -12 299 -12 240 -12 c 0,16,17
 175 -12 175 -12 130 10.5 c 128,-1,18
 85 33 85 33 61.5 74 c 128,-1,19
 38 115 38 115 38 171 c 0,20,21
 38 214 38 214 53 248 c 128,-1,22
 68 282 68 282 96.5 310 c 128,-1,23
 125 338 125 338 165 360 c 1,24,25
 130 385 130 385 106.5 411.5 c 128,-1,26
 83 438 83 438 70 469.5 c 128,-1,27
 57 501 57 501 57 538 c 0,28,29
 57 589 57 589 80 626 c 128,-1,30
 103 663 103 663 143 682.5 c 128,-1,31
 183 702 183 702 237 702 c 0,0,1
120 171 m 0,32,33
 120 122 120 122 150 90 c 128,-1,34
 180 58 180 58 236 58 c 256,35,36
 292 58 292 58 321.5 91 c 128,-1,37
 351 124 351 124 351 176 c 0,38,39
 351 203 351 203 339 226.5 c 128,-1,40
 327 250 327 250 303 271.5 c 128,-1,41
 279 293 279 293 245 313 c 2,42,-1
 226 324 l 1,43,44
 190 303 190 303 166.5 281 c 128,-1,45
 143 259 143 259 131.5 232 c 128,-1,46
 120 205 120 205 120 171 c 0,32,33
236 632 m 0,47,48
 193 632 193 632 166 606 c 128,-1,49
 139 580 139 580 139 533 c 0,50,51
 139 502 139 502 151 478.5 c 128,-1,52
 163 455 163 455 185 436 c 128,-1,53
 207 417 207 417 236 400 c 1,54,55
 268 418 268 418 289.5 437 c 128,-1,56
 311 456 311 456 322.5 480 c 128,-1,57
 334 504 334 504 334 535 c 0,58,59
 334 582 334 582 307.5 607 c 128,-1,60
 281 632 281 632 236 632 c 0,47,48
EndSplineSet
EndChar

StartChar: nine.knda
Encoding: 57 57 25
Width: 472
Flags: W
LayerCount: 2
Fore
SplineSet
424 402 m 0,0,1
 424 328 424 328 415.5 264.5 c 128,-1,2
 407 201 407 201 388 150 c 128,-1,3
 369 99 369 99 338.5 63 c 128,-1,4
 308 27 308 27 264 7.5 c 128,-1,5
 220 -12 220 -12 161 -12 c 0,6,7
 143 -12 143 -12 119 -9 c 128,-1,8
 95 -6 95 -6 80 -2 c 1,9,-1
 80 74 l 1,10,11
 97 68 97 68 117 64.5 c 128,-1,12
 137 61 137 61 159 61 c 0,13,14
 210 61 210 61 244.5 83 c 128,-1,15
 279 105 279 105 300 143 c 128,-1,16
 321 181 321 181 331 230 c 128,-1,17
 341 279 341 279 343 332 c 1,18,-1
 338 332 l 1,19,20
 326 308 326 308 307.5 289.5 c 128,-1,21
 289 271 289 271 264 261 c 128,-1,22
 239 251 239 251 207 251 c 0,23,24
 154 251 154 251 117 279 c 128,-1,25
 80 307 80 307 61 356.5 c 128,-1,26
 42 406 42 406 42 469 c 0,27,28
 42 537 42 537 63.5 589.5 c 128,-1,29
 85 642 85 642 127.5 672 c 128,-1,30
 170 702 170 702 231 702 c 0,31,32
 276 702 276 702 311.5 683 c 128,-1,33
 347 664 347 664 372.5 626 c 128,-1,34
 398 588 398 588 411 531.5 c 128,-1,35
 424 475 424 475 424 402 c 0,0,1
230 627 m 0,36,37
 181 627 181 627 153.5 588.5 c 128,-1,38
 126 550 126 550 126 471 c 0,39,40
 126 400 126 400 151.5 362 c 128,-1,41
 177 324 177 324 228 324 c 0,42,43
 265 324 265 324 289.5 342.5 c 128,-1,44
 314 361 314 361 327 390 c 128,-1,45
 340 419 340 419 340 450 c 0,46,47
 340 477 340 477 334.5 507.5 c 128,-1,48
 329 538 329 538 316.5 565.5 c 128,-1,49
 304 593 304 593 282.5 610 c 128,-1,50
 261 627 261 627 230 627 c 0,36,37
EndSplineSet
EndChar

StartChar: colon.knda
Encoding: 58 58 26
Width: 257
Flags: W
LayerCount: 2
Fore
SplineSet
72 53 m 0,0,1
 72 87 72 87 87 102.5 c 128,-1,2
 102 118 102 118 128 118 c 0,3,4
 153 118 153 118 169 103 c 128,-1,5
 185 88 185 88 185 53 c 0,6,7
 185 19 185 19 168.5 3.5 c 128,-1,8
 152 -12 152 -12 128 -12 c 0,9,10
 102 -12 102 -12 87 4.5 c 128,-1,11
 72 21 72 21 72 53 c 0,0,1
72 387 m 0,12,13
 72 421 72 421 87 436.5 c 128,-1,14
 102 452 102 452 128 452 c 256,15,16
 154 452 154 452 169.5 436.5 c 128,-1,17
 185 421 185 421 185 387 c 256,18,19
 185 353 185 353 168.5 337 c 128,-1,20
 152 321 152 321 128 321 c 0,21,22
 102 321 102 321 87 337.5 c 128,-1,23
 72 354 72 354 72 387 c 0,12,13
EndSplineSet
EndChar

StartChar: semicolon.knda
Encoding: 59 59 27
Width: 264
Flags: W
LayerCount: 2
Fore
SplineSet
184 119 m 1,0,-1
 191 108 l 1,1,2
 181 68 181 68 169 27.5 c 128,-1,3
 157 -13 157 -13 142.5 -51.5 c 128,-1,4
 128 -90 128 -90 112 -126 c 1,5,-1
 49 -126 l 1,6,7
 60 -86 60 -86 68.5 -43.5 c 128,-1,8
 77 -1 77 -1 84.5 41 c 128,-1,9
 92 83 92 83 96 119 c 1,10,-1
 184 119 l 1,0,-1
82 387 m 0,11,12
 82 421 82 421 97 436.5 c 128,-1,13
 112 452 112 452 138 452 c 256,14,15
 164 452 164 452 179.5 436.5 c 128,-1,16
 195 421 195 421 195 387 c 256,17,18
 195 353 195 353 178.5 337 c 128,-1,19
 162 321 162 321 138 321 c 0,20,21
 113 321 113 321 97.5 337.5 c 128,-1,22
 82 354 82 354 82 387 c 0,11,12
EndSplineSet
EndChar

StartChar: less.knda
Encoding: 60 60 28
Width: 472
Flags: W
LayerCount: 2
Fore
SplineSet
436 117 m 1,0,-1
 35 319 l 1,1,-1
 35 368 l 1,2,-1
 436 577 l 1,3,-1
 436 499 l 1,4,-1
 128 344 l 1,5,-1
 436 195 l 1,6,-1
 436 117 l 1,0,-1
EndSplineSet
EndChar

StartChar: equal.knda
Encoding: 61 61 29
Width: 472
Flags: W
LayerCount: 2
Fore
SplineSet
38 412 m 1,0,-1
 38 481 l 1,1,-1
 433 481 l 1,2,-1
 433 412 l 1,3,-1
 38 412 l 1,0,-1
38 203 m 1,4,-1
 38 272 l 1,5,-1
 433 272 l 1,6,-1
 433 203 l 1,7,-1
 38 203 l 1,4,-1
EndSplineSet
EndChar

StartChar: greater.knda
Encoding: 62 62 30
Width: 472
Flags: W
LayerCount: 2
Fore
SplineSet
36 117 m 1,0,-1
 36 195 l 1,1,-1
 344 344 l 1,2,-1
 36 499 l 1,3,-1
 36 577 l 1,4,-1
 437 368 l 1,5,-1
 437 319 l 1,6,-1
 36 117 l 1,0,-1
EndSplineSet
EndChar

StartChar: question.knda
Encoding: 63 63 31
Width: 397
Flags: W
LayerCount: 2
Fore
SplineSet
189 702 m 0,0,1
 266 702 266 702 310 656.5 c 128,-1,2
 354 611 354 611 354 533 c 0,3,4
 354 491 354 491 344 459.5 c 128,-1,5
 334 428 334 428 314.5 398.5 c 128,-1,6
 295 369 295 369 263 333 c 0,7,8
 240 307 240 307 227 286.5 c 128,-1,9
 214 266 214 266 209 245.5 c 128,-1,10
 204 225 204 225 204 198 c 2,11,-1
 204 189 l 1,12,-1
 138 189 l 1,13,-1
 138 207 l 2,14,15
 138 241 138 241 143.5 268 c 128,-1,16
 149 295 149 295 162.5 319.5 c 128,-1,17
 176 344 176 344 200 371 c 0,18,19
 226 400 226 400 242.5 423 c 128,-1,20
 259 446 259 446 266.5 470.5 c 128,-1,21
 274 495 274 495 274 528 c 0,22,23
 274 573 274 573 251 600.5 c 128,-1,24
 228 628 228 628 182 628 c 0,25,26
 152 628 152 628 125 618.5 c 128,-1,27
 98 609 98 609 73 596 c 1,28,-1
 42 661 l 1,29,30
 74 679 74 679 111 690.5 c 128,-1,31
 148 702 148 702 189 702 c 0,0,1
173 -12 m 256,32,33
 148 -12 148 -12 132.5 4.5 c 128,-1,34
 117 21 117 21 117 53 c 0,35,36
 117 87 117 87 132.5 102.5 c 128,-1,37
 148 118 148 118 173 118 c 0,38,39
 199 118 199 118 214.5 103 c 128,-1,40
 230 88 230 88 230 53 c 0,41,42
 230 19 230 19 214 3.5 c 128,-1,43
 198 -12 198 -12 173 -12 c 256,32,33
EndSplineSet
EndChar

StartChar: bracketleft.knda
Encoding: 91 91 32
Width: 370
Flags: W
LayerCount: 2
Fore
SplineSet
292 -369 m 1,0,-1
 79 -369 l 1,1,-1
 79 793 l 1,2,-1
 292 793 l 1,3,-1
 292 724 l 1,4,-1
 160 724 l 1,5,-1
 160 -300 l 1,6,-1
 292 -300 l 1,7,-1
 292 -369 l 1,0,-1
EndSplineSet
EndChar

StartChar: backslash.knda
Encoding: 92 92 33
Width: 471
Flags: W
LayerCount: 2
Fore
SplineSet
149 793 m 1,0,-1
 400 -368 l 1,1,-1
 322 -368 l 1,2,-1
 71 793 l 1,3,-1
 149 793 l 1,0,-1
EndSplineSet
EndChar

StartChar: bracketright.knda
Encoding: 93 93 34
Width: 370
Flags: W
LayerCount: 2
Fore
SplineSet
78 -300 m 1,0,-1
 210 -300 l 1,1,-1
 210 724 l 1,2,-1
 78 724 l 1,3,-1
 78 793 l 1,4,-1
 291 793 l 1,5,-1
 291 -369 l 1,6,-1
 78 -369 l 1,7,-1
 78 -300 l 1,0,-1
EndSplineSet
EndChar

StartChar: asciicircum.knda
Encoding: 94 94 35
Width: 472
Flags: W
LayerCount: 2
Fore
SplineSet
22 320 m 1,0,-1
 208 710 l 1,1,-1
 257 710 l 1,2,-1
 449 320 l 1,3,-1
 371 320 l 1,4,-1
 232 613 l 1,5,-1
 99 320 l 1,6,-1
 22 320 l 1,0,-1
EndSplineSet
EndChar

StartChar: underscore.knda
Encoding: 95 95 36
Width: 383
Flags: W
LayerCount: 2
Fore
SplineSet
-2 -154 m 1,0,-1
 -2 -90 l 1,1,-1
 385 -90 l 1,2,-1
 385 -154 l 1,3,-1
 -2 -154 l 1,0,-1
EndSplineSet
EndChar

StartChar: braceleft.knda
Encoding: 123 123 37
Width: 370
Flags: W
LayerCount: 2
Fore
SplineSet
332 -368 m 1,0,1
 277 -367 277 -367 237 -350 c 128,-1,2
 197 -333 197 -333 175 -297.5 c 128,-1,3
 153 -262 153 -262 153 -209 c 2,4,-1
 153 85 l 2,5,6
 153 136 153 136 122 157.5 c 128,-1,7
 91 179 91 179 31 179 c 1,8,-1
 31 246 l 1,9,10
 91 247 91 247 122 268 c 128,-1,11
 153 289 153 289 153 339 c 2,12,-1
 153 636 l 2,13,14
 153 689 153 689 175 724 c 128,-1,15
 197 759 197 759 237.5 776 c 128,-1,16
 278 793 278 793 332 793 c 1,17,-1
 332 726 l 1,18,19
 282 725 282 725 258 703 c 128,-1,20
 234 681 234 681 234 632 c 2,21,-1
 234 338 l 2,22,23
 234 287 234 287 209 256.5 c 128,-1,24
 184 226 184 226 130 216 c 1,25,-1
 130 210 l 1,26,27
 184 200 184 200 209 169.5 c 128,-1,28
 234 139 234 139 234 88 c 2,29,-1
 234 -208 l 2,30,31
 234 -240 234 -240 244.5 -260.5 c 128,-1,32
 255 -281 255 -281 277 -290.5 c 128,-1,33
 299 -300 299 -300 332 -301 c 1,34,-1
 332 -368 l 1,0,1
EndSplineSet
EndChar

StartChar: bar.knda
Encoding: 124 124 38
Width: 551
Flags: W
LayerCount: 2
Fore
SplineSet
238 793 m 1,0,-1
 313 793 l 1,1,-1
 313 -369 l 1,2,-1
 238 -369 l 1,3,-1
 238 793 l 1,0,-1
EndSplineSet
EndChar

StartChar: braceright.knda
Encoding: 125 125 39
Width: 369
Flags: W
LayerCount: 2
Fore
SplineSet
38 793 m 1,0,1
 93 793 93 793 133 775.5 c 128,-1,2
 173 758 173 758 195 723.5 c 128,-1,3
 217 689 217 689 217 634 c 2,4,-1
 217 341 l 2,5,6
 217 289 217 289 247.5 267.5 c 128,-1,7
 278 246 278 246 339 246 c 1,8,-1
 339 179 l 1,9,10
 278 178 278 178 247.5 157 c 128,-1,11
 217 136 217 136 217 86 c 2,12,-1
 217 -211 l 2,13,14
 217 -264 217 -264 194.5 -299 c 128,-1,15
 172 -334 172 -334 132 -351 c 128,-1,16
 92 -368 92 -368 38 -368 c 1,17,-1
 38 -301 l 1,18,19
 88 -299 88 -299 111.5 -277.5 c 128,-1,20
 135 -256 135 -256 135 -207 c 2,21,-1
 135 87 l 2,22,23
 135 138 135 138 161 168.5 c 128,-1,24
 187 199 187 199 239 209 c 1,25,-1
 239 215 l 1,26,27
 186 225 186 225 160.5 255.5 c 128,-1,28
 135 286 135 286 135 337 c 2,29,-1
 135 633 l 2,30,31
 135 666 135 666 124.5 686 c 128,-1,32
 114 706 114 706 92.5 716 c 128,-1,33
 71 726 71 726 38 726 c 1,34,-1
 38 793 l 1,0,1
EndSplineSet
EndChar

StartChar: asciitilde.knda
Encoding: 126 126 40
Width: 472
Flags: W
LayerCount: 2
Fore
SplineSet
224 310 m 0,0,1
 198 324 198 324 176 330.5 c 128,-1,2
 154 337 154 337 135 337 c 0,3,4
 111 337 111 337 85 321 c 128,-1,5
 59 305 59 305 35 278 c 1,6,-1
 35 355 l 1,7,8
 56 380 56 380 82 393.5 c 128,-1,9
 108 407 108 407 139 407 c 0,10,11
 167 407 167 407 191.5 399.5 c 128,-1,12
 216 392 216 392 248 376 c 0,13,14
 277 362 277 362 297.5 355.5 c 128,-1,15
 318 349 318 349 338 349 c 0,16,17
 363 349 363 349 389.5 365.5 c 128,-1,18
 416 382 416 382 438 407 c 1,19,-1
 438 330 l 1,20,21
 417 306 417 306 391 293 c 128,-1,22
 365 280 365 280 334 280 c 0,23,24
 304 280 304 280 280.5 287 c 128,-1,25
 257 294 257 294 224 310 c 0,0,1
EndSplineSet
EndChar

StartChar: uni00AD.knda
Encoding: 173 173 42
Width: 660
Flags: W
AnchorPoint: "Anchor-0" 342 -24 basechar 0
LayerCount: 2
Fore
SplineSet
189 -12 m 0,0,1
 143 -12 143 -12 106.5 9.5 c 128,-1,2
 70 31 70 31 50 71.5 c 128,-1,3
 30 112 30 112 30 168 c 0,4,5
 30 212 30 212 45.5 247.5 c 128,-1,6
 61 283 61 283 90.5 303 c 128,-1,7
 120 323 120 323 161 323 c 0,8,9
 207 323 207 323 233.5 298 c 128,-1,10
 260 273 260 273 260 230 c 0,11,12
 260 214 260 214 256.5 198.5 c 128,-1,13
 253 183 253 183 246 171 c 1,14,-1
 183 178 l 1,15,16
 186 186 186 186 187.5 197 c 128,-1,17
 189 208 189 208 189 217 c 0,18,19
 189 235 189 235 180 245 c 128,-1,20
 171 255 171 255 155 255 c 0,21,22
 131 255 131 255 116.5 232.5 c 128,-1,23
 102 210 102 210 102 169 c 0,24,25
 102 121 102 121 126.5 92.5 c 128,-1,26
 151 64 151 64 200 64 c 0,27,28
 255 64 255 64 279 97 c 128,-1,29
 303 130 303 130 307 194 c 1,30,-1
 377 194 l 1,31,32
 381 124 381 124 406.5 94 c 128,-1,33
 432 64 432 64 466 64 c 0,34,35
 511 64 511 64 527 99 c 128,-1,36
 543 134 543 134 543 186 c 0,37,38
 543 243 543 243 527 291.5 c 128,-1,39
 511 340 511 340 484 378 c 128,-1,40
 457 416 457 416 423.5 441 c 128,-1,41
 390 466 390 466 355 477 c 1,42,-1
 465 491 l 1,43,44
 508 465 508 465 543.5 421.5 c 128,-1,45
 579 378 579 378 600 320.5 c 128,-1,46
 621 263 621 263 621 194 c 0,47,48
 621 127 621 127 603 81 c 128,-1,49
 585 35 585 35 551.5 11.5 c 128,-1,50
 518 -12 518 -12 473 -12 c 0,51,52
 437 -12 437 -12 410.5 0.5 c 128,-1,53
 384 13 384 13 364.5 38.5 c 128,-1,54
 345 64 345 64 327 105 c 1,55,-1
 358 109 l 1,56,57
 336 61 336 61 311.5 35 c 128,-1,58
 287 9 287 9 257.5 -1.5 c 128,-1,59
 228 -12 228 -12 189 -12 c 0,0,1
31 476 m 1,60,-1
 31 551 l 1,61,-1
 432 551 l 2,62,63
 478 551 478 551 498 556.5 c 128,-1,64
 518 562 518 562 529 572 c 0,65,66
 538 580 538 580 542 592.5 c 128,-1,67
 546 605 546 605 546 619 c 0,68,69
 546 652 546 652 530 684.5 c 128,-1,70
 514 717 514 717 484 749 c 1,71,-1
 546 790 l 1,72,73
 587 740 587 740 604 700 c 128,-1,74
 621 660 621 660 621 613 c 0,75,76
 621 587 621 587 612 560.5 c 128,-1,77
 603 534 603 534 583 516 c 0,78,79
 561 497 561 497 531 486.5 c 128,-1,80
 501 476 501 476 444 476 c 2,81,-1
 31 476 l 1,60,-1
EndSplineSet
EndChar

StartChar: divide.knda
Encoding: 247 247 44
Width: 472
Flags: W
LayerCount: 2
Fore
SplineSet
382 538 m 1,0,-1
 430 491 l 1,1,-1
 283 343 l 1,2,-1
 428 197 l 1,3,-1
 381 149 l 1,4,-1
 234 295 l 1,5,-1
 89 149 l 1,6,-1
 41 197 l 1,7,-1
 186 343 l 1,8,-1
 41 488 l 1,9,-1
 89 537 l 1,10,-1
 235 391 l 1,11,-1
 382 538 l 1,0,-1
EndSplineSet
EndChar

StartChar: guillemotleft
Encoding: 171 171 45
Width: 542
Flags: W
AnchorPoint: "Anchor-0" 271 -24 basechar 0
LayerCount: 2
Fore
SplineSet
271 -12 m 0,0,1
 203 -12 203 -12 150.5 18.5 c 128,-1,2
 98 49 98 49 68.5 109.5 c 128,-1,3
 39 170 39 170 39 259 c 0,4,5
 39 312 39 312 52 356 c 128,-1,6
 65 400 65 400 88 433.5 c 128,-1,7
 111 467 111 467 143 488 c 1,8,-1
 157 476 l 1,9,-1
 39 476 l 1,10,-1
 39 551 l 1,11,-1
 313 551 l 2,12,13
 360 551 360 551 380 556.5 c 128,-1,14
 400 562 400 562 410 572 c 0,15,16
 421 582 421 582 424 593.5 c 128,-1,17
 427 605 427 605 427 619 c 0,18,19
 427 652 427 652 411 684.5 c 128,-1,20
 395 717 395 717 366 749 c 1,21,-1
 428 790 l 1,22,23
 469 740 469 740 486 700 c 128,-1,24
 503 660 503 660 503 613 c 0,25,26
 503 587 503 587 494.5 562 c 128,-1,27
 486 537 486 537 465 517 c 0,28,29
 452 504 452 504 432.5 494.5 c 128,-1,30
 413 485 413 485 387 480 c 1,31,-1
 404 493 l 1,32,33
 436 468 436 468 458 435 c 128,-1,34
 480 402 480 402 491.5 359 c 128,-1,35
 503 316 503 316 503 259 c 0,36,37
 503 174 503 174 475 113.5 c 128,-1,38
 447 53 447 53 395.5 20.5 c 128,-1,39
 344 -12 344 -12 271 -12 c 0,0,1
271 67 m 0,40,41
 324 67 324 67 358 92 c 128,-1,42
 392 117 392 117 408.5 162 c 128,-1,43
 425 207 425 207 425 264 c 0,44,45
 425 336 425 336 405 383.5 c 128,-1,46
 385 431 385 431 350.5 454.5 c 128,-1,47
 316 478 316 478 272 478 c 0,48,49
 224 478 224 478 189 452.5 c 128,-1,50
 154 427 154 427 135.5 379.5 c 128,-1,51
 117 332 117 332 117 264 c 0,52,53
 117 165 117 165 159 116 c 128,-1,54
 201 67 201 67 271 67 c 0,40,41
EndSplineSet
EndChar

StartChar: A
Encoding: 65 65 47
Width: 721
Flags: W
AnchorPoint: "Anchor-0" 360 -24 basechar 0
LayerCount: 2
Fore
SplineSet
352 67 m 0,0,1
 438 67 438 67 495 95.5 c 128,-1,2
 552 124 552 124 580.5 183 c 128,-1,3
 609 242 609 242 609 333 c 0,4,5
 609 375 609 375 600 411 c 128,-1,6
 591 447 591 447 573.5 469 c 128,-1,7
 556 491 556 491 528 491 c 0,8,9
 508 491 508 491 492.5 475 c 128,-1,10
 477 459 477 459 477 426 c 0,11,12
 477 397 477 397 490 374.5 c 128,-1,13
 503 352 503 352 523 336.5 c 128,-1,14
 543 321 543 321 564 311 c 1,15,-1
 564 242 l 1,16,-1
 316 242 l 1,17,-1
 316 316 l 1,18,-1
 460 316 l 1,19,20
 444 331 444 331 431 349 c 128,-1,21
 418 367 418 367 410.5 389.5 c 128,-1,22
 403 412 403 412 403 439 c 0,23,24
 403 472 403 472 416 500 c 128,-1,25
 429 528 429 528 456 545.5 c 128,-1,26
 483 563 483 563 524 563 c 0,27,28
 576 563 576 563 612.5 534 c 128,-1,29
 649 505 649 505 668 453.5 c 128,-1,30
 687 402 687 402 687 334 c 0,31,32
 687 214 687 214 647 137 c 128,-1,33
 607 60 607 60 532 24 c 128,-1,34
 457 -12 457 -12 354 -12 c 0,35,36
 248 -12 248 -12 176.5 29 c 128,-1,37
 105 70 105 70 69.5 143.5 c 128,-1,38
 34 217 34 217 34 315 c 0,39,40
 34 393 34 393 56 448 c 128,-1,41
 78 503 78 503 117.5 533 c 128,-1,42
 157 563 157 563 208 563 c 0,43,44
 243 563 243 563 270.5 547.5 c 128,-1,45
 298 532 298 532 313.5 502 c 128,-1,46
 329 472 329 472 329 429 c 0,47,48
 329 383 329 383 312 349.5 c 128,-1,49
 295 316 295 316 262.5 298 c 128,-1,50
 230 280 230 280 183 280 c 0,51,52
 156 280 156 280 133 288.5 c 128,-1,53
 110 297 110 297 91.5 310.5 c 128,-1,54
 73 324 73 324 59 337 c 1,55,-1
 81 403 l 1,56,57
 90 391 90 391 103.5 378 c 128,-1,58
 117 365 117 365 135.5 356.5 c 128,-1,59
 154 348 154 348 178 348 c 0,60,61
 216 348 216 348 235 368.5 c 128,-1,62
 254 389 254 389 254 427 c 0,63,64
 254 462 254 462 240 478.5 c 128,-1,65
 226 495 226 495 203 495 c 0,66,67
 161 495 161 495 135.5 448 c 128,-1,68
 110 401 110 401 110 323 c 2,69,-1
 110 309 l 2,70,71
 110 261 110 261 123.5 217.5 c 128,-1,72
 137 174 137 174 165.5 140 c 128,-1,73
 194 106 194 106 240 86.5 c 128,-1,74
 286 67 286 67 352 67 c 0,0,1
EndSplineSet
EndChar

StartChar: Aacute
Encoding: 193 193 48
Width: 448
Flags: W
LayerCount: 2
Fore
SplineSet
399 0 m 1,0,-1
 80 0 l 1,1,-1
 80 714 l 1,2,-1
 399 714 l 1,3,-1
 399 638 l 1,4,-1
 166 638 l 1,5,-1
 166 411 l 1,6,-1
 385 411 l 1,7,-1
 385 335 l 1,8,-1
 166 335 l 1,9,-1
 166 77 l 1,10,-1
 399 77 l 1,11,-1
 399 0 l 1,0,-1
EndSplineSet
EndChar

StartChar: Acircumflex
Encoding: 194 194 49
Width: 422
Flags: W
LayerCount: 2
Fore
SplineSet
166 0 m 1,0,-1
 80 0 l 1,1,-1
 80 714 l 1,2,-1
 399 714 l 1,3,-1
 399 638 l 1,4,-1
 166 638 l 1,5,-1
 166 381 l 1,6,-1
 385 381 l 1,7,-1
 385 304 l 1,8,-1
 166 304 l 1,9,-1
 166 0 l 1,0,-1
EndSplineSet
EndChar

StartChar: Adieresis
Encoding: 196 196 50
Width: 595
Flags: W
LayerCount: 2
Fore
SplineSet
516 0 m 1,0,-1
 430 0 l 1,1,-1
 430 334 l 1,2,-1
 166 334 l 1,3,-1
 166 0 l 1,4,-1
 80 0 l 1,5,-1
 80 714 l 1,6,-1
 166 714 l 1,7,-1
 166 411 l 1,8,-1
 430 411 l 1,9,-1
 430 714 l 1,10,-1
 516 714 l 1,11,-1
 516 0 l 1,0,-1
EndSplineSet
EndChar

StartChar: Agrave
Encoding: 192 192 51
Width: 580
Flags: W
LayerCount: 2
Fore
SplineSet
528 365 m 0,0,1
 528 245 528 245 494.5 164 c 128,-1,2
 461 83 461 83 397 41.5 c 128,-1,3
 333 0 333 0 241 0 c 2,4,-1
 80 0 l 1,5,-1
 80 714 l 1,6,-1
 251 714 l 2,7,8
 340 714 340 714 401.5 674.5 c 128,-1,9
 463 635 463 635 495.5 557.5 c 128,-1,10
 528 480 528 480 528 365 c 0,0,1
437 362 m 0,11,12
 437 455 437 455 415 516 c 128,-1,13
 393 577 393 577 350.5 607.5 c 128,-1,14
 308 638 308 638 245 638 c 2,15,-1
 166 638 l 1,16,-1
 166 76 l 1,17,-1
 235 76 l 2,18,19
 339 76 339 76 388 148 c 128,-1,20
 437 220 437 220 437 362 c 0,11,12
EndSplineSet
EndChar

StartChar: Aring
Encoding: 197 197 52
Width: 300
Flags: W
LayerCount: 2
Fore
SplineSet
263 0 m 1,0,-1
 36 0 l 1,1,-1
 36 49 l 1,2,-1
 106 67 l 1,3,-1
 106 647 l 1,4,-1
 36 665 l 1,5,-1
 36 714 l 1,6,-1
 263 714 l 1,7,-1
 263 665 l 1,8,-1
 192 647 l 1,9,-1
 192 67 l 1,10,-1
 263 49 l 1,11,-1
 263 0 l 1,0,-1
EndSplineSet
EndChar

StartChar: Atilde
Encoding: 195 195 53
Width: 600
Flags: W
LayerCount: 2
Fore
SplineSet
338 377 m 1,0,-1
 540 377 l 1,1,-1
 540 26 l 1,2,3
 492 8 492 8 441 -1 c 128,-1,4
 390 -10 390 -10 334 -10 c 0,5,6
 239 -10 239 -10 177 37.5 c 128,-1,7
 115 85 115 85 84 168 c 128,-1,8
 53 251 53 251 53 358 c 0,9,10
 53 467 53 467 87 549 c 128,-1,11
 121 631 121 631 187.5 677.5 c 128,-1,12
 254 724 254 724 353 724 c 0,13,14
 403 724 403 724 447.5 712.5 c 128,-1,15
 492 701 492 701 531 679 c 1,16,-1
 500 606 l 1,17,18
 466 626 466 626 429 637 c 128,-1,19
 392 648 392 648 353 648 c 0,20,21
 286 648 286 648 239 614 c 128,-1,22
 192 580 192 580 167.5 515 c 128,-1,23
 143 450 143 450 143 357 c 0,24,25
 143 274 143 274 163.5 208 c 128,-1,26
 184 142 184 142 228.5 104.5 c 128,-1,27
 273 67 273 67 345 67 c 0,28,29
 379 67 379 67 406 71 c 128,-1,30
 433 75 433 75 455 82 c 1,31,-1
 455 301 l 1,32,-1
 338 301 l 1,33,-1
 338 377 l 1,0,-1
EndSplineSet
EndChar

StartChar: AE
Encoding: 198 198 54
Width: 239
Flags: W
LayerCount: 2
Fore
SplineSet
10 -192 m 0,0,1
 -10 -192 -10 -192 -27 -189.5 c 128,-1,2
 -44 -187 -44 -187 -58 -181 c 1,3,-1
 -58 -105 l 1,4,5
 -44 -109 -44 -109 -29 -112 c 128,-1,6
 -14 -115 -14 -115 3 -115 c 0,7,8
 26 -115 26 -115 42.5 -103.5 c 128,-1,9
 59 -92 59 -92 68 -66 c 128,-1,10
 77 -40 77 -40 77 5 c 2,11,-1
 77 714 l 1,12,-1
 162 714 l 1,13,-1
 162 3 l 2,14,15
 162 -67 162 -67 144 -110 c 128,-1,16
 126 -153 126 -153 92 -172.5 c 128,-1,17
 58 -192 58 -192 10 -192 c 0,0,1
EndSplineSet
EndChar

StartChar: B
Encoding: 66 66 55
Width: 529
Flags: W
LayerCount: 2
Fore
SplineSet
252 714 m 2,0,1
 359 714 359 714 413.5 672 c 128,-1,2
 468 630 468 630 468 541 c 0,3,4
 468 496 468 496 455 462.5 c 128,-1,5
 442 429 442 429 417 407.5 c 128,-1,6
 392 386 392 386 355 378 c 1,7,-1
 355 374 l 1,8,9
 397 366 397 366 426 345 c 128,-1,10
 455 324 455 324 470 289.5 c 128,-1,11
 485 255 485 255 485 204 c 0,12,13
 485 142 485 142 461.5 96 c 128,-1,14
 438 50 438 50 393 25 c 128,-1,15
 348 0 348 0 284 0 c 2,16,-1
 80 0 l 1,17,-1
 80 714 l 1,18,-1
 252 714 l 2,0,1
257 409 m 2,19,20
 324 409 324 409 352 439.5 c 128,-1,21
 380 470 380 470 380 532 c 0,22,23
 380 587 380 587 348.5 614 c 128,-1,24
 317 641 317 641 252 641 c 2,25,-1
 166 641 l 1,26,-1
 166 409 l 1,27,-1
 257 409 l 2,19,20
166 336 m 1,28,-1
 166 74 l 1,29,-1
 272 74 l 2,30,31
 337 74 337 74 366.5 109 c 128,-1,32
 396 144 396 144 396 209 c 0,33,34
 396 250 396 250 381.5 278.5 c 128,-1,35
 367 307 367 307 337.5 321.5 c 128,-1,36
 308 336 308 336 263 336 c 2,37,-1
 166 336 l 1,28,-1
EndSplineSet
EndChar

StartChar: C
Encoding: 67 67 56
Width: 502
Flags: W
LayerCount: 2
Fore
SplineSet
325 648 m 0,0,1
 279 648 279 648 245 625.5 c 128,-1,2
 211 603 211 603 188 563 c 128,-1,3
 165 523 165 523 154 470.5 c 128,-1,4
 143 418 143 418 143 357 c 0,5,6
 143 268 143 268 164.5 202.5 c 128,-1,7
 186 137 186 137 228 102 c 128,-1,8
 270 67 270 67 328 67 c 0,9,10
 364 67 364 67 395 74.5 c 128,-1,11
 426 82 426 82 455 94 c 1,12,-1
 455 18 l 1,13,14
 426 4 426 4 393 -3 c 128,-1,15
 360 -10 360 -10 318 -10 c 0,16,17
 234 -10 234 -10 175 34.5 c 128,-1,18
 116 79 116 79 84.5 161.5 c 128,-1,19
 53 244 53 244 53 358 c 0,20,21
 53 435 53 435 70 502 c 128,-1,22
 87 569 87 569 121 619 c 128,-1,23
 155 669 155 669 206 697 c 128,-1,24
 257 725 257 725 323 725 c 0,25,26
 365 725 365 725 403.5 715.5 c 128,-1,27
 442 706 442 706 476 687 c 1,28,-1
 444 614 l 1,29,30
 419 629 419 629 389 638.5 c 128,-1,31
 359 648 359 648 325 648 c 0,0,1
EndSplineSet
EndChar

StartChar: Ccedilla
Encoding: 199 199 57
Width: 499
Flags: W
LayerCount: 2
Fore
SplineSet
501 0 m 1,0,-1
 404 0 l 1,1,-1
 224 333 l 1,2,-1
 166 272 l 1,3,-1
 166 0 l 1,4,-1
 80 0 l 1,5,-1
 80 714 l 1,6,-1
 166 714 l 1,7,-1
 166 358 l 1,8,9
 179 378 179 378 198 406.5 c 128,-1,10
 217 435 217 435 241 471 c 2,11,-1
 397 714 l 1,12,-1
 492 714 l 1,13,-1
 283 399 l 1,14,-1
 501 0 l 1,0,-1
EndSplineSet
EndChar

StartChar: D
Encoding: 68 68 58
Width: 635
Flags: W
AnchorPoint: "Anchor-0" 317 -24 basechar 0
LayerCount: 2
Fore
SplineSet
184 -12 m 0,0,1
 120 -12 120 -12 79.5 40.5 c 128,-1,2
 39 93 39 93 39 211 c 0,3,4
 39 278 39 278 54.5 332 c 128,-1,5
 70 386 70 386 99.5 426 c 128,-1,6
 129 466 129 466 168 487 c 1,7,-1
 174 476 l 1,8,-1
 39 476 l 1,9,-1
 39 551 l 1,10,-1
 406 551 l 2,11,12
 452 551 452 551 472.5 556.5 c 128,-1,13
 493 562 493 562 503 572 c 0,14,15
 513 580 513 580 516.5 592.5 c 128,-1,16
 520 605 520 605 520 619 c 0,17,18
 520 651 520 651 504 684 c 128,-1,19
 488 717 488 717 459 749 c 1,20,-1
 521 790 l 1,21,22
 562 740 562 740 579 700 c 128,-1,23
 596 660 596 660 596 613 c 0,24,25
 596 587 596 587 587.5 562 c 128,-1,26
 579 537 579 537 557 517 c 0,27,28
 548 508 548 508 535.5 500 c 128,-1,29
 523 492 523 492 507 487 c 128,-1,30
 491 482 491 482 472 479 c 1,31,-1
 477 487 l 1,32,33
 511 464 511 464 537.5 425 c 128,-1,34
 564 386 564 386 580 331.5 c 128,-1,35
 596 277 596 277 596 209 c 0,36,37
 596 98 596 98 556.5 43 c 128,-1,38
 517 -12 517 -12 447 -12 c 0,39,40
 413 -12 413 -12 387 0 c 128,-1,41
 361 12 361 12 340.5 37.5 c 128,-1,42
 320 63 320 63 302 105 c 1,43,-1
 333 110 l 1,44,45
 315 59 315 59 291.5 33 c 128,-1,46
 268 7 268 7 241.5 -2.5 c 128,-1,47
 215 -12 215 -12 184 -12 c 0,0,1
193 64 m 0,48,49
 231 64 231 64 254 97 c 128,-1,50
 277 130 277 130 282 194 c 1,51,-1
 352 194 l 1,52,53
 356 124 356 124 382 94 c 128,-1,54
 408 64 408 64 440 64 c 0,55,56
 476 64 476 64 497 96.5 c 128,-1,57
 518 129 518 129 518 211 c 0,58,59
 518 263 518 263 506 311 c 128,-1,60
 494 359 494 359 469.5 396.5 c 128,-1,61
 445 434 445 434 408.5 456 c 128,-1,62
 372 478 372 478 322 478 c 2,63,-1
 314 478 l 2,64,65
 266 478 266 478 229 457.5 c 128,-1,66
 192 437 192 437 167 400.5 c 128,-1,67
 142 364 142 364 129.5 316.5 c 128,-1,68
 117 269 117 269 117 214 c 0,69,70
 117 131 117 131 137 97.5 c 128,-1,71
 157 64 157 64 193 64 c 0,48,49
EndSplineSet
EndChar

StartChar: Eth
Encoding: 208 208 59
Width: 433
Flags: W
LayerCount: 2
Fore
SplineSet
259 0 m 1,0,-1
 173 0 l 1,1,-1
 173 637 l 1,2,-1
 10 637 l 1,3,-1
 10 714 l 1,4,-1
 422 714 l 1,5,-1
 422 637 l 1,6,-1
 259 637 l 1,7,-1
 259 0 l 1,0,-1
EndSplineSet
EndChar

StartChar: E
Encoding: 69 69 60
Width: 448
Flags: W
LayerCount: 2
Fore
SplineSet
399 0 m 1,0,-1
 80 0 l 1,1,-1
 80 714 l 1,2,-1
 399 714 l 1,3,-1
 399 638 l 1,4,-1
 166 638 l 1,5,-1
 166 411 l 1,6,-1
 385 411 l 1,7,-1
 385 335 l 1,8,-1
 166 335 l 1,9,-1
 166 77 l 1,10,-1
 399 77 l 1,11,-1
 399 0 l 1,0,-1
EndSplineSet
EndChar

StartChar: Eacute
Encoding: 201 201 61
Width: 775
Flags: W
LayerCount: 2
Fore
SplineSet
348 0 m 1,0,-1
 159 607 l 1,1,-1
 155 607 l 1,2,3
 157 578 157 578 158.5 549.5 c 128,-1,4
 160 521 160 521 160.5 496 c 128,-1,5
 161 471 161 471 161 451 c 2,6,-1
 161 0 l 1,7,-1
 80 0 l 1,8,-1
 80 714 l 1,9,-1
 203 714 l 1,10,-1
 386 130 l 1,11,-1
 389 130 l 1,12,-1
 572 714 l 1,13,-1
 696 714 l 1,14,-1
 696 0 l 1,15,-1
 612 0 l 1,16,-1
 612 451 l 2,17,18
 612 472 612 472 612.5 496.5 c 128,-1,19
 613 521 613 521 614.5 549 c 128,-1,20
 616 577 616 577 617 607 c 1,21,-1
 613 607 l 1,22,-1
 423 0 l 1,23,-1
 348 0 l 1,0,-1
EndSplineSet
EndChar

StartChar: Ecircumflex
Encoding: 202 202 62
Width: 626
Flags: W
LayerCount: 2
Fore
SplineSet
547 0 m 1,0,-1
 444 0 l 1,1,-1
 158 585 l 1,2,-1
 154 585 l 1,3,4
 156 559 156 559 157.5 532 c 128,-1,5
 159 505 159 505 160 478.5 c 128,-1,6
 161 452 161 452 161 426 c 2,7,-1
 161 0 l 1,8,-1
 80 0 l 1,9,-1
 80 714 l 1,10,-1
 183 714 l 1,11,-1
 468 136 l 1,12,-1
 471 136 l 1,13,14
 470 161 470 161 468.5 188.5 c 128,-1,15
 467 216 467 216 466.5 243.5 c 128,-1,16
 466 271 466 271 466 293 c 2,17,-1
 466 714 l 1,18,-1
 547 714 l 1,19,-1
 547 0 l 1,0,-1
EndSplineSet
EndChar

StartChar: Edieresis
Encoding: 203 203 63
Width: 619
Flags: W
LayerCount: 2
Fore
SplineSet
567 358 m 0,0,1
 567 279 567 279 552 212 c 128,-1,2
 537 145 537 145 505.5 95 c 128,-1,3
 474 45 474 45 425.5 17.5 c 128,-1,4
 377 -10 377 -10 310 -10 c 0,5,6
 242 -10 242 -10 193 18.5 c 128,-1,7
 144 47 144 47 113 96.5 c 128,-1,8
 82 146 82 146 67.5 213.5 c 128,-1,9
 53 281 53 281 53 359 c 0,10,11
 53 477 53 477 81.5 558.5 c 128,-1,12
 110 640 110 640 167.5 682 c 128,-1,13
 225 724 225 724 311 724 c 0,14,15
 400 724 400 724 456.5 676 c 128,-1,16
 513 628 513 628 540 545.5 c 128,-1,17
 567 463 567 463 567 358 c 0,0,1
143 358 m 256,18,19
 143 264 143 264 161.5 199 c 128,-1,20
 180 134 180 134 217 100.5 c 128,-1,21
 254 67 254 67 310 67 c 256,22,23
 366 67 366 67 402.5 100 c 128,-1,24
 439 133 439 133 457.5 198 c 128,-1,25
 476 263 476 263 476 358 c 0,26,27
 476 500 476 500 435.5 573.5 c 128,-1,28
 395 647 395 647 311 647 c 0,29,30
 254 647 254 647 216.5 614 c 128,-1,31
 179 581 179 581 161 516.5 c 128,-1,32
 143 452 143 452 143 358 c 256,18,19
EndSplineSet
EndChar

StartChar: Egrave
Encoding: 200 200 64
Width: 417
Flags: W
LayerCount: 2
Fore
SplineSet
80 0 m 1,0,-1
 80 714 l 1,1,-1
 166 714 l 1,2,-1
 166 77 l 1,3,-1
 397 77 l 1,4,-1
 397 0 l 1,5,-1
 80 0 l 1,0,-1
EndSplineSet
EndChar

StartChar: F
Encoding: 70 70 65
Width: 422
Flags: W
LayerCount: 2
Fore
SplineSet
166 0 m 1,0,-1
 80 0 l 1,1,-1
 80 714 l 1,2,-1
 399 714 l 1,3,-1
 399 638 l 1,4,-1
 166 638 l 1,5,-1
 166 381 l 1,6,-1
 385 381 l 1,7,-1
 385 304 l 1,8,-1
 166 304 l 1,9,-1
 166 0 l 1,0,-1
EndSplineSet
EndChar

StartChar: G
Encoding: 71 71 66
Width: 600
Flags: W
LayerCount: 2
Fore
SplineSet
338 377 m 1,0,-1
 540 377 l 1,1,-1
 540 26 l 1,2,3
 492 8 492 8 441 -1 c 128,-1,4
 390 -10 390 -10 334 -10 c 0,5,6
 239 -10 239 -10 177 37.5 c 128,-1,7
 115 85 115 85 84 168 c 128,-1,8
 53 251 53 251 53 358 c 0,9,10
 53 467 53 467 87 549 c 128,-1,11
 121 631 121 631 187.5 677.5 c 128,-1,12
 254 724 254 724 353 724 c 0,13,14
 403 724 403 724 447.5 712.5 c 128,-1,15
 492 701 492 701 531 679 c 1,16,-1
 500 606 l 1,17,18
 466 626 466 626 429 637 c 128,-1,19
 392 648 392 648 353 648 c 0,20,21
 286 648 286 648 239 614 c 128,-1,22
 192 580 192 580 167.5 515 c 128,-1,23
 143 450 143 450 143 357 c 0,24,25
 143 274 143 274 163.5 208 c 128,-1,26
 184 142 184 142 228.5 104.5 c 128,-1,27
 273 67 273 67 345 67 c 0,28,29
 379 67 379 67 406 71 c 128,-1,30
 433 75 433 75 455 82 c 1,31,-1
 455 301 l 1,32,-1
 338 301 l 1,33,-1
 338 377 l 1,0,-1
EndSplineSet
EndChar

StartChar: H
Encoding: 72 72 67
Width: 664
Flags: W
AnchorPoint: "Anchor-0" 332 -24 basechar 0
LayerCount: 2
Fore
SplineSet
192 -12 m 0,0,1
 118 -12 118 -12 75 39 c 128,-1,2
 32 90 32 90 32 181 c 0,3,4
 32 267 32 267 74.5 321 c 128,-1,5
 117 375 117 375 195 375 c 0,6,7
 220 375 220 375 239.5 368 c 128,-1,8
 259 361 259 361 275 347.5 c 128,-1,9
 291 334 291 334 302 314 c 1,10,-1
 299 311 l 2,11,12
 300 313 300 313 300.5 322 c 128,-1,13
 301 331 301 331 301 336 c 0,14,15
 301 365 301 365 290 390.5 c 128,-1,16
 279 416 279 416 259.5 435.5 c 128,-1,17
 240 455 240 455 215.5 467 c 128,-1,18
 191 479 191 479 163 482 c 1,19,-1
 294 492 l 1,20,21
 315 480 315 480 333 460 c 128,-1,22
 351 440 351 440 361.5 411 c 128,-1,23
 372 382 372 382 372 344 c 0,24,25
 372 335 372 335 370.5 325 c 128,-1,26
 369 315 369 315 368 309 c 1,27,-1
 365 312 l 1,28,29
 378 331 378 331 394 345.5 c 128,-1,30
 410 360 410 360 430.5 367.5 c 128,-1,31
 451 375 451 375 476 375 c 0,32,33
 552 375 552 375 592 320.5 c 128,-1,34
 632 266 632 266 632 181 c 0,35,36
 632 97 632 97 590 42.5 c 128,-1,37
 548 -12 548 -12 469 -12 c 0,38,39
 429 -12 429 -12 401 1 c 128,-1,40
 373 14 373 14 354.5 38 c 128,-1,41
 336 62 336 62 324 94 c 1,42,-1
 338 93 l 1,43,44
 326 63 326 63 307.5 39.5 c 128,-1,45
 289 16 289 16 261 2 c 128,-1,46
 233 -12 233 -12 192 -12 c 0,0,1
201 60 m 0,47,48
 250 60 250 60 272.5 93 c 128,-1,49
 295 126 295 126 295 181 c 0,50,51
 295 240 295 240 271.5 271.5 c 128,-1,52
 248 303 248 303 205 303 c 0,53,54
 172 303 172 303 151 288 c 128,-1,55
 130 273 130 273 120 246 c 128,-1,56
 110 219 110 219 110 183 c 0,57,58
 110 123 110 123 134.5 91.5 c 128,-1,59
 159 60 159 60 201 60 c 0,47,48
460 60 m 0,60,61
 508 60 508 60 531 92.5 c 128,-1,62
 554 125 554 125 554 181 c 0,63,64
 554 220 554 220 543.5 247.5 c 128,-1,65
 533 275 533 275 512.5 289 c 128,-1,66
 492 303 492 303 463 303 c 0,67,68
 416 303 416 303 392 270 c 128,-1,69
 368 237 368 237 368 183 c 0,70,71
 368 122 368 122 392.5 91 c 128,-1,72
 417 60 417 60 460 60 c 0,60,61
33 476 m 1,73,-1
 33 551 l 1,74,-1
 443 551 l 2,75,76
 489 551 489 551 509 556.5 c 128,-1,77
 529 562 529 562 540 572 c 0,78,79
 549 580 549 580 553 592.5 c 128,-1,80
 557 605 557 605 557 619 c 0,81,82
 557 652 557 652 541 684.5 c 128,-1,83
 525 717 525 717 495 749 c 1,84,-1
 557 790 l 1,85,86
 598 740 598 740 615 700 c 128,-1,87
 632 660 632 660 632 613 c 0,88,89
 632 587 632 587 622.5 560.5 c 128,-1,90
 613 534 613 534 594 516 c 0,91,92
 572 497 572 497 542 486.5 c 128,-1,93
 512 476 512 476 457 476 c 2,94,-1
 33 476 l 1,73,-1
EndSplineSet
EndChar

StartChar: I
Encoding: 73 73 68
Width: 300
Flags: W
LayerCount: 2
Fore
SplineSet
263 0 m 1,0,-1
 36 0 l 1,1,-1
 36 49 l 1,2,-1
 106 67 l 1,3,-1
 106 647 l 1,4,-1
 36 665 l 1,5,-1
 36 714 l 1,6,-1
 263 714 l 1,7,-1
 263 665 l 1,8,-1
 192 647 l 1,9,-1
 192 67 l 1,10,-1
 263 49 l 1,11,-1
 263 0 l 1,0,-1
EndSplineSet
EndChar

StartChar: Iacute
Encoding: 205 205 69
Width: 619
Flags: W
LayerCount: 2
Fore
SplineSet
567 358 m 0,0,1
 567 268 567 268 549 198 c 128,-1,2
 531 128 531 128 497 81 c 128,-1,3
 463 34 463 34 412 11 c 1,4,-1
 540 -170 l 1,5,-1
 431 -170 l 1,6,-1
 328 -8 l 2,7,8
 324 -9 324 -9 318 -9.5 c 128,-1,9
 312 -10 312 -10 307 -10 c 0,10,11
 239 -10 239 -10 191 18.5 c 128,-1,12
 143 47 143 47 112.5 97.5 c 128,-1,13
 82 148 82 148 67.5 215 c 128,-1,14
 53 282 53 282 53 359 c 0,15,16
 53 477 53 477 81.5 558.5 c 128,-1,17
 110 640 110 640 167.5 682 c 128,-1,18
 225 724 225 724 311 724 c 0,19,20
 394 724 394 724 451 682 c 128,-1,21
 508 640 508 640 537.5 558 c 128,-1,22
 567 476 567 476 567 358 c 0,0,1
143 358 m 256,23,24
 143 264 143 264 161.5 199 c 128,-1,25
 180 134 180 134 217 100.5 c 128,-1,26
 254 67 254 67 310 67 c 256,27,28
 366 67 366 67 402.5 100 c 128,-1,29
 439 133 439 133 457.5 198 c 128,-1,30
 476 263 476 263 476 358 c 0,31,32
 476 500 476 500 435.5 573.5 c 128,-1,33
 395 647 395 647 311 647 c 0,34,35
 254 647 254 647 216.5 614 c 128,-1,36
 179 581 179 581 161 516.5 c 128,-1,37
 143 452 143 452 143 358 c 256,23,24
EndSplineSet
EndChar

StartChar: Icircumflex
Encoding: 206 206 70
Width: 509
Flags: W
LayerCount: 2
Fore
SplineSet
227 714 m 2,0,1
 306 714 306 714 356 691.5 c 128,-1,2
 406 669 406 669 430.5 624.5 c 128,-1,3
 455 580 455 580 455 512 c 0,4,5
 455 462 455 462 441 425 c 128,-1,6
 427 388 427 388 400.5 362.5 c 128,-1,7
 374 337 374 337 336 320 c 1,8,-1
 496 0 l 1,9,-1
 399 0 l 1,10,-1
 258 298 l 1,11,-1
 166 298 l 1,12,-1
 166 0 l 1,13,-1
 80 0 l 1,14,-1
 80 714 l 1,15,-1
 227 714 l 2,0,1
227 637 m 2,16,-1
 166 637 l 1,17,-1
 166 370 l 1,18,-1
 234 370 l 2,19,20
 300 370 300 370 333.5 404.5 c 128,-1,21
 367 439 367 439 367 508 c 0,22,23
 367 555 367 555 352 583 c 128,-1,24
 337 611 337 611 306 624 c 128,-1,25
 275 637 275 637 227 637 c 2,16,-1
EndSplineSet
EndChar

StartChar: Idieresis
Encoding: 207 207 71
Width: 454
Flags: W
LayerCount: 2
Fore
SplineSet
413 195 m 0,0,1
 413 133 413 133 387.5 87.5 c 128,-1,2
 362 42 362 42 315 16 c 128,-1,3
 268 -10 268 -10 205 -10 c 0,4,5
 173 -10 173 -10 143.5 -6.5 c 128,-1,6
 114 -3 114 -3 88.5 4.5 c 128,-1,7
 63 12 63 12 42 22 c 1,8,-1
 42 109 l 1,9,10
 76 90 76 90 119.5 79.5 c 128,-1,11
 163 69 163 69 204 69 c 0,12,13
 244 69 244 69 271 84.5 c 128,-1,14
 298 100 298 100 312.5 127 c 128,-1,15
 327 154 327 154 327 187 c 0,16,17
 327 222 327 222 315 246 c 128,-1,18
 303 270 303 270 275 290 c 128,-1,19
 247 310 247 310 199 331 c 0,20,21
 163 348 163 348 135 367 c 128,-1,22
 107 386 107 386 87.5 409.5 c 128,-1,23
 68 433 68 433 58 464.5 c 128,-1,24
 48 496 48 496 48 538 c 0,25,26
 47 594 47 594 72.5 636 c 128,-1,27
 98 678 98 678 142.5 701.5 c 128,-1,28
 187 725 187 725 244 724 c 0,29,30
 291 724 291 724 331.5 713.5 c 128,-1,31
 372 703 372 703 404 688 c 1,32,-1
 376 611 l 1,33,34
 344 627 344 627 311 636 c 128,-1,35
 278 645 278 645 245 645 c 0,36,37
 209 645 209 645 185 631.5 c 128,-1,38
 161 618 161 618 148 594.5 c 128,-1,39
 135 571 135 571 135 540 c 0,40,41
 135 504 135 504 146.5 480 c 128,-1,42
 158 456 158 456 185.5 437.5 c 128,-1,43
 213 419 213 419 259 396 c 0,44,45
 310 373 310 373 344.5 344.5 c 128,-1,46
 379 316 379 316 396 279.5 c 128,-1,47
 413 243 413 243 413 195 c 0,0,1
EndSplineSet
EndChar

StartChar: Igrave
Encoding: 204 204 72
Width: 492
Flags: W
LayerCount: 2
Fore
SplineSet
229 714 m 2,0,1
 345 714 345 714 400 661 c 128,-1,2
 455 608 455 608 455 503 c 0,3,4
 455 452 455 452 441.5 410 c 128,-1,5
 428 368 428 368 399.5 338.5 c 128,-1,6
 371 309 371 309 327.5 293.5 c 128,-1,7
 284 278 284 278 223 278 c 2,8,-1
 166 278 l 1,9,-1
 166 0 l 1,10,-1
 80 0 l 1,11,-1
 80 714 l 1,12,-1
 229 714 l 2,0,1
225 639 m 2,13,-1
 166 639 l 1,14,-1
 166 353 l 1,15,-1
 214 353 l 2,16,17
 267 353 267 353 300.5 368 c 128,-1,18
 334 383 334 383 350 416 c 128,-1,19
 366 449 366 449 366 501 c 0,20,21
 366 574 366 574 332 606.5 c 128,-1,22
 298 639 298 639 225 639 c 2,13,-1
EndSplineSet
EndChar

StartChar: J
Encoding: 74 74 73
Width: 472
Flags: W
LayerCount: 2
Fore
SplineSet
185 -6 m 4,0,1
 144 -6 144 -6 109 5 c 132,-1,2
 74 16 74 16 44 36 c 5,3,-1
 75 103 l 5,4,5
 101 87 101 87 127 78 c 132,-1,6
 153 69 153 69 182 69 c 4,7,8
 225 69 225 69 245 96.5 c 132,-1,9
 265 124 265 124 265 185 c 6,10,-1
 265 328 l 5,11,-1
 118 328 l 5,12,-1
 118 394 l 5,13,-1
 265 394 l 5,14,-1
 265 505 l 6,15,16
 265 539 265 539 272.5 565 c 132,-1,17
 280 591 280 591 294 609.5 c 132,-1,18
 308 628 308 628 328 641 c 5,19,-1
 35 641 l 5,20,-1
 35 718 l 5,21,-1
 428 718 l 5,22,-1
 428 647 l 5,23,24
 403 637 403 637 386 618.5 c 132,-1,25
 369 600 369 600 359.5 572.5 c 132,-1,26
 350 545 350 545 350 506 c 6,27,-1
 350 394 l 5,28,-1
 429 394 l 5,29,-1
 429 328 l 5,30,-1
 350 328 l 5,31,-1
 350 183 l 6,32,33
 350 120 350 120 331 78 c 132,-1,34
 312 36 312 36 275 15 c 132,-1,35
 238 -6 238 -6 185 -6 c 4,0,1
EndSplineSet
EndChar

StartChar: K
Encoding: 75 75 74
Width: 499
Flags: W
LayerCount: 2
Fore
SplineSet
501 0 m 1,0,-1
 404 0 l 1,1,-1
 224 333 l 1,2,-1
 166 272 l 1,3,-1
 166 0 l 1,4,-1
 80 0 l 1,5,-1
 80 714 l 1,6,-1
 166 714 l 1,7,-1
 166 358 l 1,8,9
 179 378 179 378 198 406.5 c 128,-1,10
 217 435 217 435 241 471 c 2,11,-1
 397 714 l 1,12,-1
 492 714 l 1,13,-1
 283 399 l 1,14,-1
 501 0 l 1,0,-1
EndSplineSet
EndChar

StartChar: L
Encoding: 76 76 75
Width: 472
Flags: W
LayerCount: 2
Fore
SplineSet
283 724 m 0,0,1
 324 724 324 724 359 713 c 128,-1,2
 394 702 394 702 424 682 c 1,3,-1
 393 615 l 1,4,5
 367 631 367 631 341 640 c 128,-1,6
 315 649 315 649 286 649 c 0,7,8
 243 649 243 649 223 621.5 c 128,-1,9
 203 594 203 594 203 533 c 2,10,-1
 203 390 l 1,11,-1
 350 390 l 1,12,-1
 350 324 l 1,13,-1
 203 324 l 1,14,-1
 203 213 l 2,15,16
 203 179 203 179 195.5 153 c 128,-1,17
 188 127 188 127 174 108.5 c 128,-1,18
 160 90 160 90 140 77 c 1,19,-1
 433 77 l 1,20,-1
 433 0 l 1,21,-1
 40 0 l 1,22,-1
 40 71 l 1,23,24
 65 81 65 81 82 99.5 c 128,-1,25
 99 118 99 118 108.5 145.5 c 128,-1,26
 118 173 118 173 118 212 c 2,27,-1
 118 324 l 1,28,-1
 39 324 l 1,29,-1
 39 390 l 1,30,-1
 118 390 l 1,31,-1
 118 535 l 2,32,33
 118 598 118 598 137 640 c 128,-1,34
 156 682 156 682 193 703 c 128,-1,35
 230 724 230 724 283 724 c 0,0,1
EndSplineSet
EndChar

StartChar: M
Encoding: 77 77 76
Width: 775
Flags: W
LayerCount: 2
Fore
SplineSet
348 0 m 1,0,-1
 159 607 l 1,1,-1
 155 607 l 1,2,3
 157 578 157 578 158.5 549.5 c 128,-1,4
 160 521 160 521 160.5 496 c 128,-1,5
 161 471 161 471 161 451 c 2,6,-1
 161 0 l 1,7,-1
 80 0 l 1,8,-1
 80 714 l 1,9,-1
 203 714 l 1,10,-1
 386 130 l 1,11,-1
 389 130 l 1,12,-1
 572 714 l 1,13,-1
 696 714 l 1,14,-1
 696 0 l 1,15,-1
 612 0 l 1,16,-1
 612 451 l 2,17,18
 612 472 612 472 612.5 496.5 c 128,-1,19
 613 521 613 521 614.5 549 c 128,-1,20
 616 577 616 577 617 607 c 1,21,-1
 613 607 l 1,22,-1
 423 0 l 1,23,-1
 348 0 l 1,0,-1
EndSplineSet
EndChar

StartChar: N
Encoding: 78 78 77
Width: 626
Flags: W
LayerCount: 2
Fore
SplineSet
547 0 m 1,0,-1
 444 0 l 1,1,-1
 158 585 l 1,2,-1
 154 585 l 1,3,4
 156 559 156 559 157.5 532 c 128,-1,5
 159 505 159 505 160 478.5 c 128,-1,6
 161 452 161 452 161 426 c 2,7,-1
 161 0 l 1,8,-1
 80 0 l 1,9,-1
 80 714 l 1,10,-1
 183 714 l 1,11,-1
 468 136 l 1,12,-1
 471 136 l 1,13,14
 470 161 470 161 468.5 188.5 c 128,-1,15
 467 216 467 216 466.5 243.5 c 128,-1,16
 466 271 466 271 466 293 c 2,17,-1
 466 714 l 1,18,-1
 547 714 l 1,19,-1
 547 0 l 1,0,-1
EndSplineSet
EndChar

StartChar: Ntilde
Encoding: 209 209 78
Width: 585
Flags: W
LayerCount: 2
Fore
SplineSet
510 232 m 2,0,1
 510 153 510 153 486 99.5 c 128,-1,2
 462 46 462 46 413.5 18 c 128,-1,3
 365 -10 365 -10 292 -10 c 0,4,5
 186 -10 186 -10 130 51.5 c 128,-1,6
 74 113 74 113 74 232 c 2,7,-1
 74 714 l 1,8,-1
 160 714 l 1,9,-1
 160 231 l 2,10,11
 160 147 160 147 194 107 c 128,-1,12
 228 67 228 67 293 67 c 0,13,14
 338 67 338 67 367 85 c 128,-1,15
 396 103 396 103 410 139.5 c 128,-1,16
 424 176 424 176 424 232 c 2,17,-1
 424 714 l 1,18,-1
 510 714 l 1,19,-1
 510 232 l 2,0,1
EndSplineSet
EndChar

StartChar: O
Encoding: 79 79 79
Width: 619
Flags: W
LayerCount: 2
Fore
SplineSet
567 358 m 0,0,1
 567 279 567 279 552 212 c 128,-1,2
 537 145 537 145 505.5 95 c 128,-1,3
 474 45 474 45 425.5 17.5 c 128,-1,4
 377 -10 377 -10 310 -10 c 0,5,6
 242 -10 242 -10 193 18.5 c 128,-1,7
 144 47 144 47 113 96.5 c 128,-1,8
 82 146 82 146 67.5 213.5 c 128,-1,9
 53 281 53 281 53 359 c 0,10,11
 53 477 53 477 81.5 558.5 c 128,-1,12
 110 640 110 640 167.5 682 c 128,-1,13
 225 724 225 724 311 724 c 0,14,15
 400 724 400 724 456.5 676 c 128,-1,16
 513 628 513 628 540 545.5 c 128,-1,17
 567 463 567 463 567 358 c 0,0,1
143 358 m 256,18,19
 143 264 143 264 161.5 199 c 128,-1,20
 180 134 180 134 217 100.5 c 128,-1,21
 254 67 254 67 310 67 c 256,22,23
 366 67 366 67 402.5 100 c 128,-1,24
 439 133 439 133 457.5 198 c 128,-1,25
 476 263 476 263 476 358 c 0,26,27
 476 500 476 500 435.5 573.5 c 128,-1,28
 395 647 395 647 311 647 c 0,29,30
 254 647 254 647 216.5 614 c 128,-1,31
 179 581 179 581 161 516.5 c 128,-1,32
 143 452 143 452 143 358 c 256,18,19
EndSplineSet
EndChar

StartChar: Oacute
Encoding: 211 211 80
Width: 782
Flags: W
LayerCount: 2
Fore
SplineSet
776 714 m 1,0,-1
 617 0 l 1,1,-1
 520 0 l 1,2,-1
 414 459 l 2,3,4
 412 471 412 471 408.5 487.5 c 128,-1,5
 405 504 405 504 402 522 c 128,-1,6
 399 540 399 540 396 560 c 128,-1,7
 393 580 393 580 390 599 c 1,8,9
 389 586 389 586 386.5 569.5 c 128,-1,10
 384 553 384 553 381 534 c 128,-1,11
 378 515 378 515 374 496 c 128,-1,12
 370 477 370 477 366 459 c 2,13,-1
 263 0 l 1,14,-1
 167 0 l 1,15,-1
 6 714 l 1,16,-1
 94 714 l 1,17,-1
 188 277 l 2,18,19
 193 251 193 251 197.5 226.5 c 128,-1,20
 202 202 202 202 206 179.5 c 128,-1,21
 210 157 210 157 213 137 c 128,-1,22
 216 117 216 117 217 100 c 1,23,24
 220 122 220 122 223.5 144 c 128,-1,25
 227 166 227 166 231.5 188.5 c 128,-1,26
 236 211 236 211 240 233.5 c 128,-1,27
 244 256 244 256 249 277 c 2,28,-1
 349 714 l 1,29,-1
 432 714 l 1,30,-1
 533 276 l 2,31,32
 537 256 537 256 541.5 234.5 c 128,-1,33
 546 213 546 213 550 191 c 128,-1,34
 554 169 554 169 557.5 146.5 c 128,-1,35
 561 124 561 124 564 100 c 1,36,37
 568 131 568 131 572.5 161 c 128,-1,38
 577 191 577 191 582.5 220.5 c 128,-1,39
 588 250 588 250 594 277 c 2,40,-1
 689 714 l 1,41,-1
 776 714 l 1,0,-1
EndSplineSet
EndChar

StartChar: Ocircumflex
Encoding: 212 212 81
Width: 456
Flags: W
LayerCount: 2
Fore
SplineSet
450 0 m 1,0,-1
 357 0 l 1,1,-1
 230 297 l 1,2,-1
 95 0 l 1,3,-1
 6 0 l 1,4,-1
 183 373 l 1,5,-1
 23 714 l 1,6,-1
 114 714 l 1,7,-1
 232 443 l 1,8,-1
 350 714 l 1,9,-1
 440 714 l 1,10,-1
 280 369 l 1,11,-1
 450 0 l 1,0,-1
EndSplineSet
EndChar

StartChar: Odieresis
Encoding: 214 214 82
Width: 424
Flags: W
LayerCount: 2
Fore
SplineSet
399 0 m 1,0,-1
 30 0 l 1,1,-1
 30 66 l 1,2,-1
 295 637 l 1,3,-1
 36 637 l 1,4,-1
 36 714 l 1,5,-1
 391 714 l 1,6,-1
 391 647 l 1,7,-1
 125 77 l 1,8,-1
 399 77 l 1,9,-1
 399 0 l 1,0,-1
EndSplineSet
EndChar

StartChar: Ograve
Encoding: 210 210 83
Width: 489
Flags: W
LayerCount: 2
Fore
SplineSet
489 714 m 1,0,-1
 291 0 l 1,1,-1
 196 0 l 1,2,-1
 0 714 l 1,3,-1
 90 714 l 1,4,-1
 214 238 l 2,5,6
 220 215 220 215 225.5 190.5 c 128,-1,7
 231 166 231 166 235.5 142.5 c 128,-1,8
 240 119 240 119 243 96 c 1,9,10
 247 119 247 119 251.5 142.5 c 128,-1,11
 256 166 256 166 262 191 c 128,-1,12
 268 216 268 216 274 240 c 2,13,-1
 399 714 l 1,14,-1
 489 714 l 1,0,-1
EndSplineSet
EndChar

StartChar: Oslash
Encoding: 216 216 84
Width: 459
Flags: W
LayerCount: 2
Fore
SplineSet
235 546 m 0,0,1
 318 546 318 546 354.5 499.5 c 128,-1,2
 391 453 391 453 391 363 c 2,3,-1
 391 0 l 1,4,-1
 328 0 l 1,5,-1
 315 75 l 1,6,-1
 312 75 l 1,7,8
 296 46 296 46 276 27.5 c 128,-1,9
 256 9 256 9 230.5 -0.5 c 128,-1,10
 205 -10 205 -10 172 -10 c 0,11,12
 129 -10 129 -10 98.5 11 c 128,-1,13
 68 32 68 32 53 68 c 128,-1,14
 38 104 38 104 38 150 c 0,15,16
 38 230 38 230 89 273.5 c 128,-1,17
 140 317 140 317 239 321 c 2,18,-1
 309 324 l 1,19,-1
 309 359 l 2,20,21
 309 422 309 422 288 450 c 128,-1,22
 267 478 267 478 225 478 c 0,23,24
 197 478 197 478 168 469 c 128,-1,25
 139 460 139 460 109 443 c 1,26,-1
 83 505 l 1,27,28
 115 525 115 525 154 535.5 c 128,-1,29
 193 546 193 546 235 546 c 0,0,1
252 262 m 2,30,31
 183 259 183 259 153 231 c 128,-1,32
 123 203 123 203 123 151 c 0,33,34
 123 103 123 103 143 80 c 128,-1,35
 163 57 163 57 198 57 c 0,36,37
 248 57 248 57 278.5 97.5 c 128,-1,38
 309 138 309 138 309 213 c 2,39,-1
 309 265 l 1,40,-1
 252 262 l 2,30,31
EndSplineSet
EndChar

StartChar: Otilde
Encoding: 213 213 85
Width: 444
Flags: W
LayerCount: 2
Fore
SplineSet
223 374 m 1,0,-1
 353 714 l 1,1,-1
 444 714 l 1,2,-1
 265 278 l 1,3,-1
 265 0 l 1,4,-1
 179 0 l 1,5,-1
 179 275 l 1,6,-1
 0 714 l 1,7,-1
 91 714 l 1,8,-1
 223 374 l 1,0,-1
EndSplineSet
EndChar

StartChar: P
Encoding: 80 80 86
Width: 492
Flags: W
LayerCount: 2
Fore
SplineSet
229 714 m 2,0,1
 345 714 345 714 400 661 c 128,-1,2
 455 608 455 608 455 503 c 0,3,4
 455 452 455 452 441.5 410 c 128,-1,5
 428 368 428 368 399.5 338.5 c 128,-1,6
 371 309 371 309 327.5 293.5 c 128,-1,7
 284 278 284 278 223 278 c 2,8,-1
 166 278 l 1,9,-1
 166 0 l 1,10,-1
 80 0 l 1,11,-1
 80 714 l 1,12,-1
 229 714 l 2,0,1
225 639 m 2,13,-1
 166 639 l 1,14,-1
 166 353 l 1,15,-1
 214 353 l 2,16,17
 267 353 267 353 300.5 368 c 128,-1,18
 334 383 334 383 350 416 c 128,-1,19
 366 449 366 449 366 501 c 0,20,21
 366 574 366 574 332 606.5 c 128,-1,22
 298 639 298 639 225 639 c 2,13,-1
EndSplineSet
EndChar

StartChar: Thorn
Encoding: 222 222 87
Width: 508
Flags: W
LayerCount: 2
Fore
SplineSet
222 547 m 0,0,1
 264 547 264 547 297 527.5 c 128,-1,2
 330 508 330 508 354 466 c 1,3,-1
 359 466 l 1,4,-1
 369 537 l 1,5,-1
 438 537 l 1,6,-1
 438 -7 l 2,7,8
 438 -81 438 -81 415.5 -133.5 c 128,-1,9
 393 -186 393 -186 345.5 -213 c 128,-1,10
 298 -240 298 -240 223 -240 c 0,11,12
 180 -240 180 -240 144 -232 c 128,-1,13
 108 -224 108 -224 77 -208 c 1,14,-1
 77 -130 l 1,15,16
 112 -149 112 -149 148.5 -158.5 c 128,-1,17
 185 -168 185 -168 224 -168 c 0,18,19
 288 -168 288 -168 321.5 -133 c 128,-1,20
 355 -98 355 -98 355 -22 c 2,21,-1
 355 -5 l 2,22,23
 355 11 355 11 356 32.5 c 128,-1,24
 357 54 357 54 358 74 c 1,25,-1
 354 74 l 1,26,27
 331 31 331 31 298 10.5 c 128,-1,28
 265 -10 265 -10 220 -10 c 0,29,30
 138 -10 138 -10 92 61 c 128,-1,31
 46 132 46 132 46 266 c 0,32,33
 46 403 46 403 93 475 c 128,-1,34
 140 547 140 547 222 547 c 0,0,1
237 474 m 0,35,36
 202 474 202 474 178 450 c 128,-1,37
 154 426 154 426 142.5 379.5 c 128,-1,38
 131 333 131 333 131 265 c 0,39,40
 131 161 131 161 158 111 c 128,-1,41
 185 61 185 61 240 61 c 0,42,43
 269 61 269 61 290.5 72.5 c 128,-1,44
 312 84 312 84 326.5 106.5 c 128,-1,45
 341 129 341 129 348 164 c 128,-1,46
 355 199 355 199 355 245 c 2,47,-1
 355 269 l 2,48,49
 355 341 355 341 342.5 386 c 128,-1,50
 330 431 330 431 304 452.5 c 128,-1,51
 278 474 278 474 237 474 c 0,35,36
EndSplineSet
EndChar

StartChar: Q
Encoding: 81 81 88
Width: 619
Flags: W
LayerCount: 2
Fore
SplineSet
567 358 m 0,0,1
 567 268 567 268 549 198 c 128,-1,2
 531 128 531 128 497 81 c 128,-1,3
 463 34 463 34 412 11 c 1,4,-1
 540 -170 l 1,5,-1
 431 -170 l 1,6,-1
 328 -8 l 2,7,8
 324 -9 324 -9 318 -9.5 c 128,-1,9
 312 -10 312 -10 307 -10 c 0,10,11
 239 -10 239 -10 191 18.5 c 128,-1,12
 143 47 143 47 112.5 97.5 c 128,-1,13
 82 148 82 148 67.5 215 c 128,-1,14
 53 282 53 282 53 359 c 0,15,16
 53 477 53 477 81.5 558.5 c 128,-1,17
 110 640 110 640 167.5 682 c 128,-1,18
 225 724 225 724 311 724 c 0,19,20
 394 724 394 724 451 682 c 128,-1,21
 508 640 508 640 537.5 558 c 128,-1,22
 567 476 567 476 567 358 c 0,0,1
143 358 m 256,23,24
 143 264 143 264 161.5 199 c 128,-1,25
 180 134 180 134 217 100.5 c 128,-1,26
 254 67 254 67 310 67 c 256,27,28
 366 67 366 67 402.5 100 c 128,-1,29
 439 133 439 133 457.5 198 c 128,-1,30
 476 263 476 263 476 358 c 0,31,32
 476 500 476 500 435.5 573.5 c 128,-1,33
 395 647 395 647 311 647 c 0,34,35
 254 647 254 647 216.5 614 c 128,-1,36
 179 581 179 581 161 516.5 c 128,-1,37
 143 452 143 452 143 358 c 256,23,24
EndSplineSet
EndChar

StartChar: R
Encoding: 82 82 89
Width: 509
Flags: W
LayerCount: 2
Fore
SplineSet
227 714 m 2,0,1
 306 714 306 714 356 691.5 c 128,-1,2
 406 669 406 669 430.5 624.5 c 128,-1,3
 455 580 455 580 455 512 c 0,4,5
 455 462 455 462 441 425 c 128,-1,6
 427 388 427 388 400.5 362.5 c 128,-1,7
 374 337 374 337 336 320 c 1,8,-1
 496 0 l 1,9,-1
 399 0 l 1,10,-1
 258 298 l 1,11,-1
 166 298 l 1,12,-1
 166 0 l 1,13,-1
 80 0 l 1,14,-1
 80 714 l 1,15,-1
 227 714 l 2,0,1
227 637 m 2,16,-1
 166 637 l 1,17,-1
 166 370 l 1,18,-1
 234 370 l 2,19,20
 300 370 300 370 333.5 404.5 c 128,-1,21
 367 439 367 439 367 508 c 0,22,23
 367 555 367 555 352 583 c 128,-1,24
 337 611 337 611 306 624 c 128,-1,25
 275 637 275 637 227 637 c 2,16,-1
EndSplineSet
EndChar

StartChar: S
Encoding: 83 83 90
Width: 454
Flags: W
LayerCount: 2
Fore
SplineSet
413 195 m 0,0,1
 413 133 413 133 387.5 87.5 c 128,-1,2
 362 42 362 42 315 16 c 128,-1,3
 268 -10 268 -10 205 -10 c 0,4,5
 173 -10 173 -10 143.5 -6.5 c 128,-1,6
 114 -3 114 -3 88.5 4.5 c 128,-1,7
 63 12 63 12 42 22 c 1,8,-1
 42 109 l 1,9,10
 76 90 76 90 119.5 79.5 c 128,-1,11
 163 69 163 69 204 69 c 0,12,13
 244 69 244 69 271 84.5 c 128,-1,14
 298 100 298 100 312.5 127 c 128,-1,15
 327 154 327 154 327 187 c 0,16,17
 327 222 327 222 315 246 c 128,-1,18
 303 270 303 270 275 290 c 128,-1,19
 247 310 247 310 199 331 c 0,20,21
 163 348 163 348 135 367 c 128,-1,22
 107 386 107 386 87.5 409.5 c 128,-1,23
 68 433 68 433 58 464.5 c 128,-1,24
 48 496 48 496 48 538 c 0,25,26
 47 594 47 594 72.5 636 c 128,-1,27
 98 678 98 678 142.5 701.5 c 128,-1,28
 187 725 187 725 244 724 c 0,29,30
 291 724 291 724 331.5 713.5 c 128,-1,31
 372 703 372 703 404 688 c 1,32,-1
 376 611 l 1,33,34
 344 627 344 627 311 636 c 128,-1,35
 278 645 278 645 245 645 c 0,36,37
 209 645 209 645 185 631.5 c 128,-1,38
 161 618 161 618 148 594.5 c 128,-1,39
 135 571 135 571 135 540 c 0,40,41
 135 504 135 504 146.5 480 c 128,-1,42
 158 456 158 456 185.5 437.5 c 128,-1,43
 213 419 213 419 259 396 c 0,44,45
 310 373 310 373 344.5 344.5 c 128,-1,46
 379 316 379 316 396 279.5 c 128,-1,47
 413 243 413 243 413 195 c 0,0,1
EndSplineSet
EndChar

StartChar: T
Encoding: 84 84 91
Width: 529
Flags: W
AnchorPoint: "Anchor-0" 266 -24 basechar 0
LayerCount: 2
Fore
SplineSet
265 -12 m 0,0,1
 205 -12 205 -12 160.5 3.5 c 128,-1,2
 116 19 116 19 87.5 47.5 c 128,-1,3
 59 76 59 76 45.5 114 c 128,-1,4
 32 152 32 152 32 196 c 0,5,6
 32 214 32 214 33.5 229.5 c 128,-1,7
 35 245 35 245 38 259 c 1,8,-1
 112 249 l 1,9,10
 110 239 110 239 109 226.5 c 128,-1,11
 108 214 108 214 108 200 c 0,12,13
 108 175 108 175 114.5 151 c 128,-1,14
 121 127 121 127 138 107.5 c 128,-1,15
 155 88 155 88 185.5 76 c 128,-1,16
 216 64 216 64 265 64 c 0,17,18
 313 64 313 64 343 76.5 c 128,-1,19
 373 89 373 89 390.5 109.5 c 128,-1,20
 408 130 408 130 415 153.5 c 128,-1,21
 422 177 422 177 422 200 c 0,22,23
 422 227 422 227 417.5 248 c 128,-1,24
 413 269 413 269 403 287 c 0,25,26
 400 291 400 291 395 294 c 128,-1,27
 390 297 390 297 387 301 c 0,28,29
 372 317 372 317 350.5 326.5 c 128,-1,30
 329 336 329 336 301 336 c 0,31,32
 270 336 270 336 255 325 c 128,-1,33
 240 314 240 314 240 294 c 256,34,35
 240 274 240 274 253 262.5 c 128,-1,36
 266 251 266 251 292 251 c 0,37,38
 317 251 317 251 335 265 c 128,-1,39
 353 279 353 279 363 303.5 c 128,-1,40
 373 328 373 328 373 359 c 0,41,42
 373 398 373 398 356.5 423.5 c 128,-1,43
 340 449 340 449 316.5 464 c 128,-1,44
 293 479 293 479 272 485 c 1,45,-1
 376 494 l 1,46,47
 407 472 407 472 425.5 438 c 128,-1,48
 444 404 444 404 444 360 c 0,49,50
 444 348 444 348 443.5 340.5 c 128,-1,51
 443 333 443 333 443 328 c 2,52,-1
 430 302 l 1,53,54
 420 260 420 260 398.5 233.5 c 128,-1,55
 377 207 377 207 348 194.5 c 128,-1,56
 319 182 319 182 285 182 c 0,57,58
 233 182 233 182 200.5 210 c 128,-1,59
 168 238 168 238 168 293 c 0,60,61
 168 323 168 323 181 347.5 c 128,-1,62
 194 372 194 372 222 386.5 c 128,-1,63
 250 401 250 401 294 401 c 0,64,65
 324 401 324 401 348.5 393 c 128,-1,66
 373 385 373 385 395 369 c 0,67,68
 397 368 397 368 400 368 c 128,-1,69
 403 368 403 368 406 368.5 c 128,-1,70
 409 369 409 369 411 367 c 0,71,72
 450 341 450 341 472 295.5 c 128,-1,73
 494 250 494 250 494 197 c 0,74,75
 494 148 494 148 480 109.5 c 128,-1,76
 466 71 466 71 437 44 c 128,-1,77
 408 17 408 17 365 2.5 c 128,-1,78
 322 -12 322 -12 265 -12 c 0,0,1
36 476 m 1,79,-1
 36 551 l 1,80,-1
 304 551 l 2,81,82
 351 551 351 551 370.5 556.5 c 128,-1,83
 390 562 390 562 401 572 c 0,84,85
 411 580 411 580 414.5 592.5 c 128,-1,86
 418 605 418 605 418 619 c 0,87,88
 418 652 418 652 402 684.5 c 128,-1,89
 386 717 386 717 357 749 c 1,90,-1
 419 790 l 1,91,92
 460 740 460 740 477 700 c 128,-1,93
 494 660 494 660 494 613 c 0,94,95
 494 587 494 587 484.5 560.5 c 128,-1,96
 475 534 475 534 455 516 c 0,97,98
 434 497 434 497 403.5 486.5 c 128,-1,99
 373 476 373 476 319 476 c 2,100,-1
 36 476 l 1,79,-1
EndSplineSet
EndChar

StartChar: U
Encoding: 85 85 92
Width: 585
Flags: W
LayerCount: 2
Fore
SplineSet
510 232 m 2,0,1
 510 153 510 153 486 99.5 c 128,-1,2
 462 46 462 46 413.5 18 c 128,-1,3
 365 -10 365 -10 292 -10 c 0,4,5
 186 -10 186 -10 130 51.5 c 128,-1,6
 74 113 74 113 74 232 c 2,7,-1
 74 714 l 1,8,-1
 160 714 l 1,9,-1
 160 231 l 2,10,11
 160 147 160 147 194 107 c 128,-1,12
 228 67 228 67 293 67 c 0,13,14
 338 67 338 67 367 85 c 128,-1,15
 396 103 396 103 410 139.5 c 128,-1,16
 424 176 424 176 424 232 c 2,17,-1
 424 714 l 1,18,-1
 510 714 l 1,19,-1
 510 232 l 2,0,1
EndSplineSet
EndChar

StartChar: Uacute
Encoding: 218 218 93
Width: 387
Flags: W
LayerCount: 2
Fore
SplineSet
245 -10 m 0,0,1
 182 -10 182 -10 137.5 20 c 128,-1,2
 93 50 93 50 70 111.5 c 128,-1,3
 47 173 47 173 47 265 c 0,4,5
 47 356 47 356 70.5 419 c 128,-1,6
 94 482 94 482 139 514.5 c 128,-1,7
 184 547 184 547 248 547 c 0,8,9
 283 547 283 547 311.5 540 c 128,-1,10
 340 533 340 533 362 521 c 1,11,-1
 337 452 l 1,12,13
 316 461 316 461 294 467 c 128,-1,14
 272 473 272 473 251 473 c 0,15,16
 211 473 211 473 184.5 450 c 128,-1,17
 158 427 158 427 145 380.5 c 128,-1,18
 132 334 132 334 132 266 c 0,19,20
 132 199 132 199 145 153.5 c 128,-1,21
 158 108 158 108 185 85 c 128,-1,22
 212 62 212 62 251 62 c 0,23,24
 279 62 279 62 305 69.5 c 128,-1,25
 331 77 331 77 355 89 c 1,26,-1
 355 18 l 1,27,28
 333 5 333 5 304 -2.5 c 128,-1,29
 275 -10 275 -10 245 -10 c 0,0,1
EndSplineSet
EndChar

StartChar: Ucircumflex
Encoding: 219 219 94
Width: 508
Flags: W
LayerCount: 2
Fore
SplineSet
222 -10 m 0,0,1
 138 -10 138 -10 92 60.5 c 128,-1,2
 46 131 46 131 46 268 c 0,3,4
 46 403 46 403 92 475 c 128,-1,5
 138 547 138 547 220 547 c 0,6,7
 250 547 250 547 274.5 537.5 c 128,-1,8
 299 528 299 528 319.5 510.5 c 128,-1,9
 340 493 340 493 354 468 c 1,10,-1
 358 468 l 1,11,12
 357 488 357 488 355.5 507.5 c 128,-1,13
 354 527 354 527 354 543 c 2,14,-1
 354 760 l 1,15,-1
 438 760 l 1,16,-1
 438 0 l 1,17,-1
 371 0 l 1,18,-1
 359 69 l 1,19,-1
 354 69 l 1,20,21
 340 45 340 45 321 27 c 128,-1,22
 302 9 302 9 277.5 -0.5 c 128,-1,23
 253 -10 253 -10 222 -10 c 0,0,1
239 60 m 0,24,25
 299 60 299 60 327 106 c 128,-1,26
 355 152 355 152 355 246 c 2,27,-1
 355 272 l 2,28,29
 355 374 355 374 328 424 c 128,-1,30
 301 474 301 474 238 474 c 0,31,32
 183 474 183 474 157 420 c 128,-1,33
 131 366 131 366 131 267 c 0,34,35
 131 166 131 166 157.5 113 c 128,-1,36
 184 60 184 60 239 60 c 0,24,25
EndSplineSet
EndChar

StartChar: Udieresis
Encoding: 220 220 95
Width: 462
Flags: W
LayerCount: 2
Fore
SplineSet
238 546 m 0,0,1
 297 546 297 546 337 515 c 128,-1,2
 377 484 377 484 397.5 430 c 128,-1,3
 418 376 418 376 418 308 c 2,4,-1
 418 252 l 1,5,-1
 130 252 l 1,6,7
 132 157 132 157 165.5 109 c 128,-1,8
 199 61 199 61 264 61 c 0,9,10
 300 61 300 61 332 70 c 128,-1,11
 364 79 364 79 397 98 c 1,12,-1
 397 24 l 1,13,14
 365 7 365 7 331.5 -1.5 c 128,-1,15
 298 -10 298 -10 257 -10 c 0,16,17
 187 -10 187 -10 140 25 c 128,-1,18
 93 60 93 60 70 121.5 c 128,-1,19
 47 183 47 183 47 265 c 0,20,21
 47 355 47 355 69.5 417.5 c 128,-1,22
 92 480 92 480 135 513 c 128,-1,23
 178 546 178 546 238 546 c 0,0,1
238 478 m 0,24,25
 190 478 190 478 163 438 c 128,-1,26
 136 398 136 398 131 318 c 1,27,-1
 338 318 l 1,28,29
 338 363 338 363 327.5 399 c 128,-1,30
 317 435 317 435 294.5 456.5 c 128,-1,31
 272 478 272 478 238 478 c 0,24,25
EndSplineSet
EndChar

StartChar: Ugrave
Encoding: 217 217 96
Width: 508
Flags: W
LayerCount: 2
Fore
SplineSet
154 553 m 2,0,1
 154 531 154 531 153 509 c 128,-1,2
 152 487 152 487 150 466 c 1,3,-1
 155 466 l 1,4,5
 177 505 177 505 209.5 525.5 c 128,-1,6
 242 546 242 546 286 546 c 0,7,8
 370 546 370 546 416.5 475.5 c 128,-1,9
 463 405 463 405 463 269 c 0,10,11
 463 179 463 179 442 116.5 c 128,-1,12
 421 54 421 54 382 22 c 128,-1,13
 343 -10 343 -10 289 -10 c 0,14,15
 243 -10 243 -10 210.5 10 c 128,-1,16
 178 30 178 30 155 68 c 1,17,-1
 149 68 l 1,18,-1
 136 0 l 1,19,-1
 71 0 l 1,20,-1
 71 760 l 1,21,-1
 154 760 l 1,22,-1
 154 553 l 2,0,1
269 474 m 0,23,24
 224 474 224 474 199 449.5 c 128,-1,25
 174 425 174 425 164 380 c 128,-1,26
 154 335 154 335 154 275 c 2,27,-1
 154 260 l 2,28,29
 154 160 154 160 181.5 110.5 c 128,-1,30
 209 61 209 61 271 61 c 0,31,32
 324 61 324 61 350.5 112.5 c 128,-1,33
 377 164 377 164 377 270 c 0,34,35
 377 371 377 371 351 422.5 c 128,-1,36
 325 474 325 474 269 474 c 0,23,24
EndSplineSet
EndChar

StartChar: V
Encoding: 86 86 97
Width: 489
Flags: W
LayerCount: 2
Fore
SplineSet
489 714 m 1,0,-1
 291 0 l 1,1,-1
 196 0 l 1,2,-1
 0 714 l 1,3,-1
 90 714 l 1,4,-1
 214 238 l 2,5,6
 220 215 220 215 225.5 190.5 c 128,-1,7
 231 166 231 166 235.5 142.5 c 128,-1,8
 240 119 240 119 243 96 c 1,9,10
 247 119 247 119 251.5 142.5 c 128,-1,11
 256 166 256 166 262 191 c 128,-1,12
 268 216 268 216 274 240 c 2,13,-1
 399 714 l 1,14,-1
 489 714 l 1,0,-1
EndSplineSet
EndChar

StartChar: W
Encoding: 87 87 98
Width: 782
Flags: W
LayerCount: 2
Fore
SplineSet
776 714 m 1,0,-1
 617 0 l 1,1,-1
 520 0 l 1,2,-1
 414 459 l 2,3,4
 412 471 412 471 408.5 487.5 c 128,-1,5
 405 504 405 504 402 522 c 128,-1,6
 399 540 399 540 396 560 c 128,-1,7
 393 580 393 580 390 599 c 1,8,9
 389 586 389 586 386.5 569.5 c 128,-1,10
 384 553 384 553 381 534 c 128,-1,11
 378 515 378 515 374 496 c 128,-1,12
 370 477 370 477 366 459 c 2,13,-1
 263 0 l 1,14,-1
 167 0 l 1,15,-1
 6 714 l 1,16,-1
 94 714 l 1,17,-1
 188 277 l 2,18,19
 193 251 193 251 197.5 226.5 c 128,-1,20
 202 202 202 202 206 179.5 c 128,-1,21
 210 157 210 157 213 137 c 128,-1,22
 216 117 216 117 217 100 c 1,23,24
 220 122 220 122 223.5 144 c 128,-1,25
 227 166 227 166 231.5 188.5 c 128,-1,26
 236 211 236 211 240 233.5 c 128,-1,27
 244 256 244 256 249 277 c 2,28,-1
 349 714 l 1,29,-1
 432 714 l 1,30,-1
 533 276 l 2,31,32
 537 256 537 256 541.5 234.5 c 128,-1,33
 546 213 546 213 550 191 c 128,-1,34
 554 169 554 169 557.5 146.5 c 128,-1,35
 561 124 561 124 564 100 c 1,36,37
 568 131 568 131 572.5 161 c 128,-1,38
 577 191 577 191 582.5 220.5 c 128,-1,39
 588 250 588 250 594 277 c 2,40,-1
 689 714 l 1,41,-1
 776 714 l 1,0,-1
EndSplineSet
EndChar

StartChar: X
Encoding: 88 88 99
Width: 456
Flags: W
LayerCount: 2
Fore
SplineSet
450 0 m 1,0,-1
 357 0 l 1,1,-1
 230 297 l 1,2,-1
 95 0 l 1,3,-1
 6 0 l 1,4,-1
 183 373 l 1,5,-1
 23 714 l 1,6,-1
 114 714 l 1,7,-1
 232 443 l 1,8,-1
 350 714 l 1,9,-1
 440 714 l 1,10,-1
 280 369 l 1,11,-1
 450 0 l 1,0,-1
EndSplineSet
EndChar

StartChar: Y
Encoding: 89 89 100
Width: 444
Flags: W
LayerCount: 2
Fore
SplineSet
223 374 m 1,0,-1
 353 714 l 1,1,-1
 444 714 l 1,2,-1
 265 278 l 1,3,-1
 265 0 l 1,4,-1
 179 0 l 1,5,-1
 179 275 l 1,6,-1
 0 714 l 1,7,-1
 91 714 l 1,8,-1
 223 374 l 1,0,-1
EndSplineSet
EndChar

StartChar: Yacute
Encoding: 221 221 101
Width: 280
Flags: W
LayerCount: 2
Fore
SplineSet
268 469 m 1,0,-1
 168 469 l 1,1,-1
 168 0 l 1,2,-1
 84 0 l 1,3,-1
 84 469 l 1,4,-1
 11 469 l 1,5,-1
 11 511 l 1,6,-1
 84 540 l 1,7,-1
 84 571 l 2,8,9
 84 635 84 635 97.5 678 c 128,-1,10
 111 721 111 721 142 743 c 128,-1,11
 173 765 173 765 222 765 c 0,12,13
 247 765 247 765 268 760.5 c 128,-1,14
 289 756 289 756 309 748 c 1,15,-1
 288 682 l 1,16,17
 274 687 274 687 259 690.5 c 128,-1,18
 244 694 244 694 229 694 c 0,19,20
 196 694 196 694 182 667 c 128,-1,21
 168 640 168 640 168 573 c 2,22,-1
 168 537 l 1,23,-1
 268 537 l 1,24,-1
 268 469 l 1,0,-1
EndSplineSet
EndChar

StartChar: Z
Encoding: 90 90 102
Width: 424
Flags: W
LayerCount: 2
Fore
SplineSet
399 0 m 1,0,-1
 30 0 l 1,1,-1
 30 66 l 1,2,-1
 295 637 l 1,3,-1
 36 637 l 1,4,-1
 36 714 l 1,5,-1
 391 714 l 1,6,-1
 391 647 l 1,7,-1
 125 77 l 1,8,-1
 399 77 l 1,9,-1
 399 0 l 1,0,-1
EndSplineSet
EndChar

StartChar: a
Encoding: 97 97 103
Width: 459
Flags: W
LayerCount: 2
Fore
SplineSet
235 546 m 0,0,1
 318 546 318 546 354.5 499.5 c 128,-1,2
 391 453 391 453 391 363 c 2,3,-1
 391 0 l 1,4,-1
 328 0 l 1,5,-1
 315 75 l 1,6,-1
 312 75 l 1,7,8
 296 46 296 46 276 27.5 c 128,-1,9
 256 9 256 9 230.5 -0.5 c 128,-1,10
 205 -10 205 -10 172 -10 c 0,11,12
 129 -10 129 -10 98.5 11 c 128,-1,13
 68 32 68 32 53 68 c 128,-1,14
 38 104 38 104 38 150 c 0,15,16
 38 230 38 230 89 273.5 c 128,-1,17
 140 317 140 317 239 321 c 2,18,-1
 309 324 l 1,19,-1
 309 359 l 2,20,21
 309 422 309 422 288 450 c 128,-1,22
 267 478 267 478 225 478 c 0,23,24
 197 478 197 478 168 469 c 128,-1,25
 139 460 139 460 109 443 c 1,26,-1
 83 505 l 1,27,28
 115 525 115 525 154 535.5 c 128,-1,29
 193 546 193 546 235 546 c 0,0,1
252 262 m 2,30,31
 183 259 183 259 153 231 c 128,-1,32
 123 203 123 203 123 151 c 0,33,34
 123 103 123 103 143 80 c 128,-1,35
 163 57 163 57 198 57 c 0,36,37
 248 57 248 57 278.5 97.5 c 128,-1,38
 309 138 309 138 309 213 c 2,39,-1
 309 265 l 1,40,-1
 252 262 l 2,30,31
EndSplineSet
EndChar

StartChar: aacute
Encoding: 225 225 104
Width: 225
Flags: W
LayerCount: 2
Fore
SplineSet
32 -240 m 0,0,1
 15 -240 15 -240 0.5 -237 c 128,-1,2
 -14 -234 -14 -234 -26 -230 c 1,3,-1
 -26 -158 l 1,4,5
 -15 -162 -15 -162 -4 -164.5 c 128,-1,6
 7 -167 7 -167 19 -167 c 0,7,8
 44 -167 44 -167 57.5 -147.5 c 128,-1,9
 71 -128 71 -128 71 -83 c 2,10,-1
 71 537 l 1,11,-1
 154 537 l 1,12,-1
 154 -81 l 2,13,14
 154 -134 154 -134 140.5 -169.5 c 128,-1,15
 127 -205 127 -205 100 -222 c 128,-1,16
 73 -239 73 -239 32 -240 c 0,0,1
65 681 m 0,17,18
 65 710 65 710 78 724 c 128,-1,19
 91 738 91 738 114 738 c 0,20,21
 136 738 136 738 148.5 723.5 c 128,-1,22
 161 709 161 709 161 681 c 0,23,24
 161 654 161 654 148.5 639 c 128,-1,25
 136 624 136 624 114 624 c 256,26,27
 92 624 92 624 78.5 639 c 128,-1,28
 65 654 65 654 65 681 c 0,17,18
EndSplineSet
EndChar

StartChar: acircumflex
Encoding: 226 226 105
Width: 439
Flags: W
LayerCount: 2
Fore
SplineSet
154 377 m 2,0,1
 154 353 154 353 152.5 326.5 c 128,-1,2
 151 300 151 300 149 276 c 1,3,-1
 153 276 l 1,4,5
 159 286 159 286 166.5 298 c 128,-1,6
 174 310 174 310 181.5 322 c 128,-1,7
 189 334 189 334 196 343 c 2,8,-1
 331 537 l 1,9,-1
 423 537 l 1,10,-1
 267 323 l 1,11,-1
 434 0 l 1,12,-1
 341 0 l 1,13,-1
 211 261 l 1,14,-1
 154 198 l 1,15,-1
 154 0 l 1,16,-1
 71 0 l 1,17,-1
 71 760 l 1,18,-1
 154 760 l 1,19,-1
 154 377 l 2,0,1
EndSplineSet
EndChar

StartChar: adieresis
Encoding: 228 228 106
Width: 758
Flags: W
LayerCount: 2
Fore
SplineSet
547 547 m 0,0,1
 620 547 620 547 654.5 500.5 c 128,-1,2
 689 454 689 454 689 357 c 2,3,-1
 689 0 l 1,4,-1
 607 0 l 1,5,-1
 607 345 l 2,6,7
 607 413 607 413 587 443.5 c 128,-1,8
 567 474 567 474 526 474 c 0,9,10
 469 474 469 474 445 428.5 c 128,-1,11
 421 383 421 383 421 296 c 2,12,-1
 421 0 l 1,13,-1
 339 0 l 1,14,-1
 339 347 l 2,15,16
 339 392 339 392 330 420 c 128,-1,17
 321 448 321 448 303.5 461 c 128,-1,18
 286 474 286 474 259 474 c 0,19,20
 217 474 217 474 194.5 450 c 128,-1,21
 172 426 172 426 163 382.5 c 128,-1,22
 154 339 154 339 154 280 c 2,23,-1
 154 0 l 1,24,-1
 71 0 l 1,25,-1
 71 537 l 1,26,-1
 138 537 l 1,27,-1
 148 464 l 1,28,-1
 153 464 l 1,29,30
 166 492 166 492 185 510 c 128,-1,31
 204 528 204 528 228 537.5 c 128,-1,32
 252 547 252 547 281 547 c 0,33,34
 332 547 332 547 363 523.5 c 128,-1,35
 394 500 394 500 406 460 c 1,36,-1
 412 460 l 1,37,38
 433 504 433 504 467 525.5 c 128,-1,39
 501 547 501 547 547 547 c 0,0,1
EndSplineSet
EndChar

StartChar: agrave
Encoding: 224 224 107
Width: 225
Flags: W
LayerCount: 2
Fore
SplineSet
154 537 m 1,0,-1
 154 0 l 1,1,-1
 71 0 l 1,2,-1
 71 537 l 1,3,-1
 154 537 l 1,0,-1
114 738 m 0,4,5
 136 738 136 738 148.5 723.5 c 128,-1,6
 161 709 161 709 161 681 c 0,7,8
 161 654 161 654 148.5 639 c 128,-1,9
 136 624 136 624 114 624 c 256,10,11
 92 624 92 624 78.5 639 c 128,-1,12
 65 654 65 654 65 681 c 0,13,14
 65 710 65 710 78 724 c 128,-1,15
 91 738 91 738 114 738 c 0,4,5
EndSplineSet
EndChar

StartChar: aring
Encoding: 229 229 108
Width: 505
Flags: W
LayerCount: 2
Fore
SplineSet
286 547 m 0,0,1
 361 547 361 547 398.5 501.5 c 128,-1,2
 436 456 436 456 436 360 c 2,3,-1
 436 0 l 1,4,-1
 353 0 l 1,5,-1
 353 347 l 2,6,7
 353 410 353 410 333.5 442 c 128,-1,8
 314 474 314 474 270 474 c 0,9,10
 207 474 207 474 180.5 427 c 128,-1,11
 154 380 154 380 154 279 c 2,12,-1
 154 0 l 1,13,-1
 71 0 l 1,14,-1
 71 537 l 1,15,-1
 138 537 l 1,16,-1
 148 464 l 1,17,-1
 153 464 l 1,18,19
 167 491 167 491 187 509.5 c 128,-1,20
 207 528 207 528 233 537.5 c 128,-1,21
 259 547 259 547 286 547 c 0,0,1
EndSplineSet
EndChar

StartChar: atilde
Encoding: 227 227 109
Width: 224
Flags: W
LayerCount: 2
Fore
SplineSet
154 0 m 1,0,-1
 71 0 l 1,1,-1
 71 760 l 1,2,-1
 154 760 l 1,3,-1
 154 0 l 1,0,-1
EndSplineSet
EndChar

StartChar: ae
Encoding: 230 230 110
Width: 493
Flags: W
LayerCount: 2
Fore
SplineSet
447 269 m 0,0,1
 447 205 447 205 434 154 c 128,-1,2
 421 103 421 103 396 66 c 128,-1,3
 371 29 371 29 333 9.5 c 128,-1,4
 295 -10 295 -10 245 -10 c 0,5,6
 198 -10 198 -10 161 9.5 c 128,-1,7
 124 29 124 29 98 65.5 c 128,-1,8
 72 102 72 102 59 153.5 c 128,-1,9
 46 205 46 205 46 269 c 0,10,11
 46 358 46 358 68.5 420 c 128,-1,12
 91 482 91 482 136 514.5 c 128,-1,13
 181 547 181 547 247 547 c 0,14,15
 309 547 309 547 354 515 c 128,-1,16
 399 483 399 483 423 421.5 c 128,-1,17
 447 360 447 360 447 269 c 0,0,1
131 269 m 0,18,19
 131 202 131 202 143.5 155.5 c 128,-1,20
 156 109 156 109 181.5 85.5 c 128,-1,21
 207 62 207 62 247 62 c 256,22,23
 287 62 287 62 312.5 85.5 c 128,-1,24
 338 109 338 109 350.5 155.5 c 128,-1,25
 363 202 363 202 363 269 c 0,26,27
 363 337 363 337 350.5 382.5 c 128,-1,28
 338 428 338 428 312.5 451.5 c 128,-1,29
 287 475 287 475 247 475 c 0,30,31
 186 475 186 475 158.5 422.5 c 128,-1,32
 131 370 131 370 131 269 c 0,18,19
EndSplineSet
EndChar

StartChar: b
Encoding: 98 98 111
Width: 508
Flags: W
LayerCount: 2
Fore
SplineSet
154 553 m 2,0,1
 154 531 154 531 153 509 c 128,-1,2
 152 487 152 487 150 466 c 1,3,-1
 155 466 l 1,4,5
 177 505 177 505 209.5 525.5 c 128,-1,6
 242 546 242 546 286 546 c 0,7,8
 370 546 370 546 416.5 475.5 c 128,-1,9
 463 405 463 405 463 269 c 0,10,11
 463 179 463 179 442 116.5 c 128,-1,12
 421 54 421 54 382 22 c 128,-1,13
 343 -10 343 -10 289 -10 c 0,14,15
 243 -10 243 -10 210.5 10 c 128,-1,16
 178 30 178 30 155 68 c 1,17,-1
 149 68 l 1,18,-1
 136 0 l 1,19,-1
 71 0 l 1,20,-1
 71 760 l 1,21,-1
 154 760 l 1,22,-1
 154 553 l 2,0,1
269 474 m 0,23,24
 224 474 224 474 199 449.5 c 128,-1,25
 174 425 174 425 164 380 c 128,-1,26
 154 335 154 335 154 275 c 2,27,-1
 154 260 l 2,28,29
 154 160 154 160 181.5 110.5 c 128,-1,30
 209 61 209 61 271 61 c 0,31,32
 324 61 324 61 350.5 112.5 c 128,-1,33
 377 164 377 164 377 270 c 0,34,35
 377 371 377 371 351 422.5 c 128,-1,36
 325 474 325 474 269 474 c 0,23,24
EndSplineSet
EndChar

StartChar: c
Encoding: 99 99 112
Width: 502
Flags: W
LayerCount: 2
Fore
SplineSet
335.48046875 422.639648438 m 6,0,1
 335.48046875 402.890625 335.48046875 402.890625 334.764648438 393.120117188 c 4,2,3
 333.709960938 378.719726562 333.709960938 378.719726562 332.616210938 365.759765625 c 5,4,-1
 335.48046875 365.759765625 l 5,5,6
 341.41015625 385.440429688 341.41015625 385.440429688 350.997070312 398.16015625 c 4,7,8
 360.66015625 411.360351562 360.66015625 411.360351562 372.71875 417.959960938 c 4,9,10
 384.530273438 424.799804688 384.530273438 424.799804688 398.020507812 424.799804688 c 4,11,12
 423.030273438 424.799804688 423.030273438 424.799804688 438.599609375 410.040039062 c 4,13,14
 454.599609375 395.040039062 454.599609375 395.040039062 462.23046875 365.400390625 c 4,15,16
 470.107421875 335.106445312 470.107421875 335.106445312 470.107421875 290.879882812 c 6,17,-1
 470.107421875 190.080078125 l 5,18,-1
 430.483398438 190.080078125 l 5,19,-1
 430.483398438 255.599609375 l 6,20,21
 430.73046875 304.799804688 430.73046875 304.799804688 421.173828125 325.080078125 c 4,22,23
 411.48046875 346.080078125 411.48046875 346.080078125 390.859375 346.3203125 c 4,24,25
 363.740234375 346.080078125 363.740234375 346.080078125 358.634765625 331.200195312 c 4,26,27
 346.030273438 294.240234375 346.030273438 294.240234375 340.970703125 284.759765625 c 4,28,29
 335.48046875 273.58984375 335.48046875 273.58984375 335.48046875 231.83984375 c 6,30,-1
 335.48046875 190.080078125 l 5,31,-1
 295.856445312 190.080078125 l 5,32,-1
 295.856445312 522.240234375 l 5,33,-1
 335.48046875 522.240234375 l 5,34,-1
 335.48046875 422.639648438 l 6,0,1
325 648 m 0,35,36
 279 648 279 648 245 625.5 c 128,-1,37
 211 603 211 603 188 563 c 128,-1,38
 165 523 165 523 154 470.5 c 128,-1,39
 143 418 143 418 143 357 c 0,40,41
 143 268 143 268 164.5 202.5 c 128,-1,42
 186 137 186 137 228 102 c 128,-1,43
 270 67 270 67 328 67 c 0,44,45
 364 67 364 67 395 74.5 c 128,-1,46
 426 82 426 82 455 94 c 1,47,-1
 455 18 l 1,48,49
 426 4 426 4 393 -3 c 128,-1,50
 360 -10 360 -10 318 -10 c 0,51,52
 234 -10 234 -10 175 34.5 c 128,-1,53
 116 79 116 79 84.5 161.5 c 128,-1,54
 53 244 53 244 53 358 c 0,55,56
 53 435 53 435 70 502 c 128,-1,57
 87 569 87 569 121 619 c 128,-1,58
 155 669 155 669 206 697 c 128,-1,59
 257 725 257 725 323 725 c 0,60,61
 365 725 365 725 403.5 715.5 c 128,-1,62
 442 706 442 706 476 687 c 1,63,-1
 444 614 l 1,64,65
 419 629 419 629 389 638.5 c 128,-1,66
 359 648 359 648 325 648 c 0,35,36
EndSplineSet
EndChar

StartChar: ccedilla
Encoding: 231 231 113
Width: 508
Flags: W
LayerCount: 2
Fore
SplineSet
286 547 m 0,0,1
 370 547 370 547 416.5 477.5 c 128,-1,2
 463 408 463 408 463 269 c 0,3,4
 463 180 463 180 442 117.5 c 128,-1,5
 421 55 421 55 382.5 22.5 c 128,-1,6
 344 -10 344 -10 289 -10 c 0,7,8
 259 -10 259 -10 233 0 c 128,-1,9
 207 10 207 10 187.5 28 c 128,-1,10
 168 46 168 46 154 71 c 1,11,-1
 149 71 l 1,12,13
 151 51 151 51 152.5 30.5 c 128,-1,14
 154 10 154 10 154 -6 c 2,15,-1
 154 -240 l 1,16,-1
 71 -240 l 1,17,-1
 71 537 l 1,18,-1
 139 537 l 1,19,-1
 149 464 l 1,20,-1
 154 464 l 1,21,22
 169 491 169 491 188.5 509.5 c 128,-1,23
 208 528 208 528 232 537.5 c 128,-1,24
 256 547 256 547 286 547 c 0,0,1
269 476 m 0,25,26
 229 476 229 476 204 455.5 c 128,-1,27
 179 435 179 435 166.5 392.5 c 128,-1,28
 154 350 154 350 154 285 c 2,29,-1
 154 266 l 2,30,31
 154 197 154 197 166 151.5 c 128,-1,32
 178 106 178 106 203.5 84 c 128,-1,33
 229 62 229 62 270 62 c 0,34,35
 306 62 306 62 330 85.5 c 128,-1,36
 354 109 354 109 365.5 155.5 c 128,-1,37
 377 202 377 202 377 269 c 0,38,39
 377 369 377 369 351.5 422.5 c 128,-1,40
 326 476 326 476 269 476 c 0,25,26
EndSplineSet
EndChar

StartChar: d
Encoding: 100 100 114
Width: 508
Flags: W
LayerCount: 2
Fore
SplineSet
222 -10 m 0,0,1
 138 -10 138 -10 92 60.5 c 128,-1,2
 46 131 46 131 46 268 c 0,3,4
 46 403 46 403 92 475 c 128,-1,5
 138 547 138 547 220 547 c 0,6,7
 250 547 250 547 274.5 537.5 c 128,-1,8
 299 528 299 528 319.5 510.5 c 128,-1,9
 340 493 340 493 354 468 c 1,10,-1
 358 468 l 1,11,12
 357 488 357 488 355.5 507.5 c 128,-1,13
 354 527 354 527 354 543 c 2,14,-1
 354 760 l 1,15,-1
 438 760 l 1,16,-1
 438 0 l 1,17,-1
 371 0 l 1,18,-1
 359 69 l 1,19,-1
 354 69 l 1,20,21
 340 45 340 45 321 27 c 128,-1,22
 302 9 302 9 277.5 -0.5 c 128,-1,23
 253 -10 253 -10 222 -10 c 0,0,1
239 60 m 0,24,25
 299 60 299 60 327 106 c 128,-1,26
 355 152 355 152 355 246 c 2,27,-1
 355 272 l 2,28,29
 355 374 355 374 328 424 c 128,-1,30
 301 474 301 474 238 474 c 0,31,32
 183 474 183 474 157 420 c 128,-1,33
 131 366 131 366 131 267 c 0,34,35
 131 166 131 166 157.5 113 c 128,-1,36
 184 60 184 60 239 60 c 0,24,25
EndSplineSet
EndChar

StartChar: eth
Encoding: 240 240 115
Width: 412
Flags: W
LayerCount: 2
Fore
SplineSet
3 537 m 1,0,-1
 90 537 l 1,1,-1
 176 232 l 2,2,3
 182 211 182 211 187 189.5 c 128,-1,4
 192 168 192 168 197 146.5 c 128,-1,5
 202 125 202 125 206 103 c 1,6,-1
 210 103 l 1,7,8
 214 130 214 130 222 163.5 c 128,-1,9
 230 197 230 197 240 233 c 2,10,-1
 323 537 l 1,11,-1
 409 537 l 1,12,-1
 229 -79 l 2,13,14
 213 -132 213 -132 191.5 -168 c 128,-1,15
 170 -204 170 -204 140.5 -222 c 128,-1,16
 111 -240 111 -240 70 -240 c 0,17,18
 54 -240 54 -240 40.5 -238 c 128,-1,19
 27 -236 27 -236 13 -232 c 1,20,-1
 13 -161 l 1,21,22
 23 -163 23 -163 35 -165 c 128,-1,23
 47 -167 47 -167 58 -167 c 0,24,25
 81 -167 81 -167 97 -157 c 128,-1,26
 113 -147 113 -147 125 -125 c 128,-1,27
 137 -103 137 -103 147 -67 c 2,28,-1
 167 2 l 1,29,-1
 3 537 l 1,0,-1
EndSplineSet
EndChar

StartChar: e
Encoding: 101 101 116
Width: 462
Flags: W
LayerCount: 2
Fore
SplineSet
238 546 m 0,0,1
 297 546 297 546 337 515 c 128,-1,2
 377 484 377 484 397.5 430 c 128,-1,3
 418 376 418 376 418 308 c 2,4,-1
 418 252 l 1,5,-1
 130 252 l 1,6,7
 132 157 132 157 165.5 109 c 128,-1,8
 199 61 199 61 264 61 c 0,9,10
 300 61 300 61 332 70 c 128,-1,11
 364 79 364 79 397 98 c 1,12,-1
 397 24 l 1,13,14
 365 7 365 7 331.5 -1.5 c 128,-1,15
 298 -10 298 -10 257 -10 c 0,16,17
 187 -10 187 -10 140 25 c 128,-1,18
 93 60 93 60 70 121.5 c 128,-1,19
 47 183 47 183 47 265 c 0,20,21
 47 355 47 355 69.5 417.5 c 128,-1,22
 92 480 92 480 135 513 c 128,-1,23
 178 546 178 546 238 546 c 0,0,1
238 478 m 0,24,25
 190 478 190 478 163 438 c 128,-1,26
 136 398 136 398 131 318 c 1,27,-1
 338 318 l 1,28,29
 338 363 338 363 327.5 399 c 128,-1,30
 317 435 317 435 294.5 456.5 c 128,-1,31
 272 478 272 478 238 478 c 0,24,25
EndSplineSet
EndChar

StartChar: eacute
Encoding: 233 233 117
Width: 337
Flags: W
LayerCount: 2
Fore
SplineSet
275 547 m 0,0,1
 287 547 287 547 300.5 545.5 c 128,-1,2
 314 544 314 544 326 540 c 1,3,-1
 314 457 l 1,4,5
 304 461 304 461 292.5 462.5 c 128,-1,6
 281 464 281 464 269 464 c 0,7,8
 245 464 245 464 224 450.5 c 128,-1,9
 203 437 203 437 187 412.5 c 128,-1,10
 171 388 171 388 162.5 354.5 c 128,-1,11
 154 321 154 321 154 282 c 2,12,-1
 154 0 l 1,13,-1
 71 0 l 1,14,-1
 71 537 l 1,15,-1
 137 537 l 1,16,-1
 147 443 l 1,17,-1
 152 443 l 1,18,19
 166 474 166 474 184 497.5 c 128,-1,20
 202 521 202 521 225 534 c 128,-1,21
 248 547 248 547 275 547 c 0,0,1
EndSplineSet
EndChar

StartChar: ecircumflex
Encoding: 234 234 118
Width: 381
Flags: W
LayerCount: 2
Fore
SplineSet
345 145 m 0,0,1
 345 95 345 95 324.5 60.5 c 128,-1,2
 304 26 304 26 266 8 c 128,-1,3
 228 -10 228 -10 174 -10 c 0,4,5
 132 -10 132 -10 98 -1.5 c 128,-1,6
 64 7 64 7 39 21 c 1,7,-1
 39 104 l 1,8,9
 64 87 64 87 100 74.5 c 128,-1,10
 136 62 136 62 173 62 c 0,11,12
 218 62 218 62 241 83 c 128,-1,13
 264 104 264 104 264 141 c 0,14,15
 264 161 264 161 255 177.5 c 128,-1,16
 246 194 246 194 224.5 209.5 c 128,-1,17
 203 225 203 225 167 243 c 0,18,19
 128 263 128 263 99 284.5 c 128,-1,20
 70 306 70 306 54 335 c 128,-1,21
 38 364 38 364 38 405 c 0,22,23
 38 471 38 471 84 509 c 128,-1,24
 130 547 130 547 204 547 c 0,25,26
 243 547 243 547 276.5 537.5 c 128,-1,27
 310 528 310 528 341 511 c 1,28,-1
 311 445 l 1,29,30
 286 459 286 459 259 468 c 128,-1,31
 232 477 232 477 203 477 c 0,32,33
 163 477 163 477 140.5 458.5 c 128,-1,34
 118 440 118 440 118 408 c 0,35,36
 118 387 118 387 127.5 371 c 128,-1,37
 137 355 137 355 159.5 340.5 c 128,-1,38
 182 326 182 326 219 307 c 0,39,40
 257 287 257 287 285.5 265.5 c 128,-1,41
 314 244 314 244 329.5 215.5 c 128,-1,42
 345 187 345 187 345 145 c 0,0,1
EndSplineSet
EndChar

StartChar: edieresis
Encoding: 235 235 119
Width: 290
Flags: W
LayerCount: 2
Fore
SplineSet
217 62 m 0,0,1
 231 62 231 62 246 65 c 128,-1,2
 261 68 261 68 273 72 c 1,3,-1
 273 6 l 1,4,5
 258 -1 258 -1 237.5 -5.5 c 128,-1,6
 217 -10 217 -10 194 -10 c 0,7,8
 157 -10 157 -10 130 5.5 c 128,-1,9
 103 21 103 21 88.5 54 c 128,-1,10
 74 87 74 87 74 140 c 2,11,-1
 74 469 l 1,12,-1
 17 469 l 1,13,-1
 17 512 l 1,14,-1
 78 538 l 1,15,-1
 103 658 l 1,16,-1
 158 658 l 1,17,-1
 158 537 l 1,18,-1
 267 537 l 1,19,-1
 267 469 l 1,20,-1
 158 469 l 1,21,-1
 158 147 l 2,22,23
 158 105 158 105 172 83.5 c 128,-1,24
 186 62 186 62 217 62 c 0,0,1
EndSplineSet
EndChar

StartChar: egrave
Encoding: 232 232 120
Width: 508
Flags: W
LayerCount: 2
Fore
SplineSet
354 -16 m 2,0,1
 354 1 354 1 355 24.5 c 128,-1,2
 356 48 356 48 359 74 c 1,3,-1
 354 74 l 1,4,5
 332 34 332 34 299 12 c 128,-1,6
 266 -10 266 -10 219 -10 c 0,7,8
 139 -10 139 -10 92.5 60 c 128,-1,9
 46 130 46 130 46 266 c 0,10,11
 46 359 46 359 67.5 421.5 c 128,-1,12
 89 484 89 484 128.5 515.5 c 128,-1,13
 168 547 168 547 222 547 c 0,14,15
 268 547 268 547 299.5 526.5 c 128,-1,16
 331 506 331 506 354 465 c 1,17,-1
 359 465 l 1,18,-1
 369 537 l 1,19,-1
 438 537 l 1,20,-1
 438 -240 l 1,21,-1
 354 -240 l 1,22,-1
 354 -16 l 2,0,1
240 62 m 0,23,24
 279 62 279 62 304.5 82 c 128,-1,25
 330 102 330 102 342 143.5 c 128,-1,26
 354 185 354 185 355 246 c 2,27,-1
 355 269 l 2,28,29
 355 374 355 374 328 424 c 128,-1,30
 301 474 301 474 238 474 c 0,31,32
 183 474 183 474 157 420 c 128,-1,33
 131 366 131 366 131 265 c 0,34,35
 131 162 131 162 158 112 c 128,-1,36
 185 62 185 62 240 62 c 0,23,24
EndSplineSet
EndChar

StartChar: f
Encoding: 102 102 121
Width: 280
Flags: W
LayerCount: 2
Fore
SplineSet
268 469 m 1,0,-1
 168 469 l 1,1,-1
 168 0 l 1,2,-1
 84 0 l 1,3,-1
 84 469 l 1,4,-1
 11 469 l 1,5,-1
 11 511 l 1,6,-1
 84 540 l 1,7,-1
 84 571 l 2,8,9
 84 635 84 635 97.5 678 c 128,-1,10
 111 721 111 721 142 743 c 128,-1,11
 173 765 173 765 222 765 c 0,12,13
 247 765 247 765 268 760.5 c 128,-1,14
 289 756 289 756 309 748 c 1,15,-1
 288 682 l 1,16,17
 274 687 274 687 259 690.5 c 128,-1,18
 244 694 244 694 229 694 c 0,19,20
 196 694 196 694 182 667 c 128,-1,21
 168 640 168 640 168 573 c 2,22,-1
 168 537 l 1,23,-1
 268 537 l 1,24,-1
 268 469 l 1,0,-1
EndSplineSet
EndChar

StartChar: g
Encoding: 103 103 122
Width: 508
Flags: W
LayerCount: 2
Fore
SplineSet
222 547 m 0,0,1
 264 547 264 547 297 527.5 c 128,-1,2
 330 508 330 508 354 466 c 1,3,-1
 359 466 l 1,4,-1
 369 537 l 1,5,-1
 438 537 l 1,6,-1
 438 -7 l 2,7,8
 438 -81 438 -81 415.5 -133.5 c 128,-1,9
 393 -186 393 -186 345.5 -213 c 128,-1,10
 298 -240 298 -240 223 -240 c 0,11,12
 180 -240 180 -240 144 -232 c 128,-1,13
 108 -224 108 -224 77 -208 c 1,14,-1
 77 -130 l 1,15,16
 112 -149 112 -149 148.5 -158.5 c 128,-1,17
 185 -168 185 -168 224 -168 c 0,18,19
 288 -168 288 -168 321.5 -133 c 128,-1,20
 355 -98 355 -98 355 -22 c 2,21,-1
 355 -5 l 2,22,23
 355 11 355 11 356 32.5 c 128,-1,24
 357 54 357 54 358 74 c 1,25,-1
 354 74 l 1,26,27
 331 31 331 31 298 10.5 c 128,-1,28
 265 -10 265 -10 220 -10 c 0,29,30
 138 -10 138 -10 92 61 c 128,-1,31
 46 132 46 132 46 266 c 0,32,33
 46 403 46 403 93 475 c 128,-1,34
 140 547 140 547 222 547 c 0,0,1
237 474 m 0,35,36
 202 474 202 474 178 450 c 128,-1,37
 154 426 154 426 142.5 379.5 c 128,-1,38
 131 333 131 333 131 265 c 0,39,40
 131 161 131 161 158 111 c 128,-1,41
 185 61 185 61 240 61 c 0,42,43
 269 61 269 61 290.5 72.5 c 128,-1,44
 312 84 312 84 326.5 106.5 c 128,-1,45
 341 129 341 129 348 164 c 128,-1,46
 355 199 355 199 355 245 c 2,47,-1
 355 269 l 2,48,49
 355 341 355 341 342.5 386 c 128,-1,50
 330 431 330 431 304 452.5 c 128,-1,51
 278 474 278 474 237 474 c 0,35,36
EndSplineSet
EndChar

StartChar: h
Encoding: 104 104 123
Width: 505
Flags: W
LayerCount: 2
Fore
SplineSet
154 543 m 2,0,1
 154 522 154 522 152.5 502 c 128,-1,2
 151 482 151 482 148 464 c 1,3,-1
 154 464 l 1,4,5
 166 491 166 491 186.5 509 c 128,-1,6
 207 527 207 527 232 536.5 c 128,-1,7
 257 546 257 546 285 546 c 0,8,9
 337 546 337 546 370 525.5 c 128,-1,10
 403 505 403 505 419.5 463.5 c 128,-1,11
 436 422 436 422 436 360 c 2,12,-1
 436 0 l 1,13,-1
 353 0 l 1,14,-1
 353 347 l 2,15,16
 353 414 353 414 333.5 443.5 c 128,-1,17
 314 473 314 473 270 473 c 0,18,19
 228 473 228 473 202.5 452 c 128,-1,20
 177 431 177 431 165.5 387.5 c 128,-1,21
 154 344 154 344 154 278 c 2,22,-1
 154 0 l 1,23,-1
 71 0 l 1,24,-1
 71 760 l 1,25,-1
 154 760 l 1,26,-1
 154 543 l 2,0,1
EndSplineSet
EndChar

StartChar: i
Encoding: 105 105 124
Width: 225
Flags: W
LayerCount: 2
Fore
SplineSet
154 537 m 1,0,-1
 154 0 l 1,1,-1
 71 0 l 1,2,-1
 71 537 l 1,3,-1
 154 537 l 1,0,-1
114 738 m 0,4,5
 136 738 136 738 148.5 723.5 c 128,-1,6
 161 709 161 709 161 681 c 0,7,8
 161 654 161 654 148.5 639 c 128,-1,9
 136 624 136 624 114 624 c 256,10,11
 92 624 92 624 78.5 639 c 128,-1,12
 65 654 65 654 65 681 c 0,13,14
 65 710 65 710 78 724 c 128,-1,15
 91 738 91 738 114 738 c 0,4,5
EndSplineSet
Substitution2: "Single Substitution lookup 193 subtable" dotlessi
Substitution2: "Single Substitution lookup 192 subtable" dotlessi
EndChar

StartChar: iacute
Encoding: 237 237 125
Width: 411
Flags: W
LayerCount: 2
Fore
SplineSet
158 0 m 1,0,-1
 3 537 l 1,1,-1
 89 537 l 1,2,-1
 174 219 l 2,3,4
 180 198 180 198 185.5 175.5 c 128,-1,5
 191 153 191 153 195.5 131 c 128,-1,6
 200 109 200 109 203 89 c 1,7,-1
 207 89 l 1,8,9
 209 102 209 102 213 120.5 c 128,-1,10
 217 139 217 139 222.5 160.5 c 128,-1,11
 228 182 228 182 233 204 c 2,12,-1
 322 537 l 1,13,-1
 409 537 l 1,14,-1
 251 0 l 1,15,-1
 158 0 l 1,0,-1
EndSplineSet
EndChar

StartChar: icircumflex
Encoding: 238 238 126
Width: 659
Flags: W
LayerCount: 2
Fore
SplineSet
355 318 m 2,0,1
 351 335 351 335 347.5 351.5 c 128,-1,2
 344 368 344 368 341 384.5 c 128,-1,3
 338 401 338 401 335.5 415.5 c 128,-1,4
 333 430 333 430 331 444 c 1,5,-1
 328 444 l 1,6,7
 326 430 326 430 323.5 414.5 c 128,-1,8
 321 399 321 399 318 383 c 128,-1,9
 315 367 315 367 311.5 350.5 c 128,-1,10
 308 334 308 334 304 318 c 2,11,-1
 229 0 l 1,12,-1
 134 0 l 1,13,-1
 10 537 l 1,14,-1
 94 537 l 1,15,-1
 154 264 l 2,16,17
 159 236 159 236 165 207 c 128,-1,18
 171 178 171 178 175.5 150 c 128,-1,19
 180 122 180 122 184 96 c 1,20,-1
 187 96 l 1,21,22
 189 112 189 112 192.5 131 c 128,-1,23
 196 150 196 150 199.5 171 c 128,-1,24
 203 192 203 192 207.5 213 c 128,-1,25
 212 234 212 234 217 256 c 2,26,-1
 284 537 l 1,27,-1
 376 537 l 1,28,-1
 442 255 l 2,29,30
 447 236 447 236 452.5 210.5 c 128,-1,31
 458 185 458 185 463 156 c 128,-1,32
 468 127 468 127 472 96 c 1,33,-1
 475 96 l 1,34,35
 477 110 477 110 480 130 c 128,-1,36
 483 150 483 150 488 174 c 128,-1,37
 493 198 493 198 498 224 c 2,38,-1
 567 537 l 1,39,-1
 650 537 l 1,40,-1
 522 0 l 1,41,-1
 426 0 l 1,42,-1
 355 318 l 2,0,1
EndSplineSet
EndChar

StartChar: idieresis
Encoding: 239 239 127
Width: 420
Flags: W
LayerCount: 2
Fore
SplineSet
162 276 m 1,0,-1
 23 537 l 1,1,-1
 114 537 l 1,2,-1
 211 340 l 1,3,-1
 309 537 l 1,4,-1
 399 537 l 1,5,-1
 259 273 l 1,6,-1
 405 0 l 1,7,-1
 315 0 l 1,8,-1
 210 209 l 1,9,-1
 104 0 l 1,10,-1
 15 0 l 1,11,-1
 162 276 l 1,0,-1
EndSplineSet
EndChar

StartChar: igrave
Encoding: 236 236 128
Width: 505
Flags: W
LayerCount: 2
Fore
SplineSet
434 537 m 1,0,-1
 434 0 l 1,1,-1
 366 0 l 1,2,-1
 356 72 l 1,3,-1
 351 72 l 1,4,5
 338 45 338 45 317.5 26.5 c 128,-1,6
 297 8 297 8 272 -1 c 128,-1,7
 247 -10 247 -10 219 -10 c 0,8,9
 166 -10 166 -10 132.5 13.5 c 128,-1,10
 99 37 99 37 83.5 80.5 c 128,-1,11
 68 124 68 124 68 186 c 2,12,-1
 68 537 l 1,13,-1
 151 537 l 1,14,-1
 151 199 l 2,15,16
 151 130 151 130 171 96.5 c 128,-1,17
 191 63 191 63 233 63 c 0,18,19
 277 63 277 63 302.5 84 c 128,-1,20
 328 105 328 105 339 147 c 128,-1,21
 350 189 350 189 350 253 c 2,22,-1
 350 537 l 1,23,-1
 434 537 l 1,0,-1
EndSplineSet
EndChar

StartChar: j
Encoding: 106 106 129
Width: 225
Flags: W
LayerCount: 2
Fore
SplineSet
32 -240 m 0,0,1
 15 -240 15 -240 0.5 -237 c 128,-1,2
 -14 -234 -14 -234 -26 -230 c 1,3,-1
 -26 -158 l 1,4,5
 -15 -162 -15 -162 -4 -164.5 c 128,-1,6
 7 -167 7 -167 19 -167 c 0,7,8
 44 -167 44 -167 57.5 -147.5 c 128,-1,9
 71 -128 71 -128 71 -83 c 2,10,-1
 71 537 l 1,11,-1
 154 537 l 1,12,-1
 154 -81 l 2,13,14
 154 -134 154 -134 140.5 -169.5 c 128,-1,15
 127 -205 127 -205 100 -222 c 128,-1,16
 73 -239 73 -239 32 -240 c 0,0,1
65 681 m 0,17,18
 65 710 65 710 78 724 c 128,-1,19
 91 738 91 738 114 738 c 0,20,21
 136 738 136 738 148.5 723.5 c 128,-1,22
 161 709 161 709 161 681 c 0,23,24
 161 654 161 654 148.5 639 c 128,-1,25
 136 624 136 624 114 624 c 256,26,27
 92 624 92 624 78.5 639 c 128,-1,28
 65 654 65 654 65 681 c 0,17,18
EndSplineSet
Substitution2: "Single Substitution lookup 193 subtable" uni0237
Substitution2: "Single Substitution lookup 192 subtable" uni0237
EndChar

StartChar: k
Encoding: 107 107 130
Width: 439
Flags: W
LayerCount: 2
Fore
SplineSet
154 377 m 2,0,1
 154 353 154 353 152.5 326.5 c 128,-1,2
 151 300 151 300 149 276 c 1,3,-1
 153 276 l 1,4,5
 159 286 159 286 166.5 298 c 128,-1,6
 174 310 174 310 181.5 322 c 128,-1,7
 189 334 189 334 196 343 c 2,8,-1
 331 537 l 1,9,-1
 423 537 l 1,10,-1
 267 323 l 1,11,-1
 434 0 l 1,12,-1
 341 0 l 1,13,-1
 211 261 l 1,14,-1
 154 198 l 1,15,-1
 154 0 l 1,16,-1
 71 0 l 1,17,-1
 71 760 l 1,18,-1
 154 760 l 1,19,-1
 154 377 l 2,0,1
EndSplineSet
EndChar

StartChar: l
Encoding: 108 108 131
Width: 224
Flags: W
LayerCount: 2
Fore
SplineSet
154 0 m 1,0,-1
 71 0 l 1,1,-1
 71 760 l 1,2,-1
 154 760 l 1,3,-1
 154 0 l 1,0,-1
EndSplineSet
EndChar

StartChar: m
Encoding: 109 109 132
Width: 758
Flags: W
LayerCount: 2
Fore
SplineSet
547 547 m 0,0,1
 620 547 620 547 654.5 500.5 c 128,-1,2
 689 454 689 454 689 357 c 2,3,-1
 689 0 l 1,4,-1
 607 0 l 1,5,-1
 607 345 l 2,6,7
 607 413 607 413 587 443.5 c 128,-1,8
 567 474 567 474 526 474 c 0,9,10
 469 474 469 474 445 428.5 c 128,-1,11
 421 383 421 383 421 296 c 2,12,-1
 421 0 l 1,13,-1
 339 0 l 1,14,-1
 339 347 l 2,15,16
 339 392 339 392 330 420 c 128,-1,17
 321 448 321 448 303.5 461 c 128,-1,18
 286 474 286 474 259 474 c 0,19,20
 217 474 217 474 194.5 450 c 128,-1,21
 172 426 172 426 163 382.5 c 128,-1,22
 154 339 154 339 154 280 c 2,23,-1
 154 0 l 1,24,-1
 71 0 l 1,25,-1
 71 537 l 1,26,-1
 138 537 l 1,27,-1
 148 464 l 1,28,-1
 153 464 l 1,29,30
 166 492 166 492 185 510 c 128,-1,31
 204 528 204 528 228 537.5 c 128,-1,32
 252 547 252 547 281 547 c 0,33,34
 332 547 332 547 363 523.5 c 128,-1,35
 394 500 394 500 406 460 c 1,36,-1
 412 460 l 1,37,38
 433 504 433 504 467 525.5 c 128,-1,39
 501 547 501 547 547 547 c 0,0,1
EndSplineSet
EndChar

StartChar: n
Encoding: 110 110 133
Width: 505
Flags: W
LayerCount: 2
Fore
SplineSet
286 547 m 0,0,1
 361 547 361 547 398.5 501.5 c 128,-1,2
 436 456 436 456 436 360 c 2,3,-1
 436 0 l 1,4,-1
 353 0 l 1,5,-1
 353 347 l 2,6,7
 353 410 353 410 333.5 442 c 128,-1,8
 314 474 314 474 270 474 c 0,9,10
 207 474 207 474 180.5 427 c 128,-1,11
 154 380 154 380 154 279 c 2,12,-1
 154 0 l 1,13,-1
 71 0 l 1,14,-1
 71 537 l 1,15,-1
 138 537 l 1,16,-1
 148 464 l 1,17,-1
 153 464 l 1,18,19
 167 491 167 491 187 509.5 c 128,-1,20
 207 528 207 528 233 537.5 c 128,-1,21
 259 547 259 547 286 547 c 0,0,1
EndSplineSet
EndChar

StartChar: ntilde
Encoding: 241 241 134
Width: 353
Flags: W
LayerCount: 2
Fore
SplineSet
327 0 m 1,0,-1
 29 0 l 1,1,-1
 29 56 l 1,2,-1
 228 468 l 1,3,-1
 41 468 l 1,4,-1
 41 537 l 1,5,-1
 320 537 l 1,6,-1
 320 476 l 1,7,-1
 122 69 l 1,8,-1
 327 69 l 1,9,-1
 327 0 l 1,0,-1
EndSplineSet
EndChar

StartChar: o
Encoding: 111 111 135
Width: 493
Flags: W
LayerCount: 2
Fore
SplineSet
447 269 m 0,0,1
 447 205 447 205 434 154 c 128,-1,2
 421 103 421 103 396 66 c 128,-1,3
 371 29 371 29 333 9.5 c 128,-1,4
 295 -10 295 -10 245 -10 c 0,5,6
 198 -10 198 -10 161 9.5 c 128,-1,7
 124 29 124 29 98 65.5 c 128,-1,8
 72 102 72 102 59 153.5 c 128,-1,9
 46 205 46 205 46 269 c 0,10,11
 46 358 46 358 68.5 420 c 128,-1,12
 91 482 91 482 136 514.5 c 128,-1,13
 181 547 181 547 247 547 c 0,14,15
 309 547 309 547 354 515 c 128,-1,16
 399 483 399 483 423 421.5 c 128,-1,17
 447 360 447 360 447 269 c 0,0,1
131 269 m 0,18,19
 131 202 131 202 143.5 155.5 c 128,-1,20
 156 109 156 109 181.5 85.5 c 128,-1,21
 207 62 207 62 247 62 c 256,22,23
 287 62 287 62 312.5 85.5 c 128,-1,24
 338 109 338 109 350.5 155.5 c 128,-1,25
 363 202 363 202 363 269 c 0,26,27
 363 337 363 337 350.5 382.5 c 128,-1,28
 338 428 338 428 312.5 451.5 c 128,-1,29
 287 475 287 475 247 475 c 0,30,31
 186 475 186 475 158.5 422.5 c 128,-1,32
 131 370 131 370 131 269 c 0,18,19
EndSplineSet
EndChar

StartChar: oacute
Encoding: 243 243 136
Width: 472
Flags: W
LayerCount: 2
Fore
SplineSet
36 308 m 1,0,-1
 36 377 l 1,1,-1
 435 377 l 1,2,-1
 435 308 l 1,3,-1
 36 308 l 1,0,-1
237 105 m 0,4,5
 212 105 212 105 198 120 c 128,-1,6
 184 135 184 135 184 166 c 0,7,8
 184 198 184 198 198 213 c 128,-1,9
 212 228 212 228 237 228 c 0,10,11
 260 228 260 228 273.5 213 c 128,-1,12
 287 198 287 198 287 166 c 0,13,14
 287 135 287 135 273 120 c 128,-1,15
 259 105 259 105 237 105 c 0,4,5
237 457 m 0,16,17
 212 457 212 457 198 472 c 128,-1,18
 184 487 184 487 184 519 c 256,19,20
 184 551 184 551 198 565.5 c 128,-1,21
 212 580 212 580 237 580 c 0,22,23
 260 580 260 580 273.5 565.5 c 128,-1,24
 287 551 287 551 287 519 c 256,25,26
 287 487 287 487 273 472 c 128,-1,27
 259 457 259 457 237 457 c 0,16,17
EndSplineSet
EndChar

StartChar: ocircumflex
Encoding: 244 244 137
Width: 472
Flags: W
LayerCount: 2
Fore
SplineSet
283 724 m 0,0,1
 324 724 324 724 359 713 c 128,-1,2
 394 702 394 702 424 682 c 1,3,-1
 393 615 l 1,4,5
 367 631 367 631 341 640 c 128,-1,6
 315 649 315 649 286 649 c 0,7,8
 243 649 243 649 223 621.5 c 128,-1,9
 203 594 203 594 203 533 c 2,10,-1
 203 390 l 1,11,-1
 350 390 l 1,12,-1
 350 324 l 1,13,-1
 203 324 l 1,14,-1
 203 213 l 2,15,16
 203 179 203 179 195.5 153 c 128,-1,17
 188 127 188 127 174 108.5 c 128,-1,18
 160 90 160 90 140 77 c 1,19,-1
 433 77 l 1,20,-1
 433 0 l 1,21,-1
 40 0 l 1,22,-1
 40 71 l 1,23,24
 65 81 65 81 82 99.5 c 128,-1,25
 99 118 99 118 108.5 145.5 c 128,-1,26
 118 173 118 173 118 212 c 2,27,-1
 118 324 l 1,28,-1
 39 324 l 1,29,-1
 39 390 l 1,30,-1
 118 390 l 1,31,-1
 118 535 l 2,32,33
 118 598 118 598 137 640 c 128,-1,34
 156 682 156 682 193 703 c 128,-1,35
 230 724 230 724 283 724 c 0,0,1
EndSplineSet
EndChar

StartChar: odieresis
Encoding: 246 246 138
Width: 459
Flags: W
LayerCount: 2
Fore
SplineSet
234 608 m 0
 185 608 185 608 156.5 635.5 c 0
 128 663 128 663 128 710 c 256
 128 757 128 757 156.5 784.5 c 0
 185 812 185 812 234 812 c 0
 280 812 280 812 310.5 785 c 0
 341 758 341 758 341 712 c 0
 341 664 341 664 311.5 636 c 0
 282 608 282 608 234 608 c 0
235 657 m 0
 258 657 258 657 273.5 671.5 c 0
 289 686 289 686 289 710 c 256
 289 734 289 734 274.5 749 c 0
 260 764 260 764 235 764 c 0
 211 764 211 764 195.5 749 c 0
 180 734 180 734 180 710 c 256
 180 686 180 686 194 671.5 c 0
 208 657 208 657 235 657 c 0
EndSplineSet
Refer: 103 97 N 1 0 0 1 0 0 3
EndChar

StartChar: oslash
Encoding: 248 248 140
Width: 472
Flags: W
LayerCount: 2
Fore
SplineSet
283 724 m 0,0,1
 324 724 324 724 359 713 c 128,-1,2
 394 702 394 702 424 682 c 1,3,-1
 393 615 l 1,4,5
 367 631 367 631 341 640 c 128,-1,6
 315 649 315 649 286 649 c 0,7,8
 243 649 243 649 223 621.5 c 128,-1,9
 203 594 203 594 203 533 c 2,10,-1
 203 390 l 1,11,-1
 350 390 l 1,12,-1
 350 324 l 1,13,-1
 203 324 l 1,14,-1
 203 213 l 2,15,16
 203 179 203 179 195.5 153 c 128,-1,17
 188 127 188 127 174 108.5 c 128,-1,18
 160 90 160 90 140 77 c 1,19,-1
 433 77 l 1,20,-1
 433 0 l 1,21,-1
 40 0 l 1,22,-1
 40 71 l 1,23,24
 65 81 65 81 82 99.5 c 128,-1,25
 99 118 99 118 108.5 145.5 c 128,-1,26
 118 173 118 173 118 212 c 2,27,-1
 118 324 l 1,28,-1
 39 324 l 1,29,-1
 39 390 l 1,30,-1
 118 390 l 1,31,-1
 118 535 l 2,32,33
 118 598 118 598 137 640 c 128,-1,34
 156 682 156 682 193 703 c 128,-1,35
 230 724 230 724 283 724 c 0,0,1
EndSplineSet
EndChar

StartChar: otilde
Encoding: 245 245 141
Width: 487
Flags: W
LayerCount: 2
Fore
SplineSet
452 383 m 0,0,1
 452 331 452 331 439.5 289 c 128,-1,2
 427 247 427 247 399.5 217 c 128,-1,3
 372 187 372 187 328.5 170.5 c 128,-1,4
 285 154 285 154 223 154 c 2,5,-1
 166 154 l 1,6,-1
 166 0 l 1,7,-1
 80 0 l 1,8,-1
 80 714 l 1,9,-1
 166 714 l 1,10,-1
 166 590 l 1,11,-1
 228 590 l 2,12,13
 345 590 345 590 398.5 537.5 c 128,-1,14
 452 485 452 485 452 383 c 0,0,1
215 230 m 2,15,16
 269 230 269 230 302 245.5 c 128,-1,17
 335 261 335 261 350 293.5 c 128,-1,18
 365 326 365 326 365 378 c 0,19,20
 365 449 365 449 331.5 481.5 c 128,-1,21
 298 514 298 514 225 514 c 2,22,-1
 166 514 l 1,23,-1
 166 230 l 1,24,-1
 215 230 l 2,15,16
EndSplineSet
EndChar

StartChar: p
Encoding: 112 112 142
Width: 508
Flags: W
LayerCount: 2
Fore
SplineSet
286 547 m 0,0,1
 370 547 370 547 416.5 477.5 c 128,-1,2
 463 408 463 408 463 269 c 0,3,4
 463 180 463 180 442 117.5 c 128,-1,5
 421 55 421 55 382.5 22.5 c 128,-1,6
 344 -10 344 -10 289 -10 c 0,7,8
 259 -10 259 -10 233 0 c 128,-1,9
 207 10 207 10 187.5 28 c 128,-1,10
 168 46 168 46 154 71 c 1,11,-1
 149 71 l 1,12,13
 151 51 151 51 152.5 30.5 c 128,-1,14
 154 10 154 10 154 -6 c 2,15,-1
 154 -240 l 1,16,-1
 71 -240 l 1,17,-1
 71 537 l 1,18,-1
 139 537 l 1,19,-1
 149 464 l 1,20,-1
 154 464 l 1,21,22
 169 491 169 491 188.5 509.5 c 128,-1,23
 208 528 208 528 232 537.5 c 128,-1,24
 256 547 256 547 286 547 c 0,0,1
269 476 m 0,25,26
 229 476 229 476 204 455.5 c 128,-1,27
 179 435 179 435 166.5 392.5 c 128,-1,28
 154 350 154 350 154 285 c 2,29,-1
 154 266 l 2,30,31
 154 197 154 197 166 151.5 c 128,-1,32
 178 106 178 106 203.5 84 c 128,-1,33
 229 62 229 62 270 62 c 0,34,35
 306 62 306 62 330 85.5 c 128,-1,36
 354 109 354 109 365.5 155.5 c 128,-1,37
 377 202 377 202 377 269 c 0,38,39
 377 369 377 369 351.5 422.5 c 128,-1,40
 326 476 326 476 269 476 c 0,25,26
EndSplineSet
EndChar

StartChar: q
Encoding: 113 113 143
Width: 508
Flags: W
LayerCount: 2
Fore
SplineSet
354 -16 m 2,0,1
 354 1 354 1 355 24.5 c 128,-1,2
 356 48 356 48 359 74 c 1,3,-1
 354 74 l 1,4,5
 332 34 332 34 299 12 c 128,-1,6
 266 -10 266 -10 219 -10 c 0,7,8
 139 -10 139 -10 92.5 60 c 128,-1,9
 46 130 46 130 46 266 c 0,10,11
 46 359 46 359 67.5 421.5 c 128,-1,12
 89 484 89 484 128.5 515.5 c 128,-1,13
 168 547 168 547 222 547 c 0,14,15
 268 547 268 547 299.5 526.5 c 128,-1,16
 331 506 331 506 354 465 c 1,17,-1
 359 465 l 1,18,-1
 369 537 l 1,19,-1
 438 537 l 1,20,-1
 438 -240 l 1,21,-1
 354 -240 l 1,22,-1
 354 -16 l 2,0,1
240 62 m 0,23,24
 279 62 279 62 304.5 82 c 128,-1,25
 330 102 330 102 342 143.5 c 128,-1,26
 354 185 354 185 355 246 c 2,27,-1
 355 269 l 2,28,29
 355 374 355 374 328 424 c 128,-1,30
 301 474 301 474 238 474 c 0,31,32
 183 474 183 474 157 420 c 128,-1,33
 131 366 131 366 131 265 c 0,34,35
 131 162 131 162 158 112 c 128,-1,36
 185 62 185 62 240 62 c 0,23,24
EndSplineSet
EndChar

StartChar: r
Encoding: 114 114 144
Width: 337
Flags: W
LayerCount: 2
Fore
SplineSet
275 547 m 0,0,1
 287 547 287 547 300.5 545.5 c 128,-1,2
 314 544 314 544 326 540 c 1,3,-1
 314 457 l 1,4,5
 304 461 304 461 292.5 462.5 c 128,-1,6
 281 464 281 464 269 464 c 0,7,8
 245 464 245 464 224 450.5 c 128,-1,9
 203 437 203 437 187 412.5 c 128,-1,10
 171 388 171 388 162.5 354.5 c 128,-1,11
 154 321 154 321 154 282 c 2,12,-1
 154 0 l 1,13,-1
 71 0 l 1,14,-1
 71 537 l 1,15,-1
 137 537 l 1,16,-1
 147 443 l 1,17,-1
 152 443 l 1,18,19
 166 474 166 474 184 497.5 c 128,-1,20
 202 521 202 521 225 534 c 128,-1,21
 248 547 248 547 275 547 c 0,0,1
EndSplineSet
EndChar

StartChar: s
Encoding: 115 115 145
Width: 381
Flags: W
LayerCount: 2
Fore
SplineSet
345 145 m 0,0,1
 345 95 345 95 324.5 60.5 c 128,-1,2
 304 26 304 26 266 8 c 128,-1,3
 228 -10 228 -10 174 -10 c 0,4,5
 132 -10 132 -10 98 -1.5 c 128,-1,6
 64 7 64 7 39 21 c 1,7,-1
 39 104 l 1,8,9
 64 87 64 87 100 74.5 c 128,-1,10
 136 62 136 62 173 62 c 0,11,12
 218 62 218 62 241 83 c 128,-1,13
 264 104 264 104 264 141 c 0,14,15
 264 161 264 161 255 177.5 c 128,-1,16
 246 194 246 194 224.5 209.5 c 128,-1,17
 203 225 203 225 167 243 c 0,18,19
 128 263 128 263 99 284.5 c 128,-1,20
 70 306 70 306 54 335 c 128,-1,21
 38 364 38 364 38 405 c 0,22,23
 38 471 38 471 84 509 c 128,-1,24
 130 547 130 547 204 547 c 0,25,26
 243 547 243 547 276.5 537.5 c 128,-1,27
 310 528 310 528 341 511 c 1,28,-1
 311 445 l 1,29,30
 286 459 286 459 259 468 c 128,-1,31
 232 477 232 477 203 477 c 0,32,33
 163 477 163 477 140.5 458.5 c 128,-1,34
 118 440 118 440 118 408 c 0,35,36
 118 387 118 387 127.5 371 c 128,-1,37
 137 355 137 355 159.5 340.5 c 128,-1,38
 182 326 182 326 219 307 c 0,39,40
 257 287 257 287 285.5 265.5 c 128,-1,41
 314 244 314 244 329.5 215.5 c 128,-1,42
 345 187 345 187 345 145 c 0,0,1
EndSplineSet
EndChar

StartChar: germandbls
Encoding: 223 223 146
Width: 505
Flags: W
LayerCount: 2
Fore
SplineSet
154 543 m 2,0,1
 154 522 154 522 152.5 502 c 128,-1,2
 151 482 151 482 148 464 c 1,3,-1
 154 464 l 1,4,5
 166 491 166 491 186.5 509 c 128,-1,6
 207 527 207 527 232 536.5 c 128,-1,7
 257 546 257 546 285 546 c 0,8,9
 337 546 337 546 370 525.5 c 128,-1,10
 403 505 403 505 419.5 463.5 c 128,-1,11
 436 422 436 422 436 360 c 2,12,-1
 436 0 l 1,13,-1
 353 0 l 1,14,-1
 353 347 l 2,15,16
 353 414 353 414 333.5 443.5 c 128,-1,17
 314 473 314 473 270 473 c 0,18,19
 228 473 228 473 202.5 452 c 128,-1,20
 177 431 177 431 165.5 387.5 c 128,-1,21
 154 344 154 344 154 278 c 2,22,-1
 154 0 l 1,23,-1
 71 0 l 1,24,-1
 71 760 l 1,25,-1
 154 760 l 1,26,-1
 154 543 l 2,0,1
EndSplineSet
EndChar

StartChar: t
Encoding: 116 116 147
Width: 290
Flags: W
LayerCount: 2
Fore
SplineSet
217 62 m 0,0,1
 231 62 231 62 246 65 c 128,-1,2
 261 68 261 68 273 72 c 1,3,-1
 273 6 l 1,4,5
 258 -1 258 -1 237.5 -5.5 c 128,-1,6
 217 -10 217 -10 194 -10 c 0,7,8
 157 -10 157 -10 130 5.5 c 128,-1,9
 103 21 103 21 88.5 54 c 128,-1,10
 74 87 74 87 74 140 c 2,11,-1
 74 469 l 1,12,-1
 17 469 l 1,13,-1
 17 512 l 1,14,-1
 78 538 l 1,15,-1
 103 658 l 1,16,-1
 158 658 l 1,17,-1
 158 537 l 1,18,-1
 267 537 l 1,19,-1
 267 469 l 1,20,-1
 158 469 l 1,21,-1
 158 147 l 2,22,23
 158 105 158 105 172 83.5 c 128,-1,24
 186 62 186 62 217 62 c 0,0,1
EndSplineSet
EndChar

StartChar: u
Encoding: 117 117 148
Width: 505
Flags: W
LayerCount: 2
Fore
SplineSet
434 537 m 1,0,-1
 434 0 l 1,1,-1
 366 0 l 1,2,-1
 356 72 l 1,3,-1
 351 72 l 1,4,5
 338 45 338 45 317.5 26.5 c 128,-1,6
 297 8 297 8 272 -1 c 128,-1,7
 247 -10 247 -10 219 -10 c 0,8,9
 166 -10 166 -10 132.5 13.5 c 128,-1,10
 99 37 99 37 83.5 80.5 c 128,-1,11
 68 124 68 124 68 186 c 2,12,-1
 68 537 l 1,13,-1
 151 537 l 1,14,-1
 151 199 l 2,15,16
 151 130 151 130 171 96.5 c 128,-1,17
 191 63 191 63 233 63 c 0,18,19
 277 63 277 63 302.5 84 c 128,-1,20
 328 105 328 105 339 147 c 128,-1,21
 350 189 350 189 350 253 c 2,22,-1
 350 537 l 1,23,-1
 434 537 l 1,0,-1
EndSplineSet
EndChar

StartChar: uacute
Encoding: 250 250 149
Width: 680
Flags: W
LayerCount: 2
Fore
SplineSet
558 -7 m 1,0,1
 538 -7 538 -7 519 0 c 128,-1,2
 500 7 500 7 486 24 c 1,3,-1
 486 197 l 1,4,5
 458 172 458 172 421 156.5 c 128,-1,6
 384 141 384 141 334 141 c 0,7,8
 292 141 292 141 243 164 c 128,-1,9
 194 187 194 187 152 224 c 128,-1,10
 110 261 110 261 82 307 c 128,-1,11
 54 353 54 353 54 399 c 0,12,13
 54 447 54 447 71.5 484 c 128,-1,14
 89 521 89 521 119 546.5 c 128,-1,15
 149 572 149 572 189.5 585 c 128,-1,16
 230 598 230 598 276 598 c 0,17,18
 310 598 310 598 340 590 c 0,19,20
 389 577 389 577 396 568.5 c 0,21,22
 431 528 431 528 444.5 537.5 c 0,23,24
 448 540 448 540 486 624 c 1,25,-1
 484 623 l 1,26,-1
 560 623 l 2,27,-1
 558 -7 l 1,0,1
277 198 m 0,28,29
 315 198 315 198 351 210.5 c 128,-1,30
 387 223 387 223 417 246 c 1,31,-1
 184 486 l 1,32,33
 157 462 157 462 142 427.5 c 128,-1,34
 127 393 127 393 127 348 c 0,35,36
 127 312 127 312 138.5 284 c 128,-1,37
 150 256 150 256 170 237 c 128,-1,38
 190 218 190 218 217.5 208 c 128,-1,39
 245 198 245 198 277 198 c 0,28,29
486 477 m 1,40,41
 451 504 451 504 413.5 519.5 c 128,-1,42
 376 535 376 535 327 535 c 0,43,44
 255 535 255 535 204 502 c 1,45,-1
 435 262 l 1,46,47
 451 277 451 277 464 295 c 128,-1,48
 477 313 477 313 486 333 c 1,49,-1
 486 477 l 1,40,41
EndSplineSet
EndChar

StartChar: ugrave
Encoding: 249 249 150
Width: 472
Flags: W
LayerCount: 2
Fore
SplineSet
185 -6 m 4,0,1
 144 -6 144 -6 109 5 c 132,-1,2
 74 16 74 16 44 36 c 5,3,-1
 75 103 l 5,4,5
 101 87 101 87 127 78 c 132,-1,6
 153 69 153 69 182 69 c 4,7,8
 225 69 225 69 245 96.5 c 132,-1,9
 265 124 265 124 265 185 c 6,10,-1
 265 328 l 5,11,-1
 118 328 l 5,12,-1
 118 394 l 5,13,-1
 265 394 l 5,14,-1
 265 505 l 6,15,16
 265 539 265 539 272.5 565 c 132,-1,17
 280 591 280 591 294 609.5 c 132,-1,18
 308 628 308 628 328 641 c 5,19,-1
 35 641 l 5,20,-1
 35 718 l 5,21,-1
 428 718 l 5,22,-1
 428 647 l 5,23,24
 403 637 403 637 386 618.5 c 132,-1,25
 369 600 369 600 359.5 572.5 c 132,-1,26
 350 545 350 545 350 506 c 6,27,-1
 350 394 l 5,28,-1
 429 394 l 5,29,-1
 429 328 l 5,30,-1
 350 328 l 5,31,-1
 350 183 l 6,32,33
 350 120 350 120 331 78 c 132,-1,34
 312 36 312 36 275 15 c 132,-1,35
 238 -6 238 -6 185 -6 c 4,0,1
EndSplineSet
EndChar

StartChar: v
Encoding: 118 118 151
Width: 411
Flags: W
LayerCount: 2
Fore
SplineSet
158 0 m 1,0,-1
 3 537 l 1,1,-1
 89 537 l 1,2,-1
 174 219 l 2,3,4
 180 198 180 198 185.5 175.5 c 128,-1,5
 191 153 191 153 195.5 131 c 128,-1,6
 200 109 200 109 203 89 c 1,7,-1
 207 89 l 1,8,9
 209 102 209 102 213 120.5 c 128,-1,10
 217 139 217 139 222.5 160.5 c 128,-1,11
 228 182 228 182 233 204 c 2,12,-1
 322 537 l 1,13,-1
 409 537 l 1,14,-1
 251 0 l 1,15,-1
 158 0 l 1,0,-1
EndSplineSet
EndChar

StartChar: w
Encoding: 119 119 152
Width: 659
Flags: W
LayerCount: 2
Fore
SplineSet
355 318 m 2,0,1
 351 335 351 335 347.5 351.5 c 128,-1,2
 344 368 344 368 341 384.5 c 128,-1,3
 338 401 338 401 335.5 415.5 c 128,-1,4
 333 430 333 430 331 444 c 1,5,-1
 328 444 l 1,6,7
 326 430 326 430 323.5 414.5 c 128,-1,8
 321 399 321 399 318 383 c 128,-1,9
 315 367 315 367 311.5 350.5 c 128,-1,10
 308 334 308 334 304 318 c 2,11,-1
 229 0 l 1,12,-1
 134 0 l 1,13,-1
 10 537 l 1,14,-1
 94 537 l 1,15,-1
 154 264 l 2,16,17
 159 236 159 236 165 207 c 128,-1,18
 171 178 171 178 175.5 150 c 128,-1,19
 180 122 180 122 184 96 c 1,20,-1
 187 96 l 1,21,22
 189 112 189 112 192.5 131 c 128,-1,23
 196 150 196 150 199.5 171 c 128,-1,24
 203 192 203 192 207.5 213 c 128,-1,25
 212 234 212 234 217 256 c 2,26,-1
 284 537 l 1,27,-1
 376 537 l 1,28,-1
 442 255 l 2,29,30
 447 236 447 236 452.5 210.5 c 128,-1,31
 458 185 458 185 463 156 c 128,-1,32
 468 127 468 127 472 96 c 1,33,-1
 475 96 l 1,34,35
 477 110 477 110 480 130 c 128,-1,36
 483 150 483 150 488 174 c 128,-1,37
 493 198 493 198 498 224 c 2,38,-1
 567 537 l 1,39,-1
 650 537 l 1,40,-1
 522 0 l 1,41,-1
 426 0 l 1,42,-1
 355 318 l 2,0,1
EndSplineSet
EndChar

StartChar: x
Encoding: 120 120 153
Width: 420
Flags: W
LayerCount: 2
Fore
SplineSet
162 276 m 1,0,-1
 23 537 l 1,1,-1
 114 537 l 1,2,-1
 211 340 l 1,3,-1
 309 537 l 1,4,-1
 399 537 l 1,5,-1
 259 273 l 1,6,-1
 405 0 l 1,7,-1
 315 0 l 1,8,-1
 210 209 l 1,9,-1
 104 0 l 1,10,-1
 15 0 l 1,11,-1
 162 276 l 1,0,-1
EndSplineSet
EndChar

StartChar: y
Encoding: 121 121 154
Width: 412
Flags: W
LayerCount: 2
Fore
SplineSet
3 537 m 1,0,-1
 90 537 l 1,1,-1
 176 232 l 2,2,3
 182 211 182 211 187 189.5 c 128,-1,4
 192 168 192 168 197 146.5 c 128,-1,5
 202 125 202 125 206 103 c 1,6,-1
 210 103 l 1,7,8
 214 130 214 130 222 163.5 c 128,-1,9
 230 197 230 197 240 233 c 2,10,-1
 323 537 l 1,11,-1
 409 537 l 1,12,-1
 229 -79 l 2,13,14
 213 -132 213 -132 191.5 -168 c 128,-1,15
 170 -204 170 -204 140.5 -222 c 128,-1,16
 111 -240 111 -240 70 -240 c 0,17,18
 54 -240 54 -240 40.5 -238 c 128,-1,19
 27 -236 27 -236 13 -232 c 1,20,-1
 13 -161 l 1,21,22
 23 -163 23 -163 35 -165 c 128,-1,23
 47 -167 47 -167 58 -167 c 0,24,25
 81 -167 81 -167 97 -157 c 128,-1,26
 113 -147 113 -147 125 -125 c 128,-1,27
 137 -103 137 -103 147 -67 c 2,28,-1
 167 2 l 1,29,-1
 3 537 l 1,0,-1
EndSplineSet
EndChar

StartChar: z
Encoding: 122 122 155
Width: 353
Flags: W
LayerCount: 2
Fore
SplineSet
327 0 m 1,0,-1
 29 0 l 1,1,-1
 29 56 l 1,2,-1
 228 468 l 1,3,-1
 41 468 l 1,4,-1
 41 537 l 1,5,-1
 320 537 l 1,6,-1
 320 476 l 1,7,-1
 122 69 l 1,8,-1
 327 69 l 1,9,-1
 327 0 l 1,0,-1
EndSplineSet
EndChar

StartChar: ordfeminine
Encoding: 170 170 156
Width: 1115
Flags: W
AnchorPoint: "Anchor-0" 558 -24 basechar 0
LayerCount: 2
Fore
SplineSet
258 -12 m 0,0,1
 196 -12 196 -12 154 12.5 c 128,-1,2
 112 37 112 37 86.5 78.5 c 128,-1,3
 61 120 61 120 49.5 172 c 128,-1,4
 38 224 38 224 38 278 c 0,5,6
 38 364 38 364 64.5 428 c 128,-1,7
 91 492 91 492 140 527.5 c 128,-1,8
 189 563 189 563 256 563 c 0,9,10
 317 563 317 563 358.5 538 c 128,-1,11
 400 513 400 513 425.5 471 c 128,-1,12
 451 429 451 429 462 378 c 128,-1,13
 473 327 473 327 473 276 c 0,14,15
 473 189 473 189 446.5 124 c 128,-1,16
 420 59 420 59 371.5 23.5 c 128,-1,17
 323 -12 323 -12 258 -12 c 0,0,1
256 65 m 0,18,19
 298 65 298 65 329.5 88.5 c 128,-1,20
 361 112 361 112 378 159.5 c 128,-1,21
 395 207 395 207 395 278 c 0,22,23
 395 345 395 345 379.5 391.5 c 128,-1,24
 364 438 364 438 333 463 c 128,-1,25
 302 488 302 488 255 488 c 0,26,27
 215 488 215 488 183.5 466 c 128,-1,28
 152 444 152 444 134 397.5 c 128,-1,29
 116 351 116 351 116 278 c 256,30,31
 116 205 116 205 132.5 158 c 128,-1,32
 149 111 149 111 180.5 88 c 128,-1,33
 212 65 212 65 256 65 c 0,18,19
596 -12 m 0,34,35
 529 -12 529 -12 483 19 c 128,-1,36
 437 50 437 50 395 106 c 1,37,-1
 443 156 l 1,38,39
 479 107 479 107 514.5 85.5 c 128,-1,40
 550 64 550 64 590 64 c 0,41,42
 644 64 644 64 670 101.5 c 128,-1,43
 696 139 696 139 696 209 c 0,44,45
 696 266 696 266 676 319.5 c 128,-1,46
 656 373 656 373 619.5 416 c 128,-1,47
 583 459 583 459 532 483 c 1,48,-1
 627 499 l 1,49,50
 674 468 674 468 706.5 424.5 c 128,-1,51
 739 381 739 381 756.5 327.5 c 128,-1,52
 774 274 774 274 774 211 c 0,53,54
 774 166 774 166 764 125.5 c 128,-1,55
 754 85 754 85 733 54 c 128,-1,56
 712 23 712 23 678 5.5 c 128,-1,57
 644 -12 644 -12 596 -12 c 0,34,35
901 -12 m 0,58,59
 833 -12 833 -12 787.5 19 c 128,-1,60
 742 50 742 50 700 106 c 1,61,-1
 747 156 l 1,62,63
 784 107 784 107 819.5 85.5 c 128,-1,64
 855 64 855 64 895 64 c 0,65,66
 949 64 949 64 975 101.5 c 128,-1,67
 1001 139 1001 139 1001 209 c 0,68,69
 1001 274 1001 274 978.5 328.5 c 128,-1,70
 956 383 956 383 919 426 c 128,-1,71
 882 469 882 469 837 498 c 1,72,-1
 887 564 l 1,73,74
 941 528 941 528 984 476 c 128,-1,75
 1027 424 1027 424 1052.5 357.5 c 128,-1,76
 1078 291 1078 291 1078 211 c 0,77,78
 1078 147 1078 147 1059.5 96.5 c 128,-1,79
 1041 46 1041 46 1002 17 c 128,-1,80
 963 -12 963 -12 901 -12 c 0,58,59
768 613 m 0,81,82
 768 587 768 587 759 560.5 c 128,-1,83
 750 534 750 534 730 516 c 0,84,85
 709 497 709 497 678.5 486.5 c 128,-1,86
 648 476 648 476 593 476 c 2,87,-1
 497 476 l 1,88,-1
 497 551 l 1,89,-1
 579 551 l 2,90,91
 625 551 625 551 645 556.5 c 128,-1,92
 665 562 665 562 676 572 c 0,93,94
 685 580 685 580 689 592.5 c 128,-1,95
 693 605 693 605 693 619 c 0,96,97
 693 652 693 652 677 684.5 c 128,-1,98
 661 717 661 717 631 749 c 1,99,-1
 694 790 l 1,100,101
 734 740 734 740 751 700 c 128,-1,102
 768 660 768 660 768 613 c 0,81,82
EndSplineSet
EndChar

StartChar: questiondown
Encoding: 191 191 158
Width: 502
Flags: W
LayerCount: 2
Fore
SplineSet
325 648 m 0,0,1
 279 648 279 648 245 625.5 c 128,-1,2
 211 603 211 603 188 563 c 128,-1,3
 165 523 165 523 154 470.5 c 128,-1,4
 143 418 143 418 143 357 c 0,5,6
 143 268 143 268 164.5 202.5 c 128,-1,7
 186 137 186 137 228 102 c 128,-1,8
 270 67 270 67 328 67 c 0,9,10
 364 67 364 67 395 74.5 c 128,-1,11
 426 82 426 82 455 94 c 1,12,-1
 455 18 l 1,13,14
 426 4 426 4 393 -3 c 128,-1,15
 360 -10 360 -10 318 -10 c 0,16,17
 234 -10 234 -10 175 34.5 c 128,-1,18
 116 79 116 79 84.5 161.5 c 128,-1,19
 53 244 53 244 53 358 c 0,20,21
 53 435 53 435 70 502 c 128,-1,22
 87 569 87 569 121 619 c 128,-1,23
 155 669 155 669 206 697 c 128,-1,24
 257 725 257 725 323 725 c 0,25,26
 365 725 365 725 403.5 715.5 c 128,-1,27
 442 706 442 706 476 687 c 1,28,-1
 444 614 l 1,29,30
 419 629 419 629 389 638.5 c 128,-1,31
 359 648 359 648 325 648 c 0,0,1
EndSplineSet
EndChar

StartChar: at
Encoding: 64 64 160
Width: 725
Flags: W
LayerCount: 2
Fore
SplineSet
676 361 m 0,0,1
 676 305 676 305 667 259 c 128,-1,2
 658 213 658 213 640.5 180.5 c 128,-1,3
 623 148 623 148 597 130 c 128,-1,4
 571 112 571 112 537 112 c 0,5,6
 495 112 495 112 473 136.5 c 128,-1,7
 451 161 451 161 446 202 c 1,8,-1
 441 202 l 1,9,10
 428 158 428 158 403 135 c 128,-1,11
 378 112 378 112 340 112 c 0,12,13
 281 112 281 112 249 160.5 c 128,-1,14
 217 209 217 209 217 294 c 0,15,16
 217 367 217 367 237 418 c 128,-1,17
 257 469 257 469 294 496.5 c 128,-1,18
 331 524 331 524 385 524 c 0,19,20
 415 524 415 524 445.5 518.5 c 128,-1,21
 476 513 476 513 499 504 c 1,22,-1
 490 297 l 2,23,24
 489 281 489 281 489 268 c 128,-1,25
 489 255 489 255 489 248 c 0,26,27
 489 206 489 206 502.5 189.5 c 128,-1,28
 516 173 516 173 537 173 c 0,29,30
 561 173 561 173 577 194.5 c 128,-1,31
 593 216 593 216 601 258.5 c 128,-1,32
 609 301 609 301 609 362 c 0,33,34
 609 452 609 452 580.5 518.5 c 128,-1,35
 552 585 552 585 502 622 c 128,-1,36
 452 659 452 659 385 658 c 0,37,38
 316 658 316 658 265.5 626.5 c 128,-1,39
 215 595 215 595 182.5 542.5 c 128,-1,40
 150 490 150 490 134.5 424.5 c 128,-1,41
 119 359 119 359 119 291 c 0,42,43
 119 200 119 200 144.5 128.5 c 128,-1,44
 170 57 170 57 222 16 c 128,-1,45
 274 -25 274 -25 354 -25 c 0,46,47
 399 -25 399 -25 441 -13.5 c 128,-1,48
 483 -2 483 -2 516 14 c 1,49,-1
 516 -50 l 1,50,51
 481 -67 481 -67 441.5 -76 c 128,-1,52
 402 -85 402 -85 352 -85 c 0,53,54
 256 -85 256 -85 189 -42 c 128,-1,55
 122 1 122 1 86.5 84 c 128,-1,56
 51 167 51 167 51 285 c 0,57,58
 51 382 51 382 74.5 462.5 c 128,-1,59
 98 543 98 543 142 600 c 128,-1,60
 186 657 186 657 247.5 688 c 128,-1,61
 309 719 309 719 385 718 c 0,62,63
 451 718 451 718 505 691 c 128,-1,64
 559 664 559 664 597.5 616 c 128,-1,65
 636 568 636 568 656 502.5 c 128,-1,66
 676 437 676 437 676 361 c 0,0,1
288 292 m 0,67,68
 288 232 288 232 304.5 202.5 c 128,-1,69
 321 173 321 173 351 173 c 0,70,71
 384 173 384 173 399.5 212.5 c 128,-1,72
 415 252 415 252 419 332 c 2,73,-1
 426 460 l 1,74,75
 417 463 417 463 406 464.5 c 128,-1,76
 395 466 395 466 381 466 c 0,77,78
 351 466 351 466 330 444.5 c 128,-1,79
 309 423 309 423 298.5 384 c 128,-1,80
 288 345 288 345 288 292 c 0,67,68
EndSplineSet
EndChar

StartChar: ampersand
Encoding: 38 38 161
Width: 553
Flags: W
LayerCount: 2
Fore
SplineSet
235 724 m 0,0,1
 279 724 279 724 309.5 706.5 c 128,-1,2
 340 689 340 689 356 655 c 128,-1,3
 372 621 372 621 372 573 c 0,4,5
 372 512 372 512 345 465.5 c 128,-1,6
 318 419 318 419 267 379 c 1,7,-1
 396 204 l 1,8,9
 413 232 413 232 423 267.5 c 128,-1,10
 433 303 433 303 437 345 c 1,11,-1
 521 345 l 1,12,13
 515 292 515 292 496.5 235.5 c 128,-1,14
 478 179 478 179 448 136 c 1,15,-1
 554 0 l 1,16,-1
 450 0 l 1,17,-1
 394 76 l 1,18,19
 369 50 369 50 342 30 c 128,-1,20
 315 10 315 10 282.5 0 c 128,-1,21
 250 -10 250 -10 209 -10 c 0,22,23
 152 -10 152 -10 113.5 14.5 c 128,-1,24
 75 39 75 39 55.5 82 c 128,-1,25
 36 125 36 125 36 182 c 0,26,27
 36 228 36 228 49.5 264 c 128,-1,28
 63 300 63 300 91 330.5 c 128,-1,29
 119 361 119 361 160 390 c 1,30,31
 140 421 140 421 125 449.5 c 128,-1,32
 110 478 110 478 101.5 508.5 c 128,-1,33
 93 539 93 539 93 575 c 0,34,35
 93 622 93 622 110.5 655 c 128,-1,36
 128 688 128 688 160 706 c 128,-1,37
 192 724 192 724 235 724 c 0,0,1
203 335 m 1,38,39
 175 314 175 314 157 292 c 128,-1,40
 139 270 139 270 130.5 244.5 c 128,-1,41
 122 219 122 219 122 185 c 0,42,43
 122 130 122 130 148 98 c 128,-1,44
 174 66 174 66 218 66 c 0,45,46
 259 66 259 66 290 85 c 128,-1,47
 321 104 321 104 347 138 c 1,48,-1
 203 335 l 1,38,39
233 657 m 0,49,50
 206 657 206 657 190 635.5 c 128,-1,51
 174 614 174 614 174 574 c 0,52,53
 174 539 174 539 187 502 c 128,-1,54
 200 465 200 465 224 434 c 1,55,56
 262 463 262 463 277.5 497.5 c 128,-1,57
 293 532 293 532 293 575 c 0,58,59
 293 614 293 614 277 635.5 c 128,-1,60
 261 657 261 657 233 657 c 0,49,50
EndSplineSet
EndChar

StartChar: paragraph
Encoding: 182 182 162
Width: 590
Flags: W
AnchorPoint: "Anchor-0" 294 -24 basechar 0
LayerCount: 2
Fore
SplineSet
399 -12 m 0,0,1
 358 -12 358 -12 329.5 5 c 128,-1,2
 301 22 301 22 279 57 c 128,-1,3
 257 92 257 92 234 146 c 0,4,5
 219 180 219 180 207 198.5 c 128,-1,6
 195 217 195 217 183.5 224 c 128,-1,7
 172 231 172 231 157 231 c 0,8,9
 132 231 132 231 119.5 211.5 c 128,-1,10
 107 192 107 192 107 159 c 0,11,12
 107 120 107 120 119.5 84 c 128,-1,13
 132 48 132 48 151 16 c 1,14,-1
 79 -14 l 1,15,16
 57 24 57 24 43.5 67 c 128,-1,17
 30 110 30 110 30 155 c 0,18,19
 30 198 30 198 46 231.5 c 128,-1,20
 62 265 62 265 91 284.5 c 128,-1,21
 120 304 120 304 159 304 c 0,22,23
 191 304 191 304 215.5 292 c 128,-1,24
 240 280 240 280 261 251.5 c 128,-1,25
 282 223 282 223 301 175 c 0,26,27
 319 133 319 133 333.5 108 c 128,-1,28
 348 83 348 83 364 73.5 c 128,-1,29
 380 64 380 64 402 64 c 0,30,31
 441 64 441 64 458 97.5 c 128,-1,32
 475 131 475 131 475 182 c 0,33,34
 475 231 475 231 458 282.5 c 128,-1,35
 441 334 441 334 400 388 c 1,36,-1
 469 429 l 1,37,38
 507 379 507 379 530 320 c 128,-1,39
 553 261 553 261 553 189 c 0,40,41
 553 93 553 93 514 40.5 c 128,-1,42
 475 -12 475 -12 399 -12 c 0,0,1
280 318 m 0,43,44
 257 318 257 318 241.5 334 c 128,-1,45
 226 350 226 350 226 375 c 256,46,47
 226 400 226 400 241.5 416 c 128,-1,48
 257 432 257 432 280 432 c 0,49,50
 304 432 304 432 319.5 416 c 128,-1,51
 335 400 335 400 335 375 c 256,52,53
 335 350 335 350 319.5 334 c 128,-1,54
 304 318 304 318 280 318 c 0,43,44
33 476 m 1,55,-1
 33 551 l 1,56,-1
 363 551 l 2,57,58
 410 551 410 551 430 556.5 c 128,-1,59
 450 562 450 562 461 572 c 0,60,61
 470 580 470 580 474 592.5 c 128,-1,62
 478 605 478 605 478 619 c 0,63,64
 478 652 478 652 462 684.5 c 128,-1,65
 446 717 446 717 416 749 c 1,66,-1
 478 790 l 1,67,68
 519 740 519 740 536 700 c 128,-1,69
 553 660 553 660 553 613 c 0,70,71
 553 587 553 587 543.5 560.5 c 128,-1,72
 534 534 534 534 515 516 c 0,73,74
 493 497 493 497 462.5 486.5 c 128,-1,75
 432 476 432 476 378 476 c 2,76,-1
 33 476 l 1,55,-1
EndSplineSet
EndChar

StartChar: section
Encoding: 167 167 163
Width: 664
Flags: W
AnchorPoint: "Anchor-0" 332 -24 basechar 0
LayerCount: 2
Fore
SplineSet
192 -12 m 0,0,1
 118 -12 118 -12 75 39 c 128,-1,2
 32 90 32 90 32 181 c 0,3,4
 32 267 32 267 74.5 321 c 128,-1,5
 117 375 117 375 195 375 c 0,6,7
 220 375 220 375 239.5 368 c 128,-1,8
 259 361 259 361 275 347.5 c 128,-1,9
 291 334 291 334 302 314 c 1,10,-1
 299 311 l 2,11,12
 300 313 300 313 300.5 322 c 128,-1,13
 301 331 301 331 301 336 c 0,14,15
 301 365 301 365 290 390.5 c 128,-1,16
 279 416 279 416 259.5 435.5 c 128,-1,17
 240 455 240 455 215.5 467 c 128,-1,18
 191 479 191 479 163 482 c 1,19,-1
 294 492 l 1,20,21
 315 480 315 480 333 460 c 128,-1,22
 351 440 351 440 361.5 411 c 128,-1,23
 372 382 372 382 372 344 c 0,24,25
 372 335 372 335 370.5 325 c 128,-1,26
 369 315 369 315 368 309 c 1,27,-1
 365 312 l 1,28,29
 378 331 378 331 394 345.5 c 128,-1,30
 410 360 410 360 430.5 367.5 c 128,-1,31
 451 375 451 375 476 375 c 0,32,33
 552 375 552 375 592 320.5 c 128,-1,34
 632 266 632 266 632 181 c 0,35,36
 632 97 632 97 590 42.5 c 128,-1,37
 548 -12 548 -12 469 -12 c 0,38,39
 429 -12 429 -12 401 1 c 128,-1,40
 373 14 373 14 354.5 38 c 128,-1,41
 336 62 336 62 324 94 c 1,42,-1
 338 93 l 1,43,44
 326 63 326 63 307.5 39.5 c 128,-1,45
 289 16 289 16 261 2 c 128,-1,46
 233 -12 233 -12 192 -12 c 0,0,1
201 60 m 0,47,48
 250 60 250 60 272.5 93 c 128,-1,49
 295 126 295 126 295 181 c 0,50,51
 295 240 295 240 271.5 271.5 c 128,-1,52
 248 303 248 303 205 303 c 0,53,54
 172 303 172 303 151 288 c 128,-1,55
 130 273 130 273 120 246 c 128,-1,56
 110 219 110 219 110 183 c 0,57,58
 110 123 110 123 134.5 91.5 c 128,-1,59
 159 60 159 60 201 60 c 0,47,48
460 60 m 0,60,61
 508 60 508 60 531 92.5 c 128,-1,62
 554 125 554 125 554 181 c 0,63,64
 554 220 554 220 543.5 247.5 c 128,-1,65
 533 275 533 275 512.5 289 c 128,-1,66
 492 303 492 303 463 303 c 0,67,68
 416 303 416 303 392 270 c 128,-1,69
 368 237 368 237 368 183 c 0,70,71
 368 122 368 122 392.5 91 c 128,-1,72
 417 60 417 60 460 60 c 0,60,61
33 476 m 1,73,-1
 33 551 l 1,74,-1
 443 551 l 2,75,76
 489 551 489 551 509 556.5 c 128,-1,77
 529 562 529 562 540 572 c 0,78,79
 549 580 549 580 553 592.5 c 128,-1,80
 557 605 557 605 557 619 c 0,81,82
 557 652 557 652 541 684.5 c 128,-1,83
 525 717 525 717 495 749 c 1,84,-1
 557 790 l 1,85,86
 598 740 598 740 615 700 c 128,-1,87
 632 660 632 660 632 613 c 0,88,89
 632 587 632 587 622.5 560.5 c 128,-1,90
 613 534 613 534 594 516 c 0,91,92
 572 497 572 497 542 486.5 c 128,-1,93
 512 476 512 476 457 476 c 2,94,-1
 33 476 l 1,73,-1
EndSplineSet
EndChar

StartChar: copyright
Encoding: 169 169 164
Width: 658
Flags: W
AnchorPoint: "Anchor-0" 341 -24 basechar 0
LayerCount: 2
Fore
SplineSet
189 -12 m 0,0,1
 143 -12 143 -12 106.5 9.5 c 128,-1,2
 70 31 70 31 50 71.5 c 128,-1,3
 30 112 30 112 30 168 c 0,4,5
 30 212 30 212 45.5 247.5 c 128,-1,6
 61 283 61 283 90.5 303 c 128,-1,7
 120 323 120 323 161 323 c 0,8,9
 207 323 207 323 233.5 298 c 128,-1,10
 260 273 260 273 260 230 c 0,11,12
 260 214 260 214 256.5 198.5 c 128,-1,13
 253 183 253 183 246 171 c 1,14,-1
 183 178 l 1,15,16
 186 187 186 187 187.5 197.5 c 128,-1,17
 189 208 189 208 189 217 c 0,18,19
 189 235 189 235 180 245 c 128,-1,20
 171 255 171 255 155 255 c 0,21,22
 131 255 131 255 116.5 232.5 c 128,-1,23
 102 210 102 210 102 169 c 0,24,25
 102 121 102 121 126.5 92.5 c 128,-1,26
 151 64 151 64 200 64 c 0,27,28
 255 64 255 64 279 97 c 128,-1,29
 303 130 303 130 307 194 c 1,30,-1
 377 194 l 1,31,32
 381 124 381 124 406.5 94 c 128,-1,33
 432 64 432 64 466 64 c 0,34,35
 495 64 495 64 511.5 78.5 c 128,-1,36
 528 93 528 93 535.5 119 c 128,-1,37
 543 145 543 145 543 181 c 0,38,39
 543 230 543 230 526 282 c 128,-1,40
 509 334 509 334 468 388 c 1,41,-1
 538 429 l 1,42,43
 576 379 576 379 598.5 320 c 128,-1,44
 621 261 621 261 621 187 c 0,45,46
 621 122 621 122 603 78 c 128,-1,47
 585 34 585 34 552 11 c 128,-1,48
 519 -12 519 -12 473 -12 c 0,49,50
 437 -12 437 -12 410.5 0.5 c 128,-1,51
 384 13 384 13 364.5 38.5 c 128,-1,52
 345 64 345 64 327 105 c 1,53,-1
 358 109 l 1,54,55
 336 61 336 61 311.5 35 c 128,-1,56
 287 9 287 9 257.5 -1.5 c 128,-1,57
 228 -12 228 -12 189 -12 c 0,0,1
297 -144 m 1,58,-1
 305 11 l 1,59,-1
 378 11 l 1,60,-1
 386 -144 l 1,61,-1
 297 -144 l 1,58,-1
335 300 m 0,62,63
 313 300 313 300 297 316 c 128,-1,64
 281 332 281 332 281 356 c 0,65,66
 281 382 281 382 297 398 c 128,-1,67
 313 414 313 414 335 414 c 0,68,69
 359 414 359 414 374.5 398 c 128,-1,70
 390 382 390 382 390 356 c 0,71,72
 390 332 390 332 374.5 316 c 128,-1,73
 359 300 359 300 335 300 c 0,62,63
32 476 m 1,74,-1
 32 551 l 1,75,-1
 432 551 l 2,76,77
 478 551 478 551 498 556.5 c 128,-1,78
 518 562 518 562 529 572 c 0,79,80
 538 580 538 580 542 592.5 c 128,-1,81
 546 605 546 605 546 619 c 0,82,83
 546 652 546 652 530 684.5 c 128,-1,84
 514 717 514 717 484 749 c 1,85,-1
 546 790 l 1,86,87
 587 740 587 740 604 700 c 128,-1,88
 621 660 621 660 621 613 c 0,89,90
 621 587 621 587 612 560.5 c 128,-1,91
 603 534 603 534 583 516 c 0,92,93
 561 497 561 497 531 486.5 c 128,-1,94
 501 476 501 476 446 476 c 2,95,-1
 32 476 l 1,74,-1
EndSplineSet
EndChar

StartChar: registered
Encoding: 174 174 165
Width: 963
Flags: W
AnchorPoint: "Anchor-0" 483 -24 basechar 0
LayerCount: 2
Fore
SplineSet
189 -12 m 0,0,1
 143 -12 143 -12 106.5 9.5 c 128,-1,2
 70 31 70 31 50 71.5 c 128,-1,3
 30 112 30 112 30 168 c 0,4,5
 30 212 30 212 45.5 247.5 c 128,-1,6
 61 283 61 283 90.5 303 c 128,-1,7
 120 323 120 323 161 323 c 0,8,9
 207 323 207 323 233.5 298 c 128,-1,10
 260 273 260 273 260 230 c 0,11,12
 260 214 260 214 256.5 198.5 c 128,-1,13
 253 183 253 183 246 171 c 1,14,-1
 183 178 l 1,15,16
 186 186 186 186 187.5 197 c 128,-1,17
 189 208 189 208 189 217 c 0,18,19
 189 235 189 235 180 245 c 128,-1,20
 171 255 171 255 155 255 c 0,21,22
 131 255 131 255 116 232.5 c 128,-1,23
 101 210 101 210 101 169 c 0,24,25
 101 121 101 121 126 92.5 c 128,-1,26
 151 64 151 64 200 64 c 0,27,28
 255 64 255 64 279 97 c 128,-1,29
 303 130 303 130 307 194 c 1,30,-1
 377 194 l 1,31,32
 381 124 381 124 406.5 94 c 128,-1,33
 432 64 432 64 466 64 c 0,34,35
 511 64 511 64 527 99 c 128,-1,36
 543 134 543 134 543 186 c 0,37,38
 543 243 543 243 527 291.5 c 128,-1,39
 511 340 511 340 484 378 c 128,-1,40
 457 416 457 416 423.5 441 c 128,-1,41
 390 466 390 466 355 477 c 1,42,-1
 465 491 l 1,43,44
 508 465 508 465 543.5 421.5 c 128,-1,45
 579 378 579 378 600 320.5 c 128,-1,46
 621 263 621 263 621 194 c 0,47,48
 621 127 621 127 603 81 c 128,-1,49
 585 35 585 35 551.5 11.5 c 128,-1,50
 518 -12 518 -12 473 -12 c 0,51,52
 437 -12 437 -12 410.5 0.5 c 128,-1,53
 384 13 384 13 364.5 38.5 c 128,-1,54
 345 64 345 64 327 105 c 1,55,-1
 358 109 l 1,56,57
 336 61 336 61 311.5 35 c 128,-1,58
 287 9 287 9 257.5 -1.5 c 128,-1,59
 228 -12 228 -12 189 -12 c 0,0,1
30 476 m 1,60,-1
 30 551 l 1,61,-1
 432 551 l 2,62,63
 478 551 478 551 498 556.5 c 128,-1,64
 518 562 518 562 529 572 c 0,65,66
 538 580 538 580 542 592.5 c 128,-1,67
 546 605 546 605 546 619 c 0,68,69
 546 652 546 652 530 684.5 c 128,-1,70
 514 717 514 717 484 749 c 1,71,-1
 546 790 l 1,72,73
 587 740 587 740 604 700 c 128,-1,74
 621 660 621 660 621 613 c 0,75,76
 621 587 621 587 612 560.5 c 128,-1,77
 603 534 603 534 583 516 c 0,78,79
 561 497 561 497 531 486.5 c 128,-1,80
 501 476 501 476 444 476 c 2,81,-1
 30 476 l 1,60,-1
750 -12 m 0,82,83
 682 -12 682 -12 636.5 19 c 128,-1,84
 591 50 591 50 548 106 c 1,85,-1
 596 156 l 1,86,87
 632 107 632 107 667.5 85.5 c 128,-1,88
 703 64 703 64 744 64 c 0,89,90
 797 64 797 64 823 101.5 c 128,-1,91
 849 139 849 139 849 209 c 0,92,93
 849 274 849 274 827 328.5 c 128,-1,94
 805 383 805 383 768 426 c 128,-1,95
 731 469 731 469 686 498 c 1,96,-1
 736 564 l 1,97,98
 790 528 790 528 833 476 c 128,-1,99
 876 424 876 424 901.5 357.5 c 128,-1,100
 927 291 927 291 927 211 c 0,101,102
 927 147 927 147 908.5 96.5 c 128,-1,103
 890 46 890 46 850.5 17 c 128,-1,104
 811 -12 811 -12 750 -12 c 0,82,83
EndSplineSet
EndChar

StartChar: degree
Encoding: 176 176 166
Width: 483
Flags: W
AnchorPoint: "Anchor-0" 241 -24 basechar 0
LayerCount: 2
Fore
SplineSet
239 -12 m 0,0,1
 181 -12 181 -12 139 11.5 c 128,-1,2
 97 35 97 35 74.5 76.5 c 128,-1,3
 52 118 52 118 52 171 c 0,4,5
 52 206 52 206 62.5 235.5 c 128,-1,6
 73 265 73 265 93 287.5 c 128,-1,7
 113 310 113 310 140 324 c 1,8,-1
 147 309 l 1,9,-1
 35 308 l 1,10,-1
 35 375 l 1,11,-1
 204 375 l 1,12,13
 214 385 214 385 220.5 396.5 c 128,-1,14
 227 408 227 408 227 424 c 0,15,16
 227 439 227 439 222.5 452 c 128,-1,17
 218 465 218 465 210 478 c 1,18,-1
 252 490 l 1,19,-1
 285 479 l 1,20,21
 293 466 293 466 297 451 c 128,-1,22
 301 436 301 436 301 422 c 256,23,24
 301 408 301 408 297.5 395.5 c 128,-1,25
 294 383 294 383 288 375 c 1,26,-1
 449 375 l 1,27,-1
 449 308 l 1,28,-1
 334 310 l 1,29,-1
 341 324 l 1,30,31
 365 313 365 313 385.5 292 c 128,-1,32
 406 271 406 271 418.5 241 c 128,-1,33
 431 211 431 211 431 169 c 0,34,35
 431 118 431 118 409.5 77 c 128,-1,36
 388 36 388 36 345.5 12 c 128,-1,37
 303 -12 303 -12 239 -12 c 0,0,1
241 64 m 0,38,39
 303 64 303 64 329 98 c 128,-1,40
 355 132 355 132 355 180 c 0,41,42
 355 219 355 219 341.5 248 c 128,-1,43
 328 277 328 277 303 293 c 128,-1,44
 278 309 278 309 241 309 c 0,45,46
 205 309 205 309 179.5 292.5 c 128,-1,47
 154 276 154 276 141.5 247.5 c 128,-1,48
 129 219 129 219 129 181 c 0,49,50
 129 131 129 131 156 97.5 c 128,-1,51
 183 64 183 64 241 64 c 0,38,39
35 476 m 1,52,-1
 35 551 l 1,53,-1
 264 551 l 2,54,55
 310 551 310 551 330 556.5 c 128,-1,56
 350 562 350 562 361 572 c 0,57,58
 370 580 370 580 374 592.5 c 128,-1,59
 378 605 378 605 378 619 c 0,60,61
 378 652 378 652 362 684.5 c 128,-1,62
 346 717 346 717 316 749 c 1,63,-1
 379 790 l 1,64,65
 419 740 419 740 436 700 c 128,-1,66
 453 660 453 660 453 613 c 0,67,68
 453 587 453 587 444 560.5 c 128,-1,69
 435 534 435 534 415 516 c 0,70,71
 394 497 394 497 363.5 486.5 c 128,-1,72
 333 476 333 476 278 476 c 2,73,-1
 35 476 l 1,52,-1
EndSplineSet
EndChar

StartChar: cent
Encoding: 162 162 167
Width: 472
Flags: W
LayerCount: 2
Fore
SplineSet
296 644 m 1,0,1
 324 642 324 642 349.5 635.5 c 128,-1,2
 375 629 375 629 395 618 c 1,3,-1
 370 548 l 1,4,5
 349 559 349 559 326 564.5 c 128,-1,6
 303 570 303 570 285 570 c 0,7,8
 243 570 243 570 216.5 547 c 128,-1,9
 190 524 190 524 177 478.5 c 128,-1,10
 164 433 164 433 164 364 c 0,11,12
 164 294 164 294 177 249 c 128,-1,13
 190 204 190 204 216.5 182 c 128,-1,14
 243 160 243 160 283 160 c 0,15,16
 311 160 311 160 337 167.5 c 128,-1,17
 363 175 363 175 388 188 c 1,18,-1
 388 116 l 1,19,20
 369 105 369 105 346.5 98 c 128,-1,21
 324 91 324 91 295 88 c 1,22,-1
 295 -10 l 1,23,-1
 238 -10 l 1,24,-1
 238 90 l 1,25,26
 186 98 186 98 150.5 130.5 c 128,-1,27
 115 163 115 163 97 221.5 c 128,-1,28
 79 280 79 280 79 363 c 0,29,30
 79 447 79 447 97.5 505.5 c 128,-1,31
 116 564 116 564 151.5 598 c 128,-1,32
 187 632 187 632 238 641 c 1,33,-1
 238 724 l 1,34,-1
 296 724 l 1,35,-1
 296 644 l 1,0,1
EndSplineSet
EndChar

StartChar: dollar
Encoding: 36 36 168
Width: 472
Flags: W
LayerCount: 2
Fore
SplineSet
209 51 m 1,0,1
 161 52 161 52 118.5 61 c 128,-1,2
 76 70 76 70 47 84 c 1,3,-1
 47 164 l 1,4,5
 77 147 77 147 120 135 c 128,-1,6
 163 123 163 123 209 122 c 1,7,-1
 209 333 l 1,8,9
 151 354 151 354 115.5 377.5 c 128,-1,10
 80 401 80 401 63.5 433 c 128,-1,11
 47 465 47 465 47 510 c 0,12,13
 47 557 47 557 67 592.5 c 128,-1,14
 87 628 87 628 123.5 649 c 128,-1,15
 160 670 160 670 209 674 c 1,16,-1
 209 760 l 1,17,-1
 262 760 l 1,18,-1
 262 676 l 1,19,20
 305 674 305 674 342 665 c 128,-1,21
 379 656 379 656 412 640 c 1,22,-1
 388 572 l 1,23,24
 360 586 360 586 328.5 593.5 c 128,-1,25
 297 601 297 601 262 604 c 1,26,-1
 262 393 l 1,27,28
 318 372 318 372 354.5 349.5 c 128,-1,29
 391 327 391 327 409.5 296.5 c 128,-1,30
 428 266 428 266 428 221 c 0,31,32
 428 155 428 155 384.5 111 c 128,-1,33
 341 67 341 67 262 55 c 1,34,-1
 262 -58 l 1,35,-1
 209 -58 l 1,36,-1
 209 51 l 1,0,1
262 126 m 1,37,38
 308 133 308 133 330 157.5 c 128,-1,39
 352 182 352 182 352 216 c 0,40,41
 352 240 352 240 343 257.5 c 128,-1,42
 334 275 334 275 314.5 288 c 128,-1,43
 295 301 295 301 262 313 c 1,44,-1
 262 126 l 1,37,38
209 602 m 1,45,46
 181 599 181 599 161.5 587 c 128,-1,47
 142 575 142 575 132.5 556.5 c 128,-1,48
 123 538 123 538 123 514 c 0,49,50
 123 488 123 488 131 470 c 128,-1,51
 139 452 139 452 158 439 c 128,-1,52
 177 426 177 426 209 414 c 1,53,-1
 209 602 l 1,45,46
EndSplineSet
EndChar

StartChar: sterling
Encoding: 163 163 169
Width: 502
Flags: W
LayerCount: 2
Fore
SplineSet
335.48046875 422.639648438 m 6,0,1
 335.48046875 402.890625 335.48046875 402.890625 334.764648438 393.120117188 c 4,2,3
 333.709960938 378.719726562 333.709960938 378.719726562 332.616210938 365.759765625 c 5,4,-1
 335.48046875 365.759765625 l 5,5,6
 341.41015625 385.440429688 341.41015625 385.440429688 350.997070312 398.16015625 c 4,7,8
 360.66015625 411.360351562 360.66015625 411.360351562 372.71875 417.959960938 c 4,9,10
 384.530273438 424.799804688 384.530273438 424.799804688 398.020507812 424.799804688 c 4,11,12
 423.030273438 424.799804688 423.030273438 424.799804688 438.599609375 410.040039062 c 4,13,14
 454.599609375 395.040039062 454.599609375 395.040039062 462.23046875 365.400390625 c 4,15,16
 470.107421875 335.106445312 470.107421875 335.106445312 470.107421875 290.879882812 c 6,17,-1
 470.107421875 190.080078125 l 5,18,-1
 430.483398438 190.080078125 l 5,19,-1
 430.483398438 255.599609375 l 6,20,21
 430.73046875 304.799804688 430.73046875 304.799804688 421.173828125 325.080078125 c 4,22,23
 411.48046875 346.080078125 411.48046875 346.080078125 390.859375 346.3203125 c 4,24,25
 363.740234375 346.080078125 363.740234375 346.080078125 358.634765625 331.200195312 c 4,26,27
 346.030273438 294.240234375 346.030273438 294.240234375 340.970703125 284.759765625 c 4,28,29
 335.48046875 273.58984375 335.48046875 273.58984375 335.48046875 231.83984375 c 6,30,-1
 335.48046875 190.080078125 l 5,31,-1
 295.856445312 190.080078125 l 5,32,-1
 295.856445312 522.240234375 l 5,33,-1
 335.48046875 522.240234375 l 5,34,-1
 335.48046875 422.639648438 l 6,0,1
325 648 m 0,35,36
 279 648 279 648 245 625.5 c 128,-1,37
 211 603 211 603 188 563 c 128,-1,38
 165 523 165 523 154 470.5 c 128,-1,39
 143 418 143 418 143 357 c 0,40,41
 143 268 143 268 164.5 202.5 c 128,-1,42
 186 137 186 137 228 102 c 128,-1,43
 270 67 270 67 328 67 c 0,44,45
 364 67 364 67 395 74.5 c 128,-1,46
 426 82 426 82 455 94 c 1,47,-1
 455 18 l 1,48,49
 426 4 426 4 393 -3 c 128,-1,50
 360 -10 360 -10 318 -10 c 0,51,52
 234 -10 234 -10 175 34.5 c 128,-1,53
 116 79 116 79 84.5 161.5 c 128,-1,54
 53 244 53 244 53 358 c 0,55,56
 53 435 53 435 70 502 c 128,-1,57
 87 569 87 569 121 619 c 128,-1,58
 155 669 155 669 206 697 c 128,-1,59
 257 725 257 725 323 725 c 0,60,61
 365 725 365 725 403.5 715.5 c 128,-1,62
 442 706 442 706 476 687 c 1,63,-1
 444 614 l 1,64,65
 419 629 419 629 389 638.5 c 128,-1,66
 359 648 359 648 325 648 c 0,35,36
EndSplineSet
EndChar

StartChar: yen
Encoding: 165 165 170
Width: 721
Flags: W
AnchorPoint: "Anchor-0" 360 -24 basechar 0
LayerCount: 2
Fore
SplineSet
352 67 m 0,0,1
 438 67 438 67 495 95.5 c 128,-1,2
 552 124 552 124 580.5 183 c 128,-1,3
 609 242 609 242 609 333 c 0,4,5
 609 375 609 375 600 411 c 128,-1,6
 591 447 591 447 573.5 469 c 128,-1,7
 556 491 556 491 528 491 c 0,8,9
 508 491 508 491 492.5 475 c 128,-1,10
 477 459 477 459 477 426 c 0,11,12
 477 397 477 397 490 374.5 c 128,-1,13
 503 352 503 352 523 336.5 c 128,-1,14
 543 321 543 321 564 311 c 1,15,-1
 564 242 l 1,16,-1
 316 242 l 1,17,-1
 316 316 l 1,18,-1
 460 316 l 1,19,20
 444 331 444 331 431 349 c 128,-1,21
 418 367 418 367 410.5 389.5 c 128,-1,22
 403 412 403 412 403 439 c 0,23,24
 403 472 403 472 416 500 c 128,-1,25
 429 528 429 528 456 545.5 c 128,-1,26
 483 563 483 563 524 563 c 0,27,28
 576 563 576 563 612.5 534 c 128,-1,29
 649 505 649 505 668 453.5 c 128,-1,30
 687 402 687 402 687 334 c 0,31,32
 687 214 687 214 647 137 c 128,-1,33
 607 60 607 60 532 24 c 128,-1,34
 457 -12 457 -12 354 -12 c 0,35,36
 248 -12 248 -12 176.5 29 c 128,-1,37
 105 70 105 70 69.5 143.5 c 128,-1,38
 34 217 34 217 34 315 c 0,39,40
 34 393 34 393 56 448 c 128,-1,41
 78 503 78 503 117.5 533 c 128,-1,42
 157 563 157 563 208 563 c 0,43,44
 243 563 243 563 270.5 547.5 c 128,-1,45
 298 532 298 532 313.5 502 c 128,-1,46
 329 472 329 472 329 429 c 0,47,48
 329 383 329 383 312 349.5 c 128,-1,49
 295 316 295 316 262.5 298 c 128,-1,50
 230 280 230 280 183 280 c 0,51,52
 156 280 156 280 133 288.5 c 128,-1,53
 110 297 110 297 91.5 310.5 c 128,-1,54
 73 324 73 324 59 337 c 1,55,-1
 81 403 l 1,56,57
 90 391 90 391 103.5 378 c 128,-1,58
 117 365 117 365 135.5 356.5 c 128,-1,59
 154 348 154 348 178 348 c 0,60,61
 216 348 216 348 235 368.5 c 128,-1,62
 254 389 254 389 254 427 c 0,63,64
 254 462 254 462 240 478.5 c 128,-1,65
 226 495 226 495 203 495 c 0,66,67
 161 495 161 495 135.5 448 c 128,-1,68
 110 401 110 401 110 323 c 2,69,-1
 110 309 l 2,70,71
 110 261 110 261 123.5 217.5 c 128,-1,72
 137 174 137 174 165.5 140 c 128,-1,73
 194 106 194 106 240 86.5 c 128,-1,74
 286 67 286 67 352 67 c 0,0,1
EndSplineSet
EndChar

StartChar: dieresis
Encoding: 168 168 171
Width: 529
Flags: W
AnchorPoint: "Anchor-0" 266 -24 basechar 0
LayerCount: 2
Fore
SplineSet
265 -12 m 0,0,1
 205 -12 205 -12 160.5 3.5 c 128,-1,2
 116 19 116 19 87.5 47.5 c 128,-1,3
 59 76 59 76 45.5 114 c 128,-1,4
 32 152 32 152 32 196 c 0,5,6
 32 214 32 214 33.5 229.5 c 128,-1,7
 35 245 35 245 38 259 c 1,8,-1
 112 249 l 1,9,10
 110 239 110 239 109 226.5 c 128,-1,11
 108 214 108 214 108 200 c 0,12,13
 108 175 108 175 114.5 151 c 128,-1,14
 121 127 121 127 138 107.5 c 128,-1,15
 155 88 155 88 185.5 76 c 128,-1,16
 216 64 216 64 265 64 c 0,17,18
 313 64 313 64 343 76.5 c 128,-1,19
 373 89 373 89 390.5 109.5 c 128,-1,20
 408 130 408 130 415 153.5 c 128,-1,21
 422 177 422 177 422 200 c 0,22,23
 422 227 422 227 417.5 248 c 128,-1,24
 413 269 413 269 403 287 c 0,25,26
 400 291 400 291 395 294 c 128,-1,27
 390 297 390 297 387 301 c 0,28,29
 372 317 372 317 350.5 326.5 c 128,-1,30
 329 336 329 336 301 336 c 0,31,32
 270 336 270 336 255 325 c 128,-1,33
 240 314 240 314 240 294 c 256,34,35
 240 274 240 274 253 262.5 c 128,-1,36
 266 251 266 251 292 251 c 0,37,38
 317 251 317 251 335 265 c 128,-1,39
 353 279 353 279 363 303.5 c 128,-1,40
 373 328 373 328 373 359 c 0,41,42
 373 398 373 398 356.5 423.5 c 128,-1,43
 340 449 340 449 316.5 464 c 128,-1,44
 293 479 293 479 272 485 c 1,45,-1
 376 494 l 1,46,47
 407 472 407 472 425.5 438 c 128,-1,48
 444 404 444 404 444 360 c 0,49,50
 444 348 444 348 443.5 340.5 c 128,-1,51
 443 333 443 333 443 328 c 2,52,-1
 430 302 l 1,53,54
 420 260 420 260 398.5 233.5 c 128,-1,55
 377 207 377 207 348 194.5 c 128,-1,56
 319 182 319 182 285 182 c 0,57,58
 233 182 233 182 200.5 210 c 128,-1,59
 168 238 168 238 168 293 c 0,60,61
 168 323 168 323 181 347.5 c 128,-1,62
 194 372 194 372 222 386.5 c 128,-1,63
 250 401 250 401 294 401 c 0,64,65
 324 401 324 401 348.5 393 c 128,-1,66
 373 385 373 385 395 369 c 0,67,68
 397 368 397 368 400 368 c 128,-1,69
 403 368 403 368 406 368.5 c 128,-1,70
 409 369 409 369 411 367 c 0,71,72
 450 341 450 341 472 295.5 c 128,-1,73
 494 250 494 250 494 197 c 0,74,75
 494 148 494 148 480 109.5 c 128,-1,76
 466 71 466 71 437 44 c 128,-1,77
 408 17 408 17 365 2.5 c 128,-1,78
 322 -12 322 -12 265 -12 c 0,0,1
36 476 m 1,79,-1
 36 551 l 1,80,-1
 304 551 l 2,81,82
 351 551 351 551 370.5 556.5 c 128,-1,83
 390 562 390 562 401 572 c 0,84,85
 411 580 411 580 414.5 592.5 c 128,-1,86
 418 605 418 605 418 619 c 0,87,88
 418 652 418 652 402 684.5 c 128,-1,89
 386 717 386 717 357 749 c 1,90,-1
 419 790 l 1,91,92
 460 740 460 740 477 700 c 128,-1,93
 494 660 494 660 494 613 c 0,94,95
 494 587 494 587 484.5 560.5 c 128,-1,96
 475 534 475 534 455 516 c 0,97,98
 434 497 434 497 403.5 486.5 c 128,-1,99
 373 476 373 476 319 476 c 2,100,-1
 36 476 l 1,79,-1
EndSplineSet
EndChar

StartChar: grave
Encoding: 96 96 172
Width: 270
Flags: W
LayerCount: 2
Fore
SplineSet
139 766 m 1,0,1
 150 743 150 743 166 715.5 c 128,-1,2
 182 688 182 688 199 662 c 128,-1,3
 216 636 216 636 230 617 c 1,4,-1
 230 606 l 1,5,-1
 176 606 l 1,6,7
 161 619 161 619 141.5 638.5 c 128,-1,8
 122 658 122 658 102 679.5 c 128,-1,9
 82 701 82 701 66 721 c 128,-1,10
 50 741 50 741 40 757 c 1,11,-1
 40 766 l 1,12,-1
 139 766 l 1,0,1
EndSplineSet
EndChar

StartChar: acute
Encoding: 180 180 173
Width: 658
Flags: W
AnchorPoint: "Anchor-0" 341 -24 basechar 0
LayerCount: 2
Fore
SplineSet
189 -12 m 0,0,1
 143 -12 143 -12 106.5 9.5 c 128,-1,2
 70 31 70 31 50 71.5 c 128,-1,3
 30 112 30 112 30 168 c 0,4,5
 30 212 30 212 45.5 247.5 c 128,-1,6
 61 283 61 283 90.5 303 c 128,-1,7
 120 323 120 323 161 323 c 0,8,9
 207 323 207 323 233.5 298 c 128,-1,10
 260 273 260 273 260 230 c 0,11,12
 260 214 260 214 256.5 198.5 c 128,-1,13
 253 183 253 183 246 171 c 1,14,-1
 183 178 l 1,15,16
 186 187 186 187 187.5 197.5 c 128,-1,17
 189 208 189 208 189 217 c 0,18,19
 189 235 189 235 180 245 c 128,-1,20
 171 255 171 255 155 255 c 0,21,22
 131 255 131 255 116.5 232.5 c 128,-1,23
 102 210 102 210 102 169 c 0,24,25
 102 121 102 121 126.5 92.5 c 128,-1,26
 151 64 151 64 200 64 c 0,27,28
 255 64 255 64 279 97 c 128,-1,29
 303 130 303 130 307 194 c 1,30,-1
 377 194 l 1,31,32
 381 124 381 124 406.5 94 c 128,-1,33
 432 64 432 64 466 64 c 0,34,35
 495 64 495 64 511.5 78.5 c 128,-1,36
 528 93 528 93 535.5 119 c 128,-1,37
 543 145 543 145 543 181 c 0,38,39
 543 230 543 230 526 282 c 128,-1,40
 509 334 509 334 468 388 c 1,41,-1
 538 429 l 1,42,43
 576 379 576 379 598.5 320 c 128,-1,44
 621 261 621 261 621 187 c 0,45,46
 621 122 621 122 603 78 c 128,-1,47
 585 34 585 34 552 11 c 128,-1,48
 519 -12 519 -12 473 -12 c 0,49,50
 437 -12 437 -12 410.5 0.5 c 128,-1,51
 384 13 384 13 364.5 38.5 c 128,-1,52
 345 64 345 64 327 105 c 1,53,-1
 358 109 l 1,54,55
 336 61 336 61 311.5 35 c 128,-1,56
 287 9 287 9 257.5 -1.5 c 128,-1,57
 228 -12 228 -12 189 -12 c 0,0,1
335 300 m 0,58,59
 313 300 313 300 297 316 c 128,-1,60
 281 332 281 332 281 356 c 0,61,62
 281 382 281 382 297 398 c 128,-1,63
 313 414 313 414 335 414 c 0,64,65
 359 414 359 414 374.5 398 c 128,-1,66
 390 382 390 382 390 356 c 0,67,68
 390 332 390 332 374.5 316 c 128,-1,69
 359 300 359 300 335 300 c 0,58,59
32 476 m 1,70,-1
 32 551 l 1,71,-1
 432 551 l 2,72,73
 478 551 478 551 498 556.5 c 128,-1,74
 518 562 518 562 529 572 c 0,75,76
 538 580 538 580 542 592.5 c 128,-1,77
 546 605 546 605 546 619 c 0,78,79
 546 652 546 652 530 684.5 c 128,-1,80
 514 717 514 717 484 749 c 1,81,-1
 546 790 l 1,82,83
 587 740 587 740 604 700 c 128,-1,84
 621 660 621 660 621 613 c 0,85,86
 621 587 621 587 612 560.5 c 128,-1,87
 603 534 603 534 583 516 c 0,88,89
 561 497 561 497 531 486.5 c 128,-1,90
 501 476 501 476 446 476 c 2,91,-1
 32 476 l 1,70,-1
EndSplineSet
EndChar

StartChar: overscore
Encoding: 175 175 174
Width: 592
Flags: W
AnchorPoint: "Anchor-0" 295 -24 basechar 0
LayerCount: 2
Fore
SplineSet
399 -12 m 0,0,1
 358 -12 358 -12 329.5 5 c 128,-1,2
 301 22 301 22 279 57 c 128,-1,3
 257 92 257 92 234 146 c 0,4,5
 219 180 219 180 207 198.5 c 128,-1,6
 195 217 195 217 183.5 224 c 128,-1,7
 172 231 172 231 157 231 c 0,8,9
 132 231 132 231 119.5 211.5 c 128,-1,10
 107 192 107 192 107 159 c 0,11,12
 107 120 107 120 119.5 84 c 128,-1,13
 132 48 132 48 151 16 c 1,14,-1
 79 -14 l 1,15,16
 57 24 57 24 43.5 67 c 128,-1,17
 30 110 30 110 30 156 c 0,18,19
 30 198 30 198 46 231.5 c 128,-1,20
 62 265 62 265 91 284.5 c 128,-1,21
 120 304 120 304 159 304 c 0,22,23
 207 304 207 304 239.5 275.5 c 128,-1,24
 272 247 272 247 301 175 c 0,25,26
 319 133 319 133 333.5 108 c 128,-1,27
 348 83 348 83 364 73.5 c 128,-1,28
 380 64 380 64 403 64 c 0,29,30
 442 64 442 64 458.5 99 c 128,-1,31
 475 134 475 134 475 186 c 0,32,33
 475 259 475 259 449.5 319 c 128,-1,34
 424 379 424 379 381.5 419.5 c 128,-1,35
 339 460 339 460 290 476 c 1,36,-1
 34 476 l 1,37,-1
 34 551 l 1,38,-1
 363 551 l 2,39,40
 410 551 410 551 429.5 556.5 c 128,-1,41
 449 562 449 562 460 572 c 0,42,43
 470 580 470 580 473.5 592.5 c 128,-1,44
 477 605 477 605 477 619 c 0,45,46
 477 652 477 652 461 684.5 c 128,-1,47
 445 717 445 717 416 749 c 1,48,-1
 478 790 l 1,49,50
 519 740 519 740 536 700 c 128,-1,51
 553 660 553 660 553 613 c 0,52,53
 553 587 553 587 543.5 560.5 c 128,-1,54
 534 534 534 534 515 516 c 0,55,56
 493 497 493 497 462.5 486.5 c 128,-1,57
 432 476 432 476 376 476 c 2,58,-1
 366 476 l 1,59,-1
 397 491 l 1,60,61
 439 465 439 465 475 421.5 c 128,-1,62
 511 378 511 378 532 320.5 c 128,-1,63
 553 263 553 263 553 194 c 0,64,65
 553 96 553 96 513.5 42 c 128,-1,66
 474 -12 474 -12 399 -12 c 0,0,1
EndSplineSet
EndChar

StartChar: brokenbar
Encoding: 166 166 176
Width: 635
Flags: W
AnchorPoint: "Anchor-0" 317 -24 basechar 0
LayerCount: 2
Fore
SplineSet
184 -12 m 0,0,1
 120 -12 120 -12 79.5 40.5 c 128,-1,2
 39 93 39 93 39 211 c 0,3,4
 39 278 39 278 54.5 332 c 128,-1,5
 70 386 70 386 99.5 426 c 128,-1,6
 129 466 129 466 168 487 c 1,7,-1
 174 476 l 1,8,-1
 39 476 l 1,9,-1
 39 551 l 1,10,-1
 406 551 l 2,11,12
 452 551 452 551 472.5 556.5 c 128,-1,13
 493 562 493 562 503 572 c 0,14,15
 513 580 513 580 516.5 592.5 c 128,-1,16
 520 605 520 605 520 619 c 0,17,18
 520 651 520 651 504 684 c 128,-1,19
 488 717 488 717 459 749 c 1,20,-1
 521 790 l 1,21,22
 562 740 562 740 579 700 c 128,-1,23
 596 660 596 660 596 613 c 0,24,25
 596 587 596 587 587.5 562 c 128,-1,26
 579 537 579 537 557 517 c 0,27,28
 548 508 548 508 535.5 500 c 128,-1,29
 523 492 523 492 507 487 c 128,-1,30
 491 482 491 482 472 479 c 1,31,-1
 477 487 l 1,32,33
 511 464 511 464 537.5 425 c 128,-1,34
 564 386 564 386 580 331.5 c 128,-1,35
 596 277 596 277 596 209 c 0,36,37
 596 98 596 98 556.5 43 c 128,-1,38
 517 -12 517 -12 447 -12 c 0,39,40
 413 -12 413 -12 387 0 c 128,-1,41
 361 12 361 12 340.5 37.5 c 128,-1,42
 320 63 320 63 302 105 c 1,43,-1
 333 110 l 1,44,45
 315 59 315 59 291.5 33 c 128,-1,46
 268 7 268 7 241.5 -2.5 c 128,-1,47
 215 -12 215 -12 184 -12 c 0,0,1
193 64 m 0,48,49
 231 64 231 64 254 97 c 128,-1,50
 277 130 277 130 282 194 c 1,51,-1
 352 194 l 1,52,53
 356 124 356 124 382 94 c 128,-1,54
 408 64 408 64 440 64 c 0,55,56
 476 64 476 64 497 96.5 c 128,-1,57
 518 129 518 129 518 211 c 0,58,59
 518 263 518 263 506 311 c 128,-1,60
 494 359 494 359 469.5 396.5 c 128,-1,61
 445 434 445 434 408.5 456 c 128,-1,62
 372 478 372 478 322 478 c 2,63,-1
 314 478 l 2,64,65
 266 478 266 478 229 457.5 c 128,-1,66
 192 437 192 437 167 400.5 c 128,-1,67
 142 364 142 364 129.5 316.5 c 128,-1,68
 117 269 117 269 117 214 c 0,69,70
 117 131 117 131 137 97.5 c 128,-1,71
 157 64 157 64 193 64 c 0,48,49
EndSplineSet
EndChar

StartChar: logicalnot
Encoding: 172 172 177
Width: 632
Flags: W
AnchorPoint: "Anchor-0" 315 -24 basechar 0
LayerCount: 2
Fore
SplineSet
314 -12 m 0,0,1
 225 -12 225 -12 162.5 27 c 128,-1,2
 100 66 100 66 67.5 138.5 c 128,-1,3
 35 211 35 211 35 310 c 0,4,5
 35 391 35 391 57.5 447 c 128,-1,6
 80 503 80 503 118.5 533 c 128,-1,7
 157 563 157 563 207 563 c 0,8,9
 244 563 244 563 271.5 547.5 c 128,-1,10
 299 532 299 532 314.5 502 c 128,-1,11
 330 472 330 472 330 429 c 0,12,13
 330 383 330 383 313 349.5 c 128,-1,14
 296 316 296 316 263 298 c 128,-1,15
 230 280 230 280 183 280 c 0,16,17
 161 280 161 280 140.5 286.5 c 128,-1,18
 120 293 120 293 103.5 303.5 c 128,-1,19
 87 314 87 314 73 326 c 1,20,-1
 91 393 l 1,21,22
 101 382 101 382 113.5 372 c 128,-1,23
 126 362 126 362 142 355 c 128,-1,24
 158 348 158 348 179 348 c 0,25,26
 217 348 217 348 236 368.5 c 128,-1,27
 255 389 255 389 255 427 c 0,28,29
 255 462 255 462 241 478.5 c 128,-1,30
 227 495 227 495 204 495 c 0,31,32
 177 495 177 495 155.5 475 c 128,-1,33
 134 455 134 455 121.5 413 c 128,-1,34
 109 371 109 371 109 306 c 0,35,36
 109 235 109 235 132 181 c 128,-1,37
 155 127 155 127 201 97 c 128,-1,38
 247 67 247 67 315 67 c 0,39,40
 381 67 381 67 426 91 c 128,-1,41
 471 115 471 115 494.5 161.5 c 128,-1,42
 518 208 518 208 518 276 c 0,43,44
 518 350 518 350 485 405 c 128,-1,45
 452 460 452 460 397 499 c 1,46,-1
 447 564 l 1,47,48
 516 516 516 516 556 443.5 c 128,-1,49
 596 371 596 371 596 273 c 0,50,51
 596 193 596 193 567 128.5 c 128,-1,52
 538 64 538 64 475.5 26 c 128,-1,53
 413 -12 413 -12 314 -12 c 0,0,1
EndSplineSet
EndChar

StartChar: plusminus
Encoding: 177 177 178
Width: 649
Flags: W
AnchorPoint: "Anchor-0" 332 -24 basechar 0
LayerCount: 2
Fore
SplineSet
465 -12 m 0,0,1
 413 -12 413 -12 378.5 15 c 128,-1,2
 344 42 344 42 317 105 c 1,3,-1
 348 108 l 1,4,5
 327 63 327 63 303.5 36.5 c 128,-1,6
 280 10 280 10 251 -1 c 128,-1,7
 222 -12 222 -12 184 -12 c 0,8,9
 138 -12 138 -12 107 9 c 128,-1,10
 76 30 76 30 61 64 c 128,-1,11
 46 98 46 98 46 136 c 0,12,13
 46 175 46 175 59 205 c 128,-1,14
 72 235 72 235 97.5 262.5 c 128,-1,15
 123 290 123 290 159 320 c 0,16,17
 190 345 190 345 206.5 368.5 c 128,-1,18
 223 392 223 392 223 424 c 0,19,20
 223 444 223 444 217.5 459.5 c 128,-1,21
 212 475 212 475 199 484 c 128,-1,22
 186 493 186 493 165 493 c 0,23,24
 132 493 132 493 117 473.5 c 128,-1,25
 102 454 102 454 102 426 c 0,26,27
 102 407 102 407 107 391.5 c 128,-1,28
 112 376 112 376 120 360 c 1,29,-1
 50 335 l 1,30,31
 38 360 38 360 31.5 384 c 128,-1,32
 25 408 25 408 25 432 c 0,33,34
 25 466 25 466 40.5 496 c 128,-1,35
 56 526 56 526 87.5 544.5 c 128,-1,36
 119 563 119 563 166 563 c 0,37,38
 217 563 217 563 246 542 c 128,-1,39
 275 521 275 521 286.5 489.5 c 128,-1,40
 298 458 298 458 298 425 c 0,41,42
 298 391 298 391 287 363 c 128,-1,43
 276 335 276 335 254 310 c 128,-1,44
 232 285 232 285 200 258 c 0,45,46
 160 225 160 225 142 197.5 c 128,-1,47
 124 170 124 170 124 137 c 0,48,49
 124 100 124 100 143.5 82 c 128,-1,50
 163 64 163 64 194 64 c 0,51,52
 244 64 244 64 268.5 96.5 c 128,-1,53
 293 129 293 129 297 194 c 1,54,-1
 367 194 l 1,55,56
 371 124 371 124 397.5 94 c 128,-1,57
 424 64 424 64 461 64 c 0,58,59
 506 64 506 64 524.5 90 c 128,-1,60
 543 116 543 116 543 149 c 256,61,62
 543 182 543 182 530.5 210.5 c 128,-1,63
 518 239 518 239 500 260 c 1,64,-1
 568 302 l 1,65,66
 592 270 592 270 606 231 c 128,-1,67
 620 192 620 192 620 150 c 0,68,69
 620 105 620 105 603.5 68 c 128,-1,70
 587 31 587 31 553 9.5 c 128,-1,71
 519 -12 519 -12 465 -12 c 0,0,1
429 312 m 0,72,73
 383 312 383 312 347.5 330 c 128,-1,74
 312 348 312 348 287.5 376.5 c 128,-1,75
 263 405 263 405 247 436 c 1,76,-1
 238 469 l 1,77,-1
 273 502 l 1,78,79
 304 444 304 444 342.5 413.5 c 128,-1,80
 381 383 381 383 424 383 c 0,81,82
 458 383 458 383 476.5 402 c 128,-1,83
 495 421 495 421 495 459 c 0,84,85
 495 482 495 482 489 504.5 c 128,-1,86
 483 527 483 527 475 541 c 1,87,-1
 549 563 l 1,88,89
 559 542 559 542 566 515 c 128,-1,90
 573 488 573 488 573 460 c 0,91,92
 573 415 573 415 556.5 381.5 c 128,-1,93
 540 348 540 348 508 330 c 128,-1,94
 476 312 476 312 429 312 c 0,72,73
EndSplineSet
EndChar

StartChar: uni00B2
Encoding: 178 178 179
Width: 690
Flags: W
AnchorPoint: "Anchor-0" 370 -24 basechar 0
LayerCount: 2
Fore
SplineSet
218 -12 m 256,0,1
 178 -12 178 -12 145 2 c 128,-1,2
 112 16 112 16 88 44.5 c 128,-1,3
 64 73 64 73 51.5 115.5 c 128,-1,4
 39 158 39 158 39 215 c 0,5,6
 39 288 39 288 59 344 c 128,-1,7
 79 400 79 400 117.5 431.5 c 128,-1,8
 156 463 156 463 210 463 c 0,9,10
 243 463 243 463 268.5 448 c 128,-1,11
 294 433 294 433 308 406.5 c 128,-1,12
 322 380 322 380 322 343 c 0,13,14
 322 303 322 303 306.5 273 c 128,-1,15
 291 243 291 243 260.5 226.5 c 128,-1,16
 230 210 230 210 185 210 c 0,17,18
 144 210 144 210 114 227.5 c 128,-1,19
 84 245 84 245 63 266 c 1,20,-1
 85 331 l 1,21,22
 97 313 97 313 121 295.5 c 128,-1,23
 145 278 145 278 182 278 c 0,24,25
 217 278 217 278 233 294 c 128,-1,26
 249 310 249 310 249 340 c 0,27,28
 249 366 249 366 237 380.5 c 128,-1,29
 225 395 225 395 206 395 c 0,30,31
 175 395 175 395 154.5 370 c 128,-1,32
 134 345 134 345 124 305 c 128,-1,33
 114 265 114 265 114 221 c 2,34,-1
 114 210 l 2,35,36
 114 169 114 169 122.5 141 c 128,-1,37
 131 113 131 113 145.5 96 c 128,-1,38
 160 79 160 79 180.5 71.5 c 128,-1,39
 201 64 201 64 224 64 c 0,40,41
 275 64 275 64 302 96.5 c 128,-1,42
 329 129 329 129 334 194 c 1,43,-1
 405 194 l 1,44,45
 410 127 410 127 435 95.5 c 128,-1,46
 460 64 460 64 502 64 c 0,47,48
 543 64 543 64 561.5 90.5 c 128,-1,49
 580 117 580 117 580 157 c 0,50,51
 580 199 580 199 562.5 230.5 c 128,-1,52
 545 262 545 262 518 283 c 128,-1,53
 491 304 491 304 463 313 c 1,54,-1
 518 357 l 1,55,56
 560 338 560 338 591 310 c 128,-1,57
 622 282 622 282 640 243 c 128,-1,58
 658 204 658 204 658 152 c 0,59,60
 658 82 658 82 621 35 c 128,-1,61
 584 -12 584 -12 506 -12 c 0,62,63
 472 -12 472 -12 444.5 -0.5 c 128,-1,64
 417 11 417 11 395 36.5 c 128,-1,65
 373 62 373 62 355 106 c 1,66,-1
 386 110 l 1,67,68
 365 66 365 66 341.5 39 c 128,-1,69
 318 12 318 12 288 0 c 128,-1,70
 258 -12 258 -12 218 -12 c 256,0,1
165 412 m 1,71,72
 123 430 123 430 100 464 c 128,-1,73
 77 498 77 498 77 537 c 0,74,75
 77 566 77 566 91 591.5 c 128,-1,76
 105 617 105 617 137 633.5 c 128,-1,77
 169 650 169 650 221 653 c 1,78,-1
 228 576 l 1,79,80
 187 575 187 575 169 561.5 c 128,-1,81
 151 548 151 548 151 525 c 0,82,83
 151 503 151 503 169 484.5 c 128,-1,84
 187 466 187 466 214 458 c 1,85,-1
 165 412 l 1,71,72
421 308 m 1,86,-1
 421 380 l 1,87,-1
 449 380 l 2,88,89
 492 380 492 380 513 385.5 c 128,-1,90
 534 391 534 391 546 401 c 0,91,92
 557 411 557 411 562 425.5 c 128,-1,93
 567 440 567 440 567 456 c 0,94,95
 567 493 567 493 541 520.5 c 128,-1,96
 515 548 515 548 466 562 c 1,97,-1
 498 636 l 1,98,99
 566 614 566 614 605 569.5 c 128,-1,100
 644 525 644 525 644 460 c 0,101,102
 644 410 644 410 617.5 373 c 128,-1,103
 591 336 591 336 542 319 c 0,104,105
 531 316 531 316 521 313.5 c 128,-1,106
 511 311 511 311 500 309.5 c 128,-1,107
 489 308 489 308 476 308 c 2,108,-1
 421 308 l 1,86,-1
EndSplineSet
EndChar

StartChar: uni00B3
Encoding: 179 179 180
Width: 638
Flags: W
AnchorPoint: "Anchor-0" 316 -24 basechar 0
LayerCount: 2
Fore
SplineSet
184 -12 m 0,0,1
 120 -12 120 -12 79.5 40.5 c 128,-1,2
 39 93 39 93 39 211 c 0,3,4
 39 278 39 278 54.5 332.5 c 128,-1,5
 70 387 70 387 99.5 426.5 c 128,-1,6
 129 466 129 466 168 487 c 1,7,-1
 176 476 l 1,8,-1
 39 476 l 1,9,-1
 39 551 l 1,10,-1
 412 551 l 2,11,12
 458 551 458 551 478.5 556.5 c 128,-1,13
 499 562 499 562 509 572 c 0,14,15
 519 580 519 580 522.5 592.5 c 128,-1,16
 526 605 526 605 526 619 c 0,17,18
 526 651 526 651 510 684 c 128,-1,19
 494 717 494 717 465 749 c 1,20,-1
 527 790 l 1,21,22
 568 740 568 740 585 700 c 128,-1,23
 602 660 602 660 602 613 c 0,24,25
 602 587 602 587 593.5 562 c 128,-1,26
 585 537 585 537 563 517 c 0,27,28
 554 508 554 508 541.5 500 c 128,-1,29
 529 492 529 492 513 487 c 128,-1,30
 497 482 497 482 478 479 c 1,31,-1
 485 489 l 1,32,33
 515 474 515 474 534.5 450.5 c 128,-1,34
 554 427 554 427 563.5 398.5 c 128,-1,35
 573 370 573 370 573 341 c 0,36,37
 573 322 573 322 571 306.5 c 128,-1,38
 569 291 569 291 564 276 c 0,39,40
 562 272 562 272 557.5 267 c 128,-1,41
 553 262 553 262 550 258 c 0,42,43
 535 232 535 232 512 213.5 c 128,-1,44
 489 195 489 195 447 195 c 0,45,46
 419 195 419 195 394.5 206.5 c 128,-1,47
 370 218 370 218 355.5 242 c 128,-1,48
 341 266 341 266 341 302 c 0,49,50
 341 352 341 352 371 377 c 128,-1,51
 401 402 401 402 439 402 c 0,52,53
 468 402 468 402 489.5 391.5 c 128,-1,54
 511 381 511 381 526 368 c 0,55,56
 564 343 564 343 583 296.5 c 128,-1,57
 602 250 602 250 602 184 c 0,58,59
 602 126 602 126 583 81.5 c 128,-1,60
 564 37 564 37 530 12.5 c 128,-1,61
 496 -12 496 -12 451 -12 c 0,62,63
 398 -12 398 -12 363 15 c 128,-1,64
 328 42 328 42 302 105 c 1,65,-1
 333 110 l 1,66,67
 315 59 315 59 291.5 33 c 128,-1,68
 268 7 268 7 241.5 -2.5 c 128,-1,69
 215 -12 215 -12 184 -12 c 0,0,1
193 64 m 0,70,71
 231 64 231 64 253 95 c 128,-1,72
 275 126 275 126 282 183 c 1,73,-1
 352 183 l 1,74,75
 359 121 359 121 384 92.5 c 128,-1,76
 409 64 409 64 445 64 c 0,77,78
 469 64 469 64 488 76.5 c 128,-1,79
 507 89 507 89 518.5 115.5 c 128,-1,80
 530 142 530 142 530 186 c 0,81,82
 530 222 530 222 522 258.5 c 128,-1,83
 514 295 514 295 497 319 c 128,-1,84
 480 343 480 343 451 343 c 0,85,86
 433 343 433 343 422.5 332 c 128,-1,87
 412 321 412 321 412 302 c 0,88,89
 412 280 412 280 422.5 268 c 128,-1,90
 433 256 433 256 453 256 c 0,91,92
 469 256 469 256 481.5 263 c 128,-1,93
 494 270 494 270 501.5 284.5 c 128,-1,94
 509 299 509 299 509 322 c 0,95,96
 509 352 509 352 497 380 c 128,-1,97
 485 408 485 408 462 430 c 128,-1,98
 439 452 439 452 409 465 c 128,-1,99
 379 478 379 478 344 478 c 2,100,-1
 314 478 l 2,101,102
 266 478 266 478 229 457.5 c 128,-1,103
 192 437 192 437 167 401 c 128,-1,104
 142 365 142 365 129.5 317 c 128,-1,105
 117 269 117 269 117 214 c 0,106,107
 117 131 117 131 137 97.5 c 128,-1,108
 157 64 157 64 193 64 c 0,70,71
EndSplineSet
EndChar

StartChar: mu
Encoding: 181 181 181
Width: 671
Flags: W
AnchorPoint: "Anchor-0" 332 -24 basechar 0
LayerCount: 2
Fore
SplineSet
465 -12 m 0,0,1
 430 -12 430 -12 403.5 0 c 128,-1,2
 377 12 377 12 356 38 c 128,-1,3
 335 64 335 64 317 106 c 1,4,-1
 348 108 l 1,5,6
 327 63 327 63 303.5 36.5 c 128,-1,7
 280 10 280 10 251 -1 c 128,-1,8
 222 -12 222 -12 184 -12 c 0,9,10
 138 -12 138 -12 107 9 c 128,-1,11
 76 30 76 30 61 64 c 128,-1,12
 46 98 46 98 46 136 c 0,13,14
 46 175 46 175 59 205 c 128,-1,15
 72 235 72 235 97.5 262.5 c 128,-1,16
 123 290 123 290 159 320 c 0,17,18
 190 345 190 345 206.5 368.5 c 128,-1,19
 223 392 223 392 223 424 c 0,20,21
 223 444 223 444 217.5 459.5 c 128,-1,22
 212 475 212 475 199 484 c 128,-1,23
 186 493 186 493 165 493 c 0,24,25
 132 493 132 493 117 473.5 c 128,-1,26
 102 454 102 454 102 426 c 0,27,28
 102 407 102 407 107 391.5 c 128,-1,29
 112 376 112 376 120 360 c 1,30,-1
 50 335 l 1,31,32
 38 360 38 360 31.5 384 c 128,-1,33
 25 408 25 408 25 432 c 0,34,35
 25 466 25 466 40.5 496 c 128,-1,36
 56 526 56 526 87.5 544.5 c 128,-1,37
 119 563 119 563 166 563 c 0,38,39
 217 563 217 563 246 542 c 128,-1,40
 275 521 275 521 287.5 489 c 128,-1,41
 300 457 300 457 300 425 c 0,42,43
 300 391 300 391 288.5 363 c 128,-1,44
 277 335 277 335 254.5 310 c 128,-1,45
 232 285 232 285 200 258 c 0,46,47
 160 225 160 225 142 197.5 c 128,-1,48
 124 170 124 170 124 137 c 0,49,50
 124 100 124 100 143.5 82 c 128,-1,51
 163 64 163 64 194 64 c 0,52,53
 244 64 244 64 268.5 96.5 c 128,-1,54
 293 129 293 129 297 194 c 1,55,-1
 367 194 l 1,56,57
 371 124 371 124 397.5 94 c 128,-1,58
 424 64 424 64 463 64 c 0,59,60
 506 64 506 64 531.5 101.5 c 128,-1,61
 557 139 557 139 557 209 c 0,62,63
 557 274 557 274 535 328.5 c 128,-1,64
 513 383 513 383 476 426 c 128,-1,65
 439 469 439 469 393 498 c 1,66,-1
 443 564 l 1,67,68
 497 528 497 528 540.5 476 c 128,-1,69
 584 424 584 424 609.5 357.5 c 128,-1,70
 635 291 635 291 635 211 c 0,71,72
 635 145 635 145 616 94.5 c 128,-1,73
 597 44 597 44 559.5 16 c 128,-1,74
 522 -12 522 -12 465 -12 c 0,0,1
EndSplineSet
EndChar

StartChar: onehalf
Encoding: 189 189 184
Width: 507
Flags: W
LayerCount: 2
Fore
SplineSet
416 0 m 1,0,-1
 354 222 l 1,1,-1
 152 222 l 1,2,-1
 90 0 l 1,3,-1
 0 0 l 1,4,-1
 205 715 l 1,5,-1
 300 715 l 1,6,-1
 506 0 l 1,7,-1
 416 0 l 1,0,-1
274 530 m 2,8,9
 271 545 271 545 266 563.5 c 128,-1,10
 261 582 261 582 257.5 601 c 128,-1,11
 254 620 254 620 251 634 c 1,12,13
 249 617 249 617 245.5 599 c 128,-1,14
 242 581 242 581 238 564 c 128,-1,15
 234 547 234 547 230 530 c 2,16,-1
 170 301 l 1,17,-1
 335 301 l 1,18,-1
 274 530 l 2,8,9
EndSplineSet
EndChar

StartChar: threequarters
Encoding: 190 190 185
Width: 529
Flags: W
LayerCount: 2
Fore
SplineSet
252 714 m 2,0,1
 359 714 359 714 413.5 672 c 128,-1,2
 468 630 468 630 468 541 c 0,3,4
 468 496 468 496 455 462.5 c 128,-1,5
 442 429 442 429 417 407.5 c 128,-1,6
 392 386 392 386 355 378 c 1,7,-1
 355 374 l 1,8,9
 397 366 397 366 426 345 c 128,-1,10
 455 324 455 324 470 289.5 c 128,-1,11
 485 255 485 255 485 204 c 0,12,13
 485 142 485 142 461.5 96 c 128,-1,14
 438 50 438 50 393 25 c 128,-1,15
 348 0 348 0 284 0 c 2,16,-1
 80 0 l 1,17,-1
 80 714 l 1,18,-1
 252 714 l 2,0,1
257 409 m 2,19,20
 324 409 324 409 352 439.5 c 128,-1,21
 380 470 380 470 380 532 c 0,22,23
 380 587 380 587 348.5 614 c 128,-1,24
 317 641 317 641 252 641 c 2,25,-1
 166 641 l 1,26,-1
 166 409 l 1,27,-1
 257 409 l 2,19,20
166 336 m 1,28,-1
 166 74 l 1,29,-1
 272 74 l 2,30,31
 337 74 337 74 366.5 109 c 128,-1,32
 396 144 396 144 396 209 c 0,33,34
 396 250 396 250 381.5 278.5 c 128,-1,35
 367 307 367 307 337.5 321.5 c 128,-1,36
 308 336 308 336 263 336 c 2,37,-1
 166 336 l 1,28,-1
EndSplineSet
EndChar

StartChar: uni0080
Encoding: 128 128 186
Width: 480
Flags: W
LayerCount: 2
Fore
SplineSet
40 85 m 0,0,1
 40 103 40 103 55.5 118 c 128,-1,2
 71 133 71 133 99 144.5 c 128,-1,3
 127 156 127 156 164.5 162.5 c 128,-1,4
 202 169 202 169 245 169 c 0,5,6
 289 169 289 169 326.5 162.5 c 128,-1,7
 364 156 364 156 391.5 144.5 c 128,-1,8
 419 133 419 133 435 118 c 128,-1,9
 451 103 451 103 451 85 c 0,10,11
 451 68 451 68 435 53 c 128,-1,12
 419 38 419 38 391.5 27 c 128,-1,13
 364 16 364 16 326.5 9.5 c 128,-1,14
 289 3 289 3 245 3 c 0,15,16
 202 3 202 3 164.5 9.5 c 128,-1,17
 127 16 127 16 99 27 c 128,-1,18
 71 38 71 38 55.5 53 c 128,-1,19
 40 68 40 68 40 85 c 0,0,1
120 85 m 256,20,21
 120 74 120 74 129.5 64.5 c 128,-1,22
 139 55 139 55 156 48.5 c 128,-1,23
 173 42 173 42 196 38 c 128,-1,24
 219 34 219 34 245 34 c 0,25,26
 272 34 272 34 294.5 38 c 128,-1,27
 317 42 317 42 334 48.5 c 128,-1,28
 351 55 351 55 360.5 64.5 c 128,-1,29
 370 74 370 74 370 85 c 256,30,31
 370 96 370 96 360.5 105.5 c 128,-1,32
 351 115 351 115 334 122 c 128,-1,33
 317 129 317 129 294.5 133 c 128,-1,34
 272 137 272 137 245 137 c 0,35,36
 219 137 219 137 196 133 c 128,-1,37
 173 129 173 129 156 122 c 128,-1,38
 139 115 139 115 129.5 105.5 c 128,-1,39
 120 96 120 96 120 85 c 256,20,21
40 272 m 0,40,41
 40 290 40 290 55.5 305 c 128,-1,42
 71 320 71 320 99 331.5 c 128,-1,43
 127 343 127 343 164.5 349 c 128,-1,44
 202 355 202 355 245 355 c 0,45,46
 289 355 289 355 326.5 349 c 128,-1,47
 364 343 364 343 391.5 331.5 c 128,-1,48
 419 320 419 320 435 305 c 128,-1,49
 451 290 451 290 451 272 c 0,50,51
 451 255 451 255 435 240 c 128,-1,52
 419 225 419 225 391.5 214 c 128,-1,53
 364 203 364 203 326.5 196 c 128,-1,54
 289 189 289 189 245 189 c 0,55,56
 202 189 202 189 164.5 196 c 128,-1,57
 127 203 127 203 99 214 c 128,-1,58
 71 225 71 225 55.5 240 c 128,-1,59
 40 255 40 255 40 272 c 0,40,41
120 272 m 256,60,61
 120 261 120 261 129.5 251.5 c 128,-1,62
 139 242 139 242 156 235 c 128,-1,63
 173 228 173 228 196 224 c 128,-1,64
 219 220 219 220 245 220 c 0,65,66
 272 220 272 220 294.5 224 c 128,-1,67
 317 228 317 228 334 235 c 128,-1,68
 351 242 351 242 360.5 251.5 c 128,-1,69
 370 261 370 261 370 272 c 256,70,71
 370 283 370 283 360.5 292.5 c 128,-1,72
 351 302 351 302 334 309 c 128,-1,73
 317 316 317 316 294.5 320 c 128,-1,74
 272 324 272 324 245 324 c 0,75,76
 219 324 219 324 196 320 c 128,-1,77
 173 316 173 316 156 309 c 128,-1,78
 139 302 139 302 129.5 292.5 c 128,-1,79
 120 283 120 283 120 272 c 256,60,61
40 461 m 256,80,81
 40 478 40 478 55.5 493.5 c 128,-1,82
 71 509 71 509 99 520 c 128,-1,83
 127 531 127 531 164.5 537.5 c 128,-1,84
 202 544 202 544 245 544 c 0,85,86
 289 544 289 544 326.5 537.5 c 128,-1,87
 364 531 364 531 391.5 520 c 128,-1,88
 419 509 419 509 435 493.5 c 128,-1,89
 451 478 451 478 451 461 c 256,90,91
 451 444 451 444 435 429 c 128,-1,92
 419 414 419 414 391.5 402.5 c 128,-1,93
 364 391 364 391 326.5 384.5 c 128,-1,94
 289 378 289 378 245 378 c 0,95,96
 202 378 202 378 164.5 384.5 c 128,-1,97
 127 391 127 391 99 402.5 c 128,-1,98
 71 414 71 414 55.5 429 c 128,-1,99
 40 444 40 444 40 461 c 256,80,81
120 461 m 256,100,101
 120 450 120 450 129.5 440.5 c 128,-1,102
 139 431 139 431 156 424 c 128,-1,103
 173 417 173 417 196 413 c 128,-1,104
 219 409 219 409 245 409 c 0,105,106
 272 409 272 409 294.5 413 c 128,-1,107
 317 417 317 417 334 424 c 128,-1,108
 351 431 351 431 360.5 440.5 c 128,-1,109
 370 450 370 450 370 461 c 256,110,111
 370 472 370 472 360.5 481.5 c 128,-1,112
 351 491 351 491 334 498 c 128,-1,113
 317 505 317 505 294.5 509 c 128,-1,114
 272 513 272 513 245 513 c 0,115,116
 219 513 219 513 196 509 c 128,-1,117
 173 505 173 505 156 498 c 128,-1,118
 139 491 139 491 129.5 481.5 c 128,-1,119
 120 472 120 472 120 461 c 256,100,101
40 648 m 256,120,121
 40 665 40 665 55.5 680.5 c 128,-1,122
 71 696 71 696 99 707 c 128,-1,123
 127 718 127 718 164.5 724.5 c 128,-1,124
 202 731 202 731 245 731 c 0,125,126
 289 731 289 731 326.5 724.5 c 128,-1,127
 364 718 364 718 391.5 707 c 128,-1,128
 419 696 419 696 435 680.5 c 128,-1,129
 451 665 451 665 451 648 c 256,130,131
 451 631 451 631 435 616 c 128,-1,132
 419 601 419 601 391.5 589.5 c 128,-1,133
 364 578 364 578 326.5 571.5 c 128,-1,134
 289 565 289 565 245 565 c 0,135,136
 202 565 202 565 164.5 571.5 c 128,-1,137
 127 578 127 578 99 589.5 c 128,-1,138
 71 601 71 601 55.5 616 c 128,-1,139
 40 631 40 631 40 648 c 256,120,121
120 648 m 0,140,141
 120 637 120 637 129.5 627.5 c 128,-1,142
 139 618 139 618 156 611 c 128,-1,143
 173 604 173 604 196 600 c 128,-1,144
 219 596 219 596 245 596 c 0,145,146
 272 596 272 596 294.5 600 c 128,-1,147
 317 604 317 604 334 611 c 128,-1,148
 351 618 351 618 360.5 627.5 c 128,-1,149
 370 637 370 637 370 648 c 0,150,151
 370 658 370 658 360.5 668 c 128,-1,152
 351 678 351 678 334 685 c 128,-1,153
 317 692 317 692 294.5 696 c 128,-1,154
 272 700 272 700 245 700 c 0,155,156
 219 700 219 700 196 696 c 128,-1,157
 173 692 173 692 156 685 c 128,-1,158
 139 678 139 678 129.5 668 c 128,-1,159
 120 658 120 658 120 648 c 0,140,141
EndSplineSet
EndChar

StartChar: uni0081
Encoding: 129 129 187
Width: 480
Flags: W
LayerCount: 2
Fore
SplineSet
40 85 m 0,0,1
 40 103 40 103 55.5 118 c 128,-1,2
 71 133 71 133 99 144.5 c 128,-1,3
 127 156 127 156 164.5 162.5 c 128,-1,4
 202 169 202 169 245 169 c 0,5,6
 289 169 289 169 326.5 162.5 c 128,-1,7
 364 156 364 156 391.5 144.5 c 128,-1,8
 419 133 419 133 435 118 c 128,-1,9
 451 103 451 103 451 85 c 0,10,11
 451 68 451 68 435 53 c 128,-1,12
 419 38 419 38 391.5 27 c 128,-1,13
 364 16 364 16 326.5 9.5 c 128,-1,14
 289 3 289 3 245 3 c 0,15,16
 202 3 202 3 164.5 9.5 c 128,-1,17
 127 16 127 16 99 27 c 128,-1,18
 71 38 71 38 55.5 53 c 128,-1,19
 40 68 40 68 40 85 c 0,0,1
40 272 m 0,20,21
 40 290 40 290 55.5 305 c 128,-1,22
 71 320 71 320 99 331.5 c 128,-1,23
 127 343 127 343 164.5 349 c 128,-1,24
 202 355 202 355 245 355 c 0,25,26
 289 355 289 355 326.5 349 c 128,-1,27
 364 343 364 343 391.5 331.5 c 128,-1,28
 419 320 419 320 435 305 c 128,-1,29
 451 290 451 290 451 272 c 0,30,31
 451 255 451 255 435 240 c 128,-1,32
 419 225 419 225 391.5 214 c 128,-1,33
 364 203 364 203 326.5 196 c 128,-1,34
 289 189 289 189 245 189 c 0,35,36
 202 189 202 189 164.5 196 c 128,-1,37
 127 203 127 203 99 214 c 128,-1,38
 71 225 71 225 55.5 240 c 128,-1,39
 40 255 40 255 40 272 c 0,20,21
120 272 m 256,40,41
 120 261 120 261 129.5 251.5 c 128,-1,42
 139 242 139 242 156 235 c 128,-1,43
 173 228 173 228 196 224 c 128,-1,44
 219 220 219 220 245 220 c 0,45,46
 272 220 272 220 294.5 224 c 128,-1,47
 317 228 317 228 334 235 c 128,-1,48
 351 242 351 242 360.5 251.5 c 128,-1,49
 370 261 370 261 370 272 c 256,50,51
 370 283 370 283 360.5 292.5 c 128,-1,52
 351 302 351 302 334 309 c 128,-1,53
 317 316 317 316 294.5 320 c 128,-1,54
 272 324 272 324 245 324 c 0,55,56
 219 324 219 324 196 320 c 128,-1,57
 173 316 173 316 156 309 c 128,-1,58
 139 302 139 302 129.5 292.5 c 128,-1,59
 120 283 120 283 120 272 c 256,40,41
40 461 m 256,60,61
 40 478 40 478 55.5 493.5 c 128,-1,62
 71 509 71 509 99 520 c 128,-1,63
 127 531 127 531 164.5 537.5 c 128,-1,64
 202 544 202 544 245 544 c 0,65,66
 289 544 289 544 326.5 537.5 c 128,-1,67
 364 531 364 531 391.5 520 c 128,-1,68
 419 509 419 509 435 493.5 c 128,-1,69
 451 478 451 478 451 461 c 256,70,71
 451 444 451 444 435 429 c 128,-1,72
 419 414 419 414 391.5 402.5 c 128,-1,73
 364 391 364 391 326.5 384.5 c 128,-1,74
 289 378 289 378 245 378 c 0,75,76
 202 378 202 378 164.5 384.5 c 128,-1,77
 127 391 127 391 99 402.5 c 128,-1,78
 71 414 71 414 55.5 429 c 128,-1,79
 40 444 40 444 40 461 c 256,60,61
120 461 m 256,80,81
 120 450 120 450 129.5 440.5 c 128,-1,82
 139 431 139 431 156 424 c 128,-1,83
 173 417 173 417 196 413 c 128,-1,84
 219 409 219 409 245 409 c 0,85,86
 272 409 272 409 294.5 413 c 128,-1,87
 317 417 317 417 334 424 c 128,-1,88
 351 431 351 431 360.5 440.5 c 128,-1,89
 370 450 370 450 370 461 c 256,90,91
 370 472 370 472 360.5 481.5 c 128,-1,92
 351 491 351 491 334 498 c 128,-1,93
 317 505 317 505 294.5 509 c 128,-1,94
 272 513 272 513 245 513 c 0,95,96
 219 513 219 513 196 509 c 128,-1,97
 173 505 173 505 156 498 c 128,-1,98
 139 491 139 491 129.5 481.5 c 128,-1,99
 120 472 120 472 120 461 c 256,80,81
40 648 m 256,100,101
 40 665 40 665 55.5 680.5 c 128,-1,102
 71 696 71 696 99 707 c 128,-1,103
 127 718 127 718 164.5 724.5 c 128,-1,104
 202 731 202 731 245 731 c 0,105,106
 289 731 289 731 326.5 724.5 c 128,-1,107
 364 718 364 718 391.5 707 c 128,-1,108
 419 696 419 696 435 680.5 c 128,-1,109
 451 665 451 665 451 648 c 256,110,111
 451 631 451 631 435 616 c 128,-1,112
 419 601 419 601 391.5 589.5 c 128,-1,113
 364 578 364 578 326.5 571.5 c 128,-1,114
 289 565 289 565 245 565 c 0,115,116
 202 565 202 565 164.5 571.5 c 128,-1,117
 127 578 127 578 99 589.5 c 128,-1,118
 71 601 71 601 55.5 616 c 128,-1,119
 40 631 40 631 40 648 c 256,100,101
120 648 m 0,120,121
 120 637 120 637 129.5 627.5 c 128,-1,122
 139 618 139 618 156 611 c 128,-1,123
 173 604 173 604 196 600 c 128,-1,124
 219 596 219 596 245 596 c 0,125,126
 272 596 272 596 294.5 600 c 128,-1,127
 317 604 317 604 334 611 c 128,-1,128
 351 618 351 618 360.5 627.5 c 128,-1,129
 370 637 370 637 370 648 c 0,130,131
 370 658 370 658 360.5 668 c 128,-1,132
 351 678 351 678 334 685 c 128,-1,133
 317 692 317 692 294.5 696 c 128,-1,134
 272 700 272 700 245 700 c 0,135,136
 219 700 219 700 196 696 c 128,-1,137
 173 692 173 692 156 685 c 128,-1,138
 139 678 139 678 129.5 668 c 128,-1,139
 120 658 120 658 120 648 c 0,120,121
EndSplineSet
EndChar

StartChar: uni0082
Encoding: 130 130 188
Width: 480
Flags: W
LayerCount: 2
Fore
SplineSet
40 85 m 0,0,1
 40 103 40 103 55.5 118 c 128,-1,2
 71 133 71 133 99 144.5 c 128,-1,3
 127 156 127 156 164.5 162.5 c 128,-1,4
 202 169 202 169 245 169 c 0,5,6
 289 169 289 169 326.5 162.5 c 128,-1,7
 364 156 364 156 391.5 144.5 c 128,-1,8
 419 133 419 133 435 118 c 128,-1,9
 451 103 451 103 451 85 c 0,10,11
 451 68 451 68 435 53 c 128,-1,12
 419 38 419 38 391.5 27 c 128,-1,13
 364 16 364 16 326.5 9.5 c 128,-1,14
 289 3 289 3 245 3 c 0,15,16
 202 3 202 3 164.5 9.5 c 128,-1,17
 127 16 127 16 99 27 c 128,-1,18
 71 38 71 38 55.5 53 c 128,-1,19
 40 68 40 68 40 85 c 0,0,1
120 85 m 256,20,21
 120 74 120 74 129.5 64.5 c 128,-1,22
 139 55 139 55 156 48.5 c 128,-1,23
 173 42 173 42 196 38 c 128,-1,24
 219 34 219 34 245 34 c 0,25,26
 272 34 272 34 294.5 38 c 128,-1,27
 317 42 317 42 334 48.5 c 128,-1,28
 351 55 351 55 360.5 64.5 c 128,-1,29
 370 74 370 74 370 85 c 256,30,31
 370 96 370 96 360.5 105.5 c 128,-1,32
 351 115 351 115 334 122 c 128,-1,33
 317 129 317 129 294.5 133 c 128,-1,34
 272 137 272 137 245 137 c 0,35,36
 219 137 219 137 196 133 c 128,-1,37
 173 129 173 129 156 122 c 128,-1,38
 139 115 139 115 129.5 105.5 c 128,-1,39
 120 96 120 96 120 85 c 256,20,21
40 272 m 0,40,41
 40 290 40 290 55.5 305 c 128,-1,42
 71 320 71 320 99 331.5 c 128,-1,43
 127 343 127 343 164.5 349 c 128,-1,44
 202 355 202 355 245 355 c 0,45,46
 289 355 289 355 326.5 349 c 128,-1,47
 364 343 364 343 391.5 331.5 c 128,-1,48
 419 320 419 320 435 305 c 128,-1,49
 451 290 451 290 451 272 c 0,50,51
 451 255 451 255 435 240 c 128,-1,52
 419 225 419 225 391.5 214 c 128,-1,53
 364 203 364 203 326.5 196 c 128,-1,54
 289 189 289 189 245 189 c 0,55,56
 202 189 202 189 164.5 196 c 128,-1,57
 127 203 127 203 99 214 c 128,-1,58
 71 225 71 225 55.5 240 c 128,-1,59
 40 255 40 255 40 272 c 0,40,41
40 461 m 256,60,61
 40 478 40 478 55.5 493.5 c 128,-1,62
 71 509 71 509 99 520 c 128,-1,63
 127 531 127 531 164.5 537.5 c 128,-1,64
 202 544 202 544 245 544 c 0,65,66
 289 544 289 544 326.5 537.5 c 128,-1,67
 364 531 364 531 391.5 520 c 128,-1,68
 419 509 419 509 435 493.5 c 128,-1,69
 451 478 451 478 451 461 c 256,70,71
 451 444 451 444 435 429 c 128,-1,72
 419 414 419 414 391.5 402.5 c 128,-1,73
 364 391 364 391 326.5 384.5 c 128,-1,74
 289 378 289 378 245 378 c 0,75,76
 202 378 202 378 164.5 384.5 c 128,-1,77
 127 391 127 391 99 402.5 c 128,-1,78
 71 414 71 414 55.5 429 c 128,-1,79
 40 444 40 444 40 461 c 256,60,61
120 461 m 256,80,81
 120 450 120 450 129.5 440.5 c 128,-1,82
 139 431 139 431 156 424 c 128,-1,83
 173 417 173 417 196 413 c 128,-1,84
 219 409 219 409 245 409 c 0,85,86
 272 409 272 409 294.5 413 c 128,-1,87
 317 417 317 417 334 424 c 128,-1,88
 351 431 351 431 360.5 440.5 c 128,-1,89
 370 450 370 450 370 461 c 256,90,91
 370 472 370 472 360.5 481.5 c 128,-1,92
 351 491 351 491 334 498 c 128,-1,93
 317 505 317 505 294.5 509 c 128,-1,94
 272 513 272 513 245 513 c 0,95,96
 219 513 219 513 196 509 c 128,-1,97
 173 505 173 505 156 498 c 128,-1,98
 139 491 139 491 129.5 481.5 c 128,-1,99
 120 472 120 472 120 461 c 256,80,81
40 648 m 256,100,101
 40 665 40 665 55.5 680.5 c 128,-1,102
 71 696 71 696 99 707 c 128,-1,103
 127 718 127 718 164.5 724.5 c 128,-1,104
 202 731 202 731 245 731 c 0,105,106
 289 731 289 731 326.5 724.5 c 128,-1,107
 364 718 364 718 391.5 707 c 128,-1,108
 419 696 419 696 435 680.5 c 128,-1,109
 451 665 451 665 451 648 c 256,110,111
 451 631 451 631 435 616 c 128,-1,112
 419 601 419 601 391.5 589.5 c 128,-1,113
 364 578 364 578 326.5 571.5 c 128,-1,114
 289 565 289 565 245 565 c 0,115,116
 202 565 202 565 164.5 571.5 c 128,-1,117
 127 578 127 578 99 589.5 c 128,-1,118
 71 601 71 601 55.5 616 c 128,-1,119
 40 631 40 631 40 648 c 256,100,101
120 648 m 0,120,121
 120 637 120 637 129.5 627.5 c 128,-1,122
 139 618 139 618 156 611 c 128,-1,123
 173 604 173 604 196 600 c 128,-1,124
 219 596 219 596 245 596 c 0,125,126
 272 596 272 596 294.5 600 c 128,-1,127
 317 604 317 604 334 611 c 128,-1,128
 351 618 351 618 360.5 627.5 c 128,-1,129
 370 637 370 637 370 648 c 0,130,131
 370 658 370 658 360.5 668 c 128,-1,132
 351 678 351 678 334 685 c 128,-1,133
 317 692 317 692 294.5 696 c 128,-1,134
 272 700 272 700 245 700 c 0,135,136
 219 700 219 700 196 696 c 128,-1,137
 173 692 173 692 156 685 c 128,-1,138
 139 678 139 678 129.5 668 c 128,-1,139
 120 658 120 658 120 648 c 0,120,121
EndSplineSet
EndChar

StartChar: uni0083
Encoding: 131 131 189
Width: 480
Flags: W
LayerCount: 2
Fore
SplineSet
40 85 m 0,0,1
 40 103 40 103 55.5 118 c 128,-1,2
 71 133 71 133 99 144.5 c 128,-1,3
 127 156 127 156 164.5 162.5 c 128,-1,4
 202 169 202 169 245 169 c 0,5,6
 289 169 289 169 326.5 162.5 c 128,-1,7
 364 156 364 156 391.5 144.5 c 128,-1,8
 419 133 419 133 435 118 c 128,-1,9
 451 103 451 103 451 85 c 0,10,11
 451 68 451 68 435 53 c 128,-1,12
 419 38 419 38 391.5 27 c 128,-1,13
 364 16 364 16 326.5 9.5 c 128,-1,14
 289 3 289 3 245 3 c 0,15,16
 202 3 202 3 164.5 9.5 c 128,-1,17
 127 16 127 16 99 27 c 128,-1,18
 71 38 71 38 55.5 53 c 128,-1,19
 40 68 40 68 40 85 c 0,0,1
40 272 m 0,20,21
 40 290 40 290 55.5 305 c 128,-1,22
 71 320 71 320 99 331.5 c 128,-1,23
 127 343 127 343 164.5 349 c 128,-1,24
 202 355 202 355 245 355 c 0,25,26
 289 355 289 355 326.5 349 c 128,-1,27
 364 343 364 343 391.5 331.5 c 128,-1,28
 419 320 419 320 435 305 c 128,-1,29
 451 290 451 290 451 272 c 0,30,31
 451 255 451 255 435 240 c 128,-1,32
 419 225 419 225 391.5 214 c 128,-1,33
 364 203 364 203 326.5 196 c 128,-1,34
 289 189 289 189 245 189 c 0,35,36
 202 189 202 189 164.5 196 c 128,-1,37
 127 203 127 203 99 214 c 128,-1,38
 71 225 71 225 55.5 240 c 128,-1,39
 40 255 40 255 40 272 c 0,20,21
40 461 m 256,40,41
 40 478 40 478 55.5 493.5 c 128,-1,42
 71 509 71 509 99 520 c 128,-1,43
 127 531 127 531 164.5 537.5 c 128,-1,44
 202 544 202 544 245 544 c 0,45,46
 289 544 289 544 326.5 537.5 c 128,-1,47
 364 531 364 531 391.5 520 c 128,-1,48
 419 509 419 509 435 493.5 c 128,-1,49
 451 478 451 478 451 461 c 256,50,51
 451 444 451 444 435 429 c 128,-1,52
 419 414 419 414 391.5 402.5 c 128,-1,53
 364 391 364 391 326.5 384.5 c 128,-1,54
 289 378 289 378 245 378 c 0,55,56
 202 378 202 378 164.5 384.5 c 128,-1,57
 127 391 127 391 99 402.5 c 128,-1,58
 71 414 71 414 55.5 429 c 128,-1,59
 40 444 40 444 40 461 c 256,40,41
120 461 m 256,60,61
 120 450 120 450 129.5 440.5 c 128,-1,62
 139 431 139 431 156 424 c 128,-1,63
 173 417 173 417 196 413 c 128,-1,64
 219 409 219 409 245 409 c 0,65,66
 272 409 272 409 294.5 413 c 128,-1,67
 317 417 317 417 334 424 c 128,-1,68
 351 431 351 431 360.5 440.5 c 128,-1,69
 370 450 370 450 370 461 c 256,70,71
 370 472 370 472 360.5 481.5 c 128,-1,72
 351 491 351 491 334 498 c 128,-1,73
 317 505 317 505 294.5 509 c 128,-1,74
 272 513 272 513 245 513 c 0,75,76
 219 513 219 513 196 509 c 128,-1,77
 173 505 173 505 156 498 c 128,-1,78
 139 491 139 491 129.5 481.5 c 128,-1,79
 120 472 120 472 120 461 c 256,60,61
40 648 m 256,80,81
 40 665 40 665 55.5 680.5 c 128,-1,82
 71 696 71 696 99 707 c 128,-1,83
 127 718 127 718 164.5 724.5 c 128,-1,84
 202 731 202 731 245 731 c 0,85,86
 289 731 289 731 326.5 724.5 c 128,-1,87
 364 718 364 718 391.5 707 c 128,-1,88
 419 696 419 696 435 680.5 c 128,-1,89
 451 665 451 665 451 648 c 256,90,91
 451 631 451 631 435 616 c 128,-1,92
 419 601 419 601 391.5 589.5 c 128,-1,93
 364 578 364 578 326.5 571.5 c 128,-1,94
 289 565 289 565 245 565 c 0,95,96
 202 565 202 565 164.5 571.5 c 128,-1,97
 127 578 127 578 99 589.5 c 128,-1,98
 71 601 71 601 55.5 616 c 128,-1,99
 40 631 40 631 40 648 c 256,80,81
120 648 m 0,100,101
 120 637 120 637 129.5 627.5 c 128,-1,102
 139 618 139 618 156 611 c 128,-1,103
 173 604 173 604 196 600 c 128,-1,104
 219 596 219 596 245 596 c 0,105,106
 272 596 272 596 294.5 600 c 128,-1,107
 317 604 317 604 334 611 c 128,-1,108
 351 618 351 618 360.5 627.5 c 128,-1,109
 370 637 370 637 370 648 c 0,110,111
 370 658 370 658 360.5 668 c 128,-1,112
 351 678 351 678 334 685 c 128,-1,113
 317 692 317 692 294.5 696 c 128,-1,114
 272 700 272 700 245 700 c 0,115,116
 219 700 219 700 196 696 c 128,-1,117
 173 692 173 692 156 685 c 128,-1,118
 139 678 139 678 129.5 668 c 128,-1,119
 120 658 120 658 120 648 c 0,100,101
EndSplineSet
EndChar

StartChar: uni0084
Encoding: 132 132 190
Width: 480
Flags: W
LayerCount: 2
Fore
SplineSet
40 85 m 0,0,1
 40 103 40 103 55.5 118 c 128,-1,2
 71 133 71 133 99 144.5 c 128,-1,3
 127 156 127 156 164.5 162.5 c 128,-1,4
 202 169 202 169 245 169 c 0,5,6
 289 169 289 169 326.5 162.5 c 128,-1,7
 364 156 364 156 391.5 144.5 c 128,-1,8
 419 133 419 133 435 118 c 128,-1,9
 451 103 451 103 451 85 c 0,10,11
 451 68 451 68 435 53 c 128,-1,12
 419 38 419 38 391.5 27 c 128,-1,13
 364 16 364 16 326.5 9.5 c 128,-1,14
 289 3 289 3 245 3 c 0,15,16
 202 3 202 3 164.5 9.5 c 128,-1,17
 127 16 127 16 99 27 c 128,-1,18
 71 38 71 38 55.5 53 c 128,-1,19
 40 68 40 68 40 85 c 0,0,1
120 85 m 256,20,21
 120 74 120 74 129.5 64.5 c 128,-1,22
 139 55 139 55 156 48.5 c 128,-1,23
 173 42 173 42 196 38 c 128,-1,24
 219 34 219 34 245 34 c 0,25,26
 272 34 272 34 294.5 38 c 128,-1,27
 317 42 317 42 334 48.5 c 128,-1,28
 351 55 351 55 360.5 64.5 c 128,-1,29
 370 74 370 74 370 85 c 256,30,31
 370 96 370 96 360.5 105.5 c 128,-1,32
 351 115 351 115 334 122 c 128,-1,33
 317 129 317 129 294.5 133 c 128,-1,34
 272 137 272 137 245 137 c 0,35,36
 219 137 219 137 196 133 c 128,-1,37
 173 129 173 129 156 122 c 128,-1,38
 139 115 139 115 129.5 105.5 c 128,-1,39
 120 96 120 96 120 85 c 256,20,21
40 272 m 0,40,41
 40 290 40 290 55.5 305 c 128,-1,42
 71 320 71 320 99 331.5 c 128,-1,43
 127 343 127 343 164.5 349 c 128,-1,44
 202 355 202 355 245 355 c 0,45,46
 289 355 289 355 326.5 349 c 128,-1,47
 364 343 364 343 391.5 331.5 c 128,-1,48
 419 320 419 320 435 305 c 128,-1,49
 451 290 451 290 451 272 c 0,50,51
 451 255 451 255 435 240 c 128,-1,52
 419 225 419 225 391.5 214 c 128,-1,53
 364 203 364 203 326.5 196 c 128,-1,54
 289 189 289 189 245 189 c 0,55,56
 202 189 202 189 164.5 196 c 128,-1,57
 127 203 127 203 99 214 c 128,-1,58
 71 225 71 225 55.5 240 c 128,-1,59
 40 255 40 255 40 272 c 0,40,41
120 272 m 256,60,61
 120 261 120 261 129.5 251.5 c 128,-1,62
 139 242 139 242 156 235 c 128,-1,63
 173 228 173 228 196 224 c 128,-1,64
 219 220 219 220 245 220 c 0,65,66
 272 220 272 220 294.5 224 c 128,-1,67
 317 228 317 228 334 235 c 128,-1,68
 351 242 351 242 360.5 251.5 c 128,-1,69
 370 261 370 261 370 272 c 256,70,71
 370 283 370 283 360.5 292.5 c 128,-1,72
 351 302 351 302 334 309 c 128,-1,73
 317 316 317 316 294.5 320 c 128,-1,74
 272 324 272 324 245 324 c 0,75,76
 219 324 219 324 196 320 c 128,-1,77
 173 316 173 316 156 309 c 128,-1,78
 139 302 139 302 129.5 292.5 c 128,-1,79
 120 283 120 283 120 272 c 256,60,61
40 461 m 256,80,81
 40 478 40 478 55.5 493.5 c 128,-1,82
 71 509 71 509 99 520 c 128,-1,83
 127 531 127 531 164.5 537.5 c 128,-1,84
 202 544 202 544 245 544 c 0,85,86
 289 544 289 544 326.5 537.5 c 128,-1,87
 364 531 364 531 391.5 520 c 128,-1,88
 419 509 419 509 435 493.5 c 128,-1,89
 451 478 451 478 451 461 c 256,90,91
 451 444 451 444 435 429 c 128,-1,92
 419 414 419 414 391.5 402.5 c 128,-1,93
 364 391 364 391 326.5 384.5 c 128,-1,94
 289 378 289 378 245 378 c 0,95,96
 202 378 202 378 164.5 384.5 c 128,-1,97
 127 391 127 391 99 402.5 c 128,-1,98
 71 414 71 414 55.5 429 c 128,-1,99
 40 444 40 444 40 461 c 256,80,81
40 648 m 256,100,101
 40 665 40 665 55.5 680.5 c 128,-1,102
 71 696 71 696 99 707 c 128,-1,103
 127 718 127 718 164.5 724.5 c 128,-1,104
 202 731 202 731 245 731 c 0,105,106
 289 731 289 731 326.5 724.5 c 128,-1,107
 364 718 364 718 391.5 707 c 128,-1,108
 419 696 419 696 435 680.5 c 128,-1,109
 451 665 451 665 451 648 c 256,110,111
 451 631 451 631 435 616 c 128,-1,112
 419 601 419 601 391.5 589.5 c 128,-1,113
 364 578 364 578 326.5 571.5 c 128,-1,114
 289 565 289 565 245 565 c 0,115,116
 202 565 202 565 164.5 571.5 c 128,-1,117
 127 578 127 578 99 589.5 c 128,-1,118
 71 601 71 601 55.5 616 c 128,-1,119
 40 631 40 631 40 648 c 256,100,101
120 648 m 0,120,121
 120 637 120 637 129.5 627.5 c 128,-1,122
 139 618 139 618 156 611 c 128,-1,123
 173 604 173 604 196 600 c 128,-1,124
 219 596 219 596 245 596 c 0,125,126
 272 596 272 596 294.5 600 c 128,-1,127
 317 604 317 604 334 611 c 128,-1,128
 351 618 351 618 360.5 627.5 c 128,-1,129
 370 637 370 637 370 648 c 0,130,131
 370 658 370 658 360.5 668 c 128,-1,132
 351 678 351 678 334 685 c 128,-1,133
 317 692 317 692 294.5 696 c 128,-1,134
 272 700 272 700 245 700 c 0,135,136
 219 700 219 700 196 696 c 128,-1,137
 173 692 173 692 156 685 c 128,-1,138
 139 678 139 678 129.5 668 c 128,-1,139
 120 658 120 658 120 648 c 0,120,121
EndSplineSet
EndChar

StartChar: uni0085
Encoding: 133 133 191
Width: 480
Flags: W
LayerCount: 2
Fore
SplineSet
40 85 m 0,0,1
 40 103 40 103 55.5 118 c 128,-1,2
 71 133 71 133 99 144.5 c 128,-1,3
 127 156 127 156 164.5 162.5 c 128,-1,4
 202 169 202 169 245 169 c 0,5,6
 289 169 289 169 326.5 162.5 c 128,-1,7
 364 156 364 156 391.5 144.5 c 128,-1,8
 419 133 419 133 435 118 c 128,-1,9
 451 103 451 103 451 85 c 0,10,11
 451 68 451 68 435 53 c 128,-1,12
 419 38 419 38 391.5 27 c 128,-1,13
 364 16 364 16 326.5 9.5 c 128,-1,14
 289 3 289 3 245 3 c 0,15,16
 202 3 202 3 164.5 9.5 c 128,-1,17
 127 16 127 16 99 27 c 128,-1,18
 71 38 71 38 55.5 53 c 128,-1,19
 40 68 40 68 40 85 c 0,0,1
40 272 m 0,20,21
 40 290 40 290 55.5 305 c 128,-1,22
 71 320 71 320 99 331.5 c 128,-1,23
 127 343 127 343 164.5 349 c 128,-1,24
 202 355 202 355 245 355 c 0,25,26
 289 355 289 355 326.5 349 c 128,-1,27
 364 343 364 343 391.5 331.5 c 128,-1,28
 419 320 419 320 435 305 c 128,-1,29
 451 290 451 290 451 272 c 0,30,31
 451 255 451 255 435 240 c 128,-1,32
 419 225 419 225 391.5 214 c 128,-1,33
 364 203 364 203 326.5 196 c 128,-1,34
 289 189 289 189 245 189 c 0,35,36
 202 189 202 189 164.5 196 c 128,-1,37
 127 203 127 203 99 214 c 128,-1,38
 71 225 71 225 55.5 240 c 128,-1,39
 40 255 40 255 40 272 c 0,20,21
120 272 m 256,40,41
 120 261 120 261 129.5 251.5 c 128,-1,42
 139 242 139 242 156 235 c 128,-1,43
 173 228 173 228 196 224 c 128,-1,44
 219 220 219 220 245 220 c 0,45,46
 272 220 272 220 294.5 224 c 128,-1,47
 317 228 317 228 334 235 c 128,-1,48
 351 242 351 242 360.5 251.5 c 128,-1,49
 370 261 370 261 370 272 c 256,50,51
 370 283 370 283 360.5 292.5 c 128,-1,52
 351 302 351 302 334 309 c 128,-1,53
 317 316 317 316 294.5 320 c 128,-1,54
 272 324 272 324 245 324 c 0,55,56
 219 324 219 324 196 320 c 128,-1,57
 173 316 173 316 156 309 c 128,-1,58
 139 302 139 302 129.5 292.5 c 128,-1,59
 120 283 120 283 120 272 c 256,40,41
40 461 m 256,60,61
 40 478 40 478 55.5 493.5 c 128,-1,62
 71 509 71 509 99 520 c 128,-1,63
 127 531 127 531 164.5 537.5 c 128,-1,64
 202 544 202 544 245 544 c 0,65,66
 289 544 289 544 326.5 537.5 c 128,-1,67
 364 531 364 531 391.5 520 c 128,-1,68
 419 509 419 509 435 493.5 c 128,-1,69
 451 478 451 478 451 461 c 256,70,71
 451 444 451 444 435 429 c 128,-1,72
 419 414 419 414 391.5 402.5 c 128,-1,73
 364 391 364 391 326.5 384.5 c 128,-1,74
 289 378 289 378 245 378 c 0,75,76
 202 378 202 378 164.5 384.5 c 128,-1,77
 127 391 127 391 99 402.5 c 128,-1,78
 71 414 71 414 55.5 429 c 128,-1,79
 40 444 40 444 40 461 c 256,60,61
40 648 m 256,80,81
 40 665 40 665 55.5 680.5 c 128,-1,82
 71 696 71 696 99 707 c 128,-1,83
 127 718 127 718 164.5 724.5 c 128,-1,84
 202 731 202 731 245 731 c 0,85,86
 289 731 289 731 326.5 724.5 c 128,-1,87
 364 718 364 718 391.5 707 c 128,-1,88
 419 696 419 696 435 680.5 c 128,-1,89
 451 665 451 665 451 648 c 256,90,91
 451 631 451 631 435 616 c 128,-1,92
 419 601 419 601 391.5 589.5 c 128,-1,93
 364 578 364 578 326.5 571.5 c 128,-1,94
 289 565 289 565 245 565 c 0,95,96
 202 565 202 565 164.5 571.5 c 128,-1,97
 127 578 127 578 99 589.5 c 128,-1,98
 71 601 71 601 55.5 616 c 128,-1,99
 40 631 40 631 40 648 c 256,80,81
120 648 m 0,100,101
 120 637 120 637 129.5 627.5 c 128,-1,102
 139 618 139 618 156 611 c 128,-1,103
 173 604 173 604 196 600 c 128,-1,104
 219 596 219 596 245 596 c 0,105,106
 272 596 272 596 294.5 600 c 128,-1,107
 317 604 317 604 334 611 c 128,-1,108
 351 618 351 618 360.5 627.5 c 128,-1,109
 370 637 370 637 370 648 c 0,110,111
 370 658 370 658 360.5 668 c 128,-1,112
 351 678 351 678 334 685 c 128,-1,113
 317 692 317 692 294.5 696 c 128,-1,114
 272 700 272 700 245 700 c 0,115,116
 219 700 219 700 196 696 c 128,-1,117
 173 692 173 692 156 685 c 128,-1,118
 139 678 139 678 129.5 668 c 128,-1,119
 120 658 120 658 120 648 c 0,100,101
EndSplineSet
EndChar

StartChar: uni0086
Encoding: 134 134 192
Width: 480
Flags: W
LayerCount: 2
Fore
SplineSet
40 85 m 0,0,1
 40 103 40 103 55.5 118 c 128,-1,2
 71 133 71 133 99 144.5 c 128,-1,3
 127 156 127 156 164.5 162.5 c 128,-1,4
 202 169 202 169 245 169 c 0,5,6
 289 169 289 169 326.5 162.5 c 128,-1,7
 364 156 364 156 391.5 144.5 c 128,-1,8
 419 133 419 133 435 118 c 128,-1,9
 451 103 451 103 451 85 c 0,10,11
 451 68 451 68 435 53 c 128,-1,12
 419 38 419 38 391.5 27 c 128,-1,13
 364 16 364 16 326.5 9.5 c 128,-1,14
 289 3 289 3 245 3 c 0,15,16
 202 3 202 3 164.5 9.5 c 128,-1,17
 127 16 127 16 99 27 c 128,-1,18
 71 38 71 38 55.5 53 c 128,-1,19
 40 68 40 68 40 85 c 0,0,1
120 85 m 256,20,21
 120 74 120 74 129.5 64.5 c 128,-1,22
 139 55 139 55 156 48.5 c 128,-1,23
 173 42 173 42 196 38 c 128,-1,24
 219 34 219 34 245 34 c 0,25,26
 272 34 272 34 294.5 38 c 128,-1,27
 317 42 317 42 334 48.5 c 128,-1,28
 351 55 351 55 360.5 64.5 c 128,-1,29
 370 74 370 74 370 85 c 256,30,31
 370 96 370 96 360.5 105.5 c 128,-1,32
 351 115 351 115 334 122 c 128,-1,33
 317 129 317 129 294.5 133 c 128,-1,34
 272 137 272 137 245 137 c 0,35,36
 219 137 219 137 196 133 c 128,-1,37
 173 129 173 129 156 122 c 128,-1,38
 139 115 139 115 129.5 105.5 c 128,-1,39
 120 96 120 96 120 85 c 256,20,21
40 272 m 0,40,41
 40 290 40 290 55.5 305 c 128,-1,42
 71 320 71 320 99 331.5 c 128,-1,43
 127 343 127 343 164.5 349 c 128,-1,44
 202 355 202 355 245 355 c 0,45,46
 289 355 289 355 326.5 349 c 128,-1,47
 364 343 364 343 391.5 331.5 c 128,-1,48
 419 320 419 320 435 305 c 128,-1,49
 451 290 451 290 451 272 c 0,50,51
 451 255 451 255 435 240 c 128,-1,52
 419 225 419 225 391.5 214 c 128,-1,53
 364 203 364 203 326.5 196 c 128,-1,54
 289 189 289 189 245 189 c 0,55,56
 202 189 202 189 164.5 196 c 128,-1,57
 127 203 127 203 99 214 c 128,-1,58
 71 225 71 225 55.5 240 c 128,-1,59
 40 255 40 255 40 272 c 0,40,41
40 461 m 256,60,61
 40 478 40 478 55.5 493.5 c 128,-1,62
 71 509 71 509 99 520 c 128,-1,63
 127 531 127 531 164.5 537.5 c 128,-1,64
 202 544 202 544 245 544 c 0,65,66
 289 544 289 544 326.5 537.5 c 128,-1,67
 364 531 364 531 391.5 520 c 128,-1,68
 419 509 419 509 435 493.5 c 128,-1,69
 451 478 451 478 451 461 c 256,70,71
 451 444 451 444 435 429 c 128,-1,72
 419 414 419 414 391.5 402.5 c 128,-1,73
 364 391 364 391 326.5 384.5 c 128,-1,74
 289 378 289 378 245 378 c 0,75,76
 202 378 202 378 164.5 384.5 c 128,-1,77
 127 391 127 391 99 402.5 c 128,-1,78
 71 414 71 414 55.5 429 c 128,-1,79
 40 444 40 444 40 461 c 256,60,61
40 648 m 256,80,81
 40 665 40 665 55.5 680.5 c 128,-1,82
 71 696 71 696 99 707 c 128,-1,83
 127 718 127 718 164.5 724.5 c 128,-1,84
 202 731 202 731 245 731 c 0,85,86
 289 731 289 731 326.5 724.5 c 128,-1,87
 364 718 364 718 391.5 707 c 128,-1,88
 419 696 419 696 435 680.5 c 128,-1,89
 451 665 451 665 451 648 c 256,90,91
 451 631 451 631 435 616 c 128,-1,92
 419 601 419 601 391.5 589.5 c 128,-1,93
 364 578 364 578 326.5 571.5 c 128,-1,94
 289 565 289 565 245 565 c 0,95,96
 202 565 202 565 164.5 571.5 c 128,-1,97
 127 578 127 578 99 589.5 c 128,-1,98
 71 601 71 601 55.5 616 c 128,-1,99
 40 631 40 631 40 648 c 256,80,81
120 648 m 0,100,101
 120 637 120 637 129.5 627.5 c 128,-1,102
 139 618 139 618 156 611 c 128,-1,103
 173 604 173 604 196 600 c 128,-1,104
 219 596 219 596 245 596 c 0,105,106
 272 596 272 596 294.5 600 c 128,-1,107
 317 604 317 604 334 611 c 128,-1,108
 351 618 351 618 360.5 627.5 c 128,-1,109
 370 637 370 637 370 648 c 0,110,111
 370 658 370 658 360.5 668 c 128,-1,112
 351 678 351 678 334 685 c 128,-1,113
 317 692 317 692 294.5 696 c 128,-1,114
 272 700 272 700 245 700 c 0,115,116
 219 700 219 700 196 696 c 128,-1,117
 173 692 173 692 156 685 c 128,-1,118
 139 678 139 678 129.5 668 c 128,-1,119
 120 658 120 658 120 648 c 0,100,101
EndSplineSet
EndChar

